<svg xmlns="http://www.w3.org/2000/svg" xmlns:xlink="http://www.w3.org/1999/xlink" width="240" zoomAndPan="magnify" viewBox="0 0 180 195.000001" height="260" preserveAspectRatio="xMidYMid meet" version="1.0"><defs><g/><clipPath id="9797295891"><path d="M 0.460938 0 L 179.539062 0 L 179.539062 194.003906 L 0.460938 194.003906 Z M 0.460938 0 " clip-rule="nonzero"/></clipPath><clipPath id="a21e157b1c"><path d="M 18.367188 39.695312 L 161.632812 39.695312 L 161.632812 91 L 18.367188 91 Z M 18.367188 39.695312 " clip-rule="nonzero"/></clipPath></defs><g clip-path="url(#9797295891)"><path fill="#ffffff" d="M 0.460938 0 L 179.539062 0 L 179.539062 194.003906 L 0.460938 194.003906 Z M 0.460938 0 " fill-opacity="1" fill-rule="nonzero"/><path fill="#ffffff" d="M 0.460938 0 L 179.539062 0 L 179.539062 194.003906 L 0.460938 194.003906 Z M 0.460938 0 " fill-opacity="1" fill-rule="nonzero"/></g><path fill="#000000" d="M 146.535156 66.636719 C 146.191406 66.957031 145.996094 67.394531 145.984375 67.867188 C 145.96875 68.335938 146.136719 68.78125 146.460938 69.125 C 146.46875 69.132812 146.476562 69.140625 146.488281 69.152344 C 147.152344 69.828125 148.246094 69.855469 148.941406 69.199219 L 150.484375 67.71875 C 150.824219 67.394531 151.019531 66.960938 151.035156 66.488281 C 151.046875 66.015625 150.878906 65.570312 150.558594 65.230469 C 149.894531 64.523438 148.816406 64.507812 148.097656 65.183594 C 148.042969 65.234375 146.554688 66.621094 146.535156 66.636719 Z M 146.535156 66.636719 " fill-opacity="1" fill-rule="nonzero"/><path fill="#000000" d="M 140.625 63.335938 C 140.605469 63.953125 140.828125 64.539062 141.25 64.984375 C 141.671875 65.433594 142.242188 65.691406 142.859375 65.707031 C 143.476562 65.726562 144.0625 65.503906 144.511719 65.082031 C 144.546875 65.046875 144.582031 65.019531 144.625 64.988281 C 144.6875 64.917969 147.558594 62.175781 147.582031 62.15625 C 148.03125 61.734375 148.285156 61.164062 148.304688 60.546875 C 148.324219 59.929688 148.101562 59.34375 147.679688 58.894531 C 146.824219 57.988281 145.421875 57.917969 144.480469 58.742188 C 144.480469 58.742188 141.375 61.699219 141.347656 61.722656 C 140.898438 62.144531 140.640625 62.71875 140.625 63.335938 Z M 140.625 63.335938 " fill-opacity="1" fill-rule="nonzero"/><path fill="#000000" d="M 135.953125 60.234375 C 135.964844 60.25 135.980469 60.261719 135.992188 60.277344 C 136.417969 60.703125 136.980469 60.945312 137.582031 60.957031 C 137.597656 60.960938 137.609375 60.960938 137.621094 60.960938 C 138.238281 60.960938 138.816406 60.726562 139.253906 60.296875 C 139.449219 60.054688 142.976562 56.695312 143.015625 56.65625 C 143.464844 56.234375 143.722656 55.664062 143.738281 55.046875 C 143.738281 55.035156 143.738281 55.023438 143.742188 55.007812 C 143.75 54.40625 143.527344 53.835938 143.113281 53.394531 C 143.101562 53.382812 143.085938 53.367188 143.074219 53.355469 C 141.664062 51.890625 140.089844 52.984375 139.359375 53.667969 C 139.25 53.773438 136.507812 56.425781 136.394531 56.53125 C 135.691406 57.242188 134.601562 58.632812 135.953125 60.234375 Z M 135.953125 60.234375 " fill-opacity="1" fill-rule="nonzero"/><path fill="#000000" d="M 134.847656 54.535156 L 137.417969 52.050781 C 138.34375 51.175781 138.386719 49.714844 137.515625 48.789062 C 136.644531 47.863281 135.179688 47.820312 134.253906 48.691406 L 131.601562 51.257812 C 130.699219 52.152344 130.691406 53.613281 131.585938 54.519531 C 132.480469 55.421875 133.941406 55.429688 134.847656 54.535156 Z M 134.847656 54.535156 " fill-opacity="1" fill-rule="nonzero"/><g clip-path="url(#a21e157b1c)"><path fill="#000000" d="M 150.953125 70.761719 L 150.675781 71.03125 C 148.957031 72.648438 146.242188 72.566406 144.625 70.851562 C 143.941406 70.125 143.539062 69.1875 143.472656 68.195312 C 142 68.367188 140.53125 67.847656 139.488281 66.789062 C 139.464844 66.761719 139.441406 66.738281 139.414062 66.714844 C 138.574219 65.820312 138.117188 64.65625 138.105469 63.453125 C 136.664062 63.59375 135.222656 63.078125 134.203125 62.046875 C 133.640625 61.476562 133.246094 60.828125 133.023438 60.113281 C 132.824219 59.457031 132.777344 58.765625 132.882812 58.058594 C 132.902344 57.941406 132.921875 57.828125 132.949219 57.710938 C 131.753906 57.644531 130.640625 57.148438 129.792969 56.289062 C 128.890625 55.375 128.394531 54.160156 128.402344 52.867188 C 128.402344 52.617188 128.425781 52.367188 128.464844 52.121094 C 127.527344 51.519531 126.542969 50.914062 125.515625 50.308594 C 120.355469 47.269531 115.078125 44.84375 109.824219 43.097656 C 103.132812 40.871094 96.464844 39.742188 89.996094 39.742188 C 83.53125 39.742188 76.859375 40.871094 70.171875 43.097656 C 64.917969 44.84375 59.640625 47.269531 54.480469 50.308594 C 53.449219 50.914062 52.46875 51.519531 51.53125 52.121094 C 51.570312 52.367188 51.59375 52.617188 51.59375 52.867188 C 51.601562 54.160156 51.105469 55.375 50.199219 56.289062 C 49.351562 57.148438 48.238281 57.644531 47.046875 57.710938 C 47.070312 57.828125 47.09375 57.941406 47.109375 58.058594 C 47.21875 58.765625 47.171875 59.457031 46.96875 60.113281 C 46.75 60.828125 46.355469 61.476562 45.792969 62.046875 C 44.773438 63.078125 43.332031 63.59375 41.890625 63.453125 C 41.878906 64.652344 41.417969 65.820312 40.578125 66.714844 C 40.554688 66.738281 40.53125 66.761719 40.507812 66.789062 C 39.464844 67.847656 37.996094 68.363281 36.523438 68.195312 C 36.457031 69.1875 36.054688 70.125 35.367188 70.851562 C 33.75 72.566406 31.039062 72.648438 29.320312 71.03125 L 29.042969 70.761719 L 18.367188 80.371094 L 27.304688 90.304688 L 49.195312 70.597656 L 49.253906 70.539062 C 49.382812 70.421875 51.496094 68.449219 55.054688 65.878906 L 54.257812 65.675781 C 52.792969 65.3125 51.578125 64.261719 51.007812 62.863281 C 50.371094 61.308594 50.609375 59.515625 51.625 58.175781 C 52.773438 56.667969 54.65625 55.886719 56.535156 56.132812 L 61.28125 56.761719 C 62.675781 56.945312 63.957031 57.632812 64.882812 58.691406 L 65.5625 59.472656 C 72.058594 56.207031 80.683594 53.101562 90 53.101562 C 99.3125 53.101562 107.9375 56.207031 114.433594 59.472656 L 115.117188 58.691406 C 116.042969 57.632812 117.320312 56.945312 118.714844 56.761719 L 123.460938 56.132812 C 125.339844 55.886719 127.222656 56.667969 128.371094 58.175781 C 129.390625 59.515625 129.625 61.308594 128.988281 62.863281 C 128.417969 64.261719 127.203125 65.3125 125.738281 65.675781 L 124.941406 65.878906 C 128.5 68.449219 130.613281 70.421875 130.742188 70.539062 L 130.800781 70.597656 L 152.691406 90.304688 L 161.632812 80.371094 Z M 150.953125 70.761719 " fill-opacity="1" fill-rule="nonzero"/></g><path fill="#000000" d="M 109.484375 87.714844 L 128.195312 96.953125 C 128.398438 96.542969 130.347656 92.605469 130.347656 92.605469 L 112.121094 83.125 Z M 109.484375 87.714844 " fill-opacity="1" fill-rule="nonzero"/><path fill="#000000" d="M 120.214844 65.308594 C 120.855469 64.578125 121.695312 64.066406 122.636719 63.832031 L 125.121094 63.210938 C 125.800781 63.039062 126.367188 62.550781 126.632812 61.902344 C 126.929688 61.175781 126.820312 60.339844 126.347656 59.71875 C 125.75 58.933594 124.769531 58.527344 123.792969 58.65625 L 119.046875 59.285156 C 118.265625 59.386719 117.546875 59.769531 117.03125 60.367188 L 113.203125 64.75 C 112.015625 66.105469 111.617188 67.945312 112.132812 69.671875 L 115.824219 82.164062 C 115.828125 82.171875 115.828125 82.179688 115.832031 82.1875 L 129.898438 89.503906 L 131.984375 88.109375 C 132.800781 87.5625 133.488281 86.996094 134.183594 86.300781 L 138.4375 81.246094 C 138.4375 81.246094 123.636719 67.609375 120.046875 65.546875 C 120.050781 65.546875 120.152344 65.382812 120.214844 65.308594 Z M 120.214844 65.308594 " fill-opacity="1" fill-rule="nonzero"/><path fill="#000000" d="M 29.511719 67.71875 L 31.050781 69.199219 C 31.746094 69.851562 32.839844 69.828125 33.507812 69.152344 C 33.515625 69.140625 33.527344 69.132812 33.535156 69.125 C 33.855469 68.78125 34.027344 68.335938 34.011719 67.867188 C 34 67.394531 33.800781 66.960938 33.460938 66.636719 C 33.441406 66.621094 31.953125 65.234375 31.898438 65.183594 C 31.179688 64.507812 30.101562 64.523438 29.4375 65.230469 C 29.117188 65.570312 28.945312 66.015625 28.960938 66.488281 C 28.972656 66.960938 29.167969 67.394531 29.511719 67.71875 Z M 29.511719 67.71875 " fill-opacity="1" fill-rule="nonzero"/><path fill="#000000" d="M 32.414062 62.15625 C 32.433594 62.179688 35.308594 64.917969 35.371094 64.988281 C 35.410156 65.019531 35.449219 65.050781 35.484375 65.082031 C 35.933594 65.503906 36.519531 65.726562 37.136719 65.707031 C 37.753906 65.691406 38.324219 65.433594 38.746094 64.984375 C 39.167969 64.539062 39.390625 63.953125 39.371094 63.335938 C 39.351562 62.71875 39.097656 62.148438 38.648438 61.722656 C 38.621094 61.699219 35.511719 58.742188 35.511719 58.742188 C 34.574219 57.917969 33.171875 57.988281 32.316406 58.894531 C 31.894531 59.34375 31.671875 59.929688 31.691406 60.546875 C 31.707031 61.164062 31.964844 61.734375 32.414062 62.15625 Z M 32.414062 62.15625 " fill-opacity="1" fill-rule="nonzero"/><path fill="#000000" d="M 36.980469 56.65625 C 37.019531 56.695312 40.546875 60.054688 40.742188 60.296875 C 41.179688 60.726562 41.757812 60.960938 42.375 60.960938 C 42.386719 60.960938 42.398438 60.960938 42.410156 60.957031 C 43.011719 60.945312 43.578125 60.703125 44 60.277344 C 44.015625 60.261719 44.027344 60.25 44.042969 60.234375 C 45.394531 58.632812 44.304688 57.242188 43.597656 56.53125 C 43.488281 56.425781 40.746094 53.773438 40.636719 53.667969 C 39.902344 52.984375 38.332031 51.886719 36.921875 53.355469 C 36.90625 53.367188 36.894531 53.382812 36.878906 53.394531 C 36.46875 53.835938 36.246094 54.40625 36.253906 55.007812 C 36.253906 55.023438 36.253906 55.035156 36.253906 55.046875 C 36.273438 55.664062 36.53125 56.234375 36.980469 56.65625 Z M 36.980469 56.65625 " fill-opacity="1" fill-rule="nonzero"/><path fill="#000000" d="M 42.578125 52.050781 L 45.148438 54.535156 C 46.054688 55.429688 47.515625 55.421875 48.410156 54.519531 C 49.304688 53.613281 49.296875 52.148438 48.390625 51.253906 L 45.742188 48.691406 C 44.816406 47.820312 43.351562 47.863281 42.480469 48.789062 C 41.609375 49.714844 41.652344 51.175781 42.578125 52.050781 Z M 42.578125 52.050781 " fill-opacity="1" fill-rule="nonzero"/><path fill="#000000" d="M 49.644531 92.605469 C 49.644531 92.605469 51.597656 96.542969 51.800781 96.953125 L 70.511719 87.714844 L 67.871094 83.125 Z M 49.644531 92.605469 " fill-opacity="1" fill-rule="nonzero"/><path fill="#000000" d="M 64.164062 82.1875 C 64.164062 82.179688 64.167969 82.171875 64.167969 82.160156 L 67.863281 69.671875 C 68.375 67.945312 67.976562 66.105469 66.792969 64.75 L 62.964844 60.363281 C 62.445312 59.769531 61.730469 59.386719 60.949219 59.28125 L 56.199219 58.65625 C 55.222656 58.527344 54.246094 58.933594 53.648438 59.71875 C 53.171875 60.339844 53.0625 61.175781 53.359375 61.898438 C 53.625 62.550781 54.191406 63.039062 54.871094 63.207031 L 57.355469 63.828125 C 58.300781 64.066406 59.136719 64.578125 59.777344 65.308594 C 59.84375 65.378906 59.945312 65.542969 59.945312 65.542969 C 56.355469 67.609375 41.558594 81.246094 41.558594 81.246094 L 45.808594 86.296875 C 46.503906 86.996094 47.195312 87.558594 48.007812 88.105469 L 50.09375 89.503906 Z M 64.164062 82.1875 " fill-opacity="1" fill-rule="nonzero"/><g fill="#000000" fill-opacity="1"><g transform="translate(29.723173, 125.691651)"><g><path d="M 0.5625 -6.96875 L 1.625 -6.96875 L 1.546875 -4.203125 L 0.640625 -4.203125 Z M 2.484375 -6.96875 L 3.546875 -6.96875 L 3.46875 -4.203125 L 2.5625 -4.203125 Z M 2.484375 -6.96875 "/></g></g></g><g fill="#000000" fill-opacity="1"><g transform="translate(33.830486, 125.691651)"><g><path d="M 4.15625 0.09375 C 3.457031 0.09375 2.820312 -0.0546875 2.25 -0.359375 C 1.6875 -0.671875 1.242188 -1.097656 0.921875 -1.640625 C 0.597656 -2.179688 0.4375 -2.796875 0.4375 -3.484375 C 0.4375 -4.171875 0.597656 -4.785156 0.921875 -5.328125 C 1.242188 -5.867188 1.6875 -6.289062 2.25 -6.59375 C 2.820312 -6.90625 3.460938 -7.0625 4.171875 -7.0625 C 4.742188 -7.0625 5.265625 -6.960938 5.734375 -6.765625 C 6.203125 -6.566406 6.597656 -6.28125 6.921875 -5.90625 L 6.09375 -5.109375 C 5.582031 -5.660156 4.960938 -5.9375 4.234375 -5.9375 C 3.753906 -5.9375 3.320312 -5.832031 2.9375 -5.625 C 2.5625 -5.414062 2.265625 -5.125 2.046875 -4.75 C 1.835938 -4.375 1.734375 -3.953125 1.734375 -3.484375 C 1.734375 -3.015625 1.835938 -2.59375 2.046875 -2.21875 C 2.265625 -1.84375 2.5625 -1.550781 2.9375 -1.34375 C 3.320312 -1.132812 3.753906 -1.03125 4.234375 -1.03125 C 4.960938 -1.03125 5.582031 -1.304688 6.09375 -1.859375 L 6.921875 -1.0625 C 6.597656 -0.6875 6.195312 -0.398438 5.71875 -0.203125 C 5.25 -0.00390625 4.726562 0.09375 4.15625 0.09375 Z M 4.15625 0.09375 "/></g></g></g><g fill="#000000" fill-opacity="1"><g transform="translate(41.060544, 125.691651)"><g><path d="M 3.203125 0.0625 C 2.671875 0.0625 2.1875 -0.0507812 1.75 -0.28125 C 1.320312 -0.507812 0.984375 -0.832031 0.734375 -1.25 C 0.492188 -1.664062 0.375 -2.132812 0.375 -2.65625 C 0.375 -3.175781 0.492188 -3.640625 0.734375 -4.046875 C 0.984375 -4.460938 1.320312 -4.785156 1.75 -5.015625 C 2.1875 -5.253906 2.671875 -5.375 3.203125 -5.375 C 3.742188 -5.375 4.226562 -5.253906 4.65625 -5.015625 C 5.09375 -4.785156 5.429688 -4.460938 5.671875 -4.046875 C 5.921875 -3.640625 6.046875 -3.175781 6.046875 -2.65625 C 6.046875 -2.132812 5.921875 -1.664062 5.671875 -1.25 C 5.429688 -0.832031 5.09375 -0.507812 4.65625 -0.28125 C 4.226562 -0.0507812 3.742188 0.0625 3.203125 0.0625 Z M 3.203125 -1 C 3.660156 -1 4.035156 -1.148438 4.328125 -1.453125 C 4.628906 -1.753906 4.78125 -2.15625 4.78125 -2.65625 C 4.78125 -3.15625 4.628906 -3.554688 4.328125 -3.859375 C 4.035156 -4.160156 3.660156 -4.3125 3.203125 -4.3125 C 2.742188 -4.3125 2.363281 -4.160156 2.0625 -3.859375 C 1.769531 -3.554688 1.625 -3.15625 1.625 -2.65625 C 1.625 -2.15625 1.769531 -1.753906 2.0625 -1.453125 C 2.363281 -1.148438 2.742188 -1 3.203125 -1 Z M 3.203125 -1 "/></g></g></g><g fill="#000000" fill-opacity="1"><g transform="translate(47.475101, 125.691651)"><g><path d="M 2 -4.53125 C 2.351562 -5.09375 2.984375 -5.375 3.890625 -5.375 L 3.890625 -4.1875 C 3.785156 -4.207031 3.691406 -4.21875 3.609375 -4.21875 C 3.117188 -4.21875 2.738281 -4.078125 2.46875 -3.796875 C 2.195312 -3.515625 2.0625 -3.109375 2.0625 -2.578125 L 2.0625 0 L 0.8125 0 L 0.8125 -5.3125 L 2 -5.3125 Z M 2 -4.53125 "/></g></g></g><g fill="#000000" fill-opacity="1"><g transform="translate(51.652026, 125.691651)"><g><path d="M 4.015625 -0.28125 C 3.867188 -0.164062 3.691406 -0.078125 3.484375 -0.015625 C 3.273438 0.0351562 3.050781 0.0625 2.8125 0.0625 C 2.226562 0.0625 1.773438 -0.0859375 1.453125 -0.390625 C 1.140625 -0.691406 0.984375 -1.132812 0.984375 -1.71875 L 0.984375 -4.28125 L 0.109375 -4.28125 L 0.109375 -5.28125 L 0.984375 -5.28125 L 0.984375 -6.484375 L 2.234375 -6.484375 L 2.234375 -5.28125 L 3.65625 -5.28125 L 3.65625 -4.28125 L 2.234375 -4.28125 L 2.234375 -1.75 C 2.234375 -1.488281 2.296875 -1.289062 2.421875 -1.15625 C 2.546875 -1.019531 2.726562 -0.953125 2.96875 -0.953125 C 3.25 -0.953125 3.476562 -1.023438 3.65625 -1.171875 Z M 4.015625 -0.28125 "/></g></g></g><g fill="#000000" fill-opacity="1"><g transform="translate(55.868732, 125.691651)"><g><path d="M 5.8125 -2.625 C 5.8125 -2.539062 5.804688 -2.421875 5.796875 -2.265625 L 1.625 -2.265625 C 1.695312 -1.867188 1.882812 -1.554688 2.1875 -1.328125 C 2.5 -1.097656 2.882812 -0.984375 3.34375 -0.984375 C 3.925781 -0.984375 4.40625 -1.175781 4.78125 -1.5625 L 5.453125 -0.796875 C 5.210938 -0.515625 4.910156 -0.300781 4.546875 -0.15625 C 4.179688 -0.0078125 3.769531 0.0625 3.3125 0.0625 C 2.726562 0.0625 2.210938 -0.0507812 1.765625 -0.28125 C 1.328125 -0.507812 0.984375 -0.832031 0.734375 -1.25 C 0.492188 -1.664062 0.375 -2.132812 0.375 -2.65625 C 0.375 -3.175781 0.488281 -3.640625 0.71875 -4.046875 C 0.957031 -4.460938 1.285156 -4.785156 1.703125 -5.015625 C 2.128906 -5.253906 2.601562 -5.375 3.125 -5.375 C 3.644531 -5.375 4.109375 -5.257812 4.515625 -5.03125 C 4.921875 -4.800781 5.238281 -4.476562 5.46875 -4.0625 C 5.695312 -3.644531 5.8125 -3.164062 5.8125 -2.625 Z M 3.125 -4.375 C 2.726562 -4.375 2.390625 -4.253906 2.109375 -4.015625 C 1.835938 -3.785156 1.671875 -3.472656 1.609375 -3.078125 L 4.625 -3.078125 C 4.570312 -3.460938 4.410156 -3.773438 4.140625 -4.015625 C 3.867188 -4.253906 3.53125 -4.375 3.125 -4.375 Z M 3.125 -4.375 "/></g></g></g><g fill="#000000" fill-opacity="1"><g transform="translate(62.054562, 125.691651)"><g/></g></g><g fill="#000000" fill-opacity="1"><g transform="translate(64.799393, 125.691651)"><g><path d="M 5.796875 -5.3125 L 3.296875 0.421875 C 3.066406 1.003906 2.785156 1.410156 2.453125 1.640625 C 2.117188 1.878906 1.71875 2 1.25 2 C 0.988281 2 0.726562 1.953125 0.46875 1.859375 C 0.207031 1.773438 -0.00390625 1.660156 -0.171875 1.515625 L 0.328125 0.59375 C 0.441406 0.707031 0.582031 0.796875 0.75 0.859375 C 0.914062 0.929688 1.082031 0.96875 1.25 0.96875 C 1.46875 0.96875 1.644531 0.910156 1.78125 0.796875 C 1.925781 0.679688 2.0625 0.492188 2.1875 0.234375 L 2.265625 0.015625 L -0.046875 -5.3125 L 1.25 -5.3125 L 2.921875 -1.390625 L 4.59375 -5.3125 Z M 5.796875 -5.3125 "/></g></g></g><g fill="#000000" fill-opacity="1"><g transform="translate(70.547636, 125.691651)"><g/></g></g><g fill="#000000" fill-opacity="1"><g transform="translate(73.292467, 125.691651)"><g><path d="M 6.015625 -7.390625 L 6.015625 0 L 4.828125 0 L 4.828125 -0.6875 C 4.617188 -0.4375 4.363281 -0.25 4.0625 -0.125 C 3.757812 0 3.425781 0.0625 3.0625 0.0625 C 2.550781 0.0625 2.09375 -0.046875 1.6875 -0.265625 C 1.28125 -0.492188 0.957031 -0.8125 0.71875 -1.21875 C 0.488281 -1.632812 0.375 -2.113281 0.375 -2.65625 C 0.375 -3.195312 0.488281 -3.671875 0.71875 -4.078125 C 0.957031 -4.492188 1.28125 -4.8125 1.6875 -5.03125 C 2.09375 -5.257812 2.550781 -5.375 3.0625 -5.375 C 3.414062 -5.375 3.738281 -5.3125 4.03125 -5.1875 C 4.320312 -5.070312 4.570312 -4.894531 4.78125 -4.65625 L 4.78125 -7.390625 Z M 3.21875 -1 C 3.507812 -1 3.773438 -1.066406 4.015625 -1.203125 C 4.253906 -1.335938 4.441406 -1.53125 4.578125 -1.78125 C 4.722656 -2.03125 4.796875 -2.320312 4.796875 -2.65625 C 4.796875 -2.988281 4.722656 -3.28125 4.578125 -3.53125 C 4.441406 -3.78125 4.253906 -3.972656 4.015625 -4.109375 C 3.773438 -4.242188 3.507812 -4.3125 3.21875 -4.3125 C 2.914062 -4.3125 2.644531 -4.242188 2.40625 -4.109375 C 2.164062 -3.972656 1.972656 -3.78125 1.828125 -3.53125 C 1.691406 -3.28125 1.625 -2.988281 1.625 -2.65625 C 1.625 -2.320312 1.691406 -2.03125 1.828125 -1.78125 C 1.972656 -1.53125 2.164062 -1.335938 2.40625 -1.203125 C 2.644531 -1.066406 2.914062 -1 3.21875 -1 Z M 3.21875 -1 "/></g></g></g><g fill="#000000" fill-opacity="1"><g transform="translate(80.12472, 125.691651)"><g><path d="M 3.203125 0.0625 C 2.671875 0.0625 2.1875 -0.0507812 1.75 -0.28125 C 1.320312 -0.507812 0.984375 -0.832031 0.734375 -1.25 C 0.492188 -1.664062 0.375 -2.132812 0.375 -2.65625 C 0.375 -3.175781 0.492188 -3.640625 0.734375 -4.046875 C 0.984375 -4.460938 1.320312 -4.785156 1.75 -5.015625 C 2.1875 -5.253906 2.671875 -5.375 3.203125 -5.375 C 3.742188 -5.375 4.226562 -5.253906 4.65625 -5.015625 C 5.09375 -4.785156 5.429688 -4.460938 5.671875 -4.046875 C 5.921875 -3.640625 6.046875 -3.175781 6.046875 -2.65625 C 6.046875 -2.132812 5.921875 -1.664062 5.671875 -1.25 C 5.429688 -0.832031 5.09375 -0.507812 4.65625 -0.28125 C 4.226562 -0.0507812 3.742188 0.0625 3.203125 0.0625 Z M 3.203125 -1 C 3.660156 -1 4.035156 -1.148438 4.328125 -1.453125 C 4.628906 -1.753906 4.78125 -2.15625 4.78125 -2.65625 C 4.78125 -3.15625 4.628906 -3.554688 4.328125 -3.859375 C 4.035156 -4.160156 3.660156 -4.3125 3.203125 -4.3125 C 2.742188 -4.3125 2.363281 -4.160156 2.0625 -3.859375 C 1.769531 -3.554688 1.625 -3.15625 1.625 -2.65625 C 1.625 -2.15625 1.769531 -1.753906 2.0625 -1.453125 C 2.363281 -1.148438 2.742188 -1 3.203125 -1 Z M 3.203125 -1 "/></g></g></g><g fill="#000000" fill-opacity="1"><g transform="translate(86.539278, 125.691651)"><g><path d="M 3.765625 -5.375 C 4.273438 -5.375 4.734375 -5.257812 5.140625 -5.03125 C 5.554688 -4.8125 5.878906 -4.492188 6.109375 -4.078125 C 6.335938 -3.671875 6.453125 -3.195312 6.453125 -2.65625 C 6.453125 -2.113281 6.335938 -1.632812 6.109375 -1.21875 C 5.878906 -0.8125 5.554688 -0.492188 5.140625 -0.265625 C 4.734375 -0.046875 4.273438 0.0625 3.765625 0.0625 C 3.398438 0.0625 3.066406 0 2.765625 -0.125 C 2.460938 -0.25 2.207031 -0.4375 2 -0.6875 L 2 0 L 0.8125 0 L 0.8125 -7.390625 L 2.0625 -7.390625 L 2.0625 -4.671875 C 2.269531 -4.898438 2.519531 -5.070312 2.8125 -5.1875 C 3.101562 -5.3125 3.421875 -5.375 3.765625 -5.375 Z M 3.625 -1 C 4.082031 -1 4.457031 -1.148438 4.75 -1.453125 C 5.050781 -1.753906 5.203125 -2.15625 5.203125 -2.65625 C 5.203125 -3.15625 5.050781 -3.554688 4.75 -3.859375 C 4.457031 -4.160156 4.082031 -4.3125 3.625 -4.3125 C 3.320312 -4.3125 3.050781 -4.242188 2.8125 -4.109375 C 2.570312 -3.972656 2.382812 -3.78125 2.25 -3.53125 C 2.113281 -3.28125 2.046875 -2.988281 2.046875 -2.65625 C 2.046875 -2.320312 2.113281 -2.03125 2.25 -1.78125 C 2.382812 -1.53125 2.570312 -1.335938 2.8125 -1.203125 C 3.050781 -1.066406 3.320312 -1 3.625 -1 Z M 3.625 -1 "/></g></g></g><g fill="#000000" fill-opacity="1"><g transform="translate(93.361591, 125.691651)"><g><path d="M 0.8125 -7.390625 L 2.0625 -7.390625 L 2.0625 0 L 0.8125 0 Z M 0.8125 -7.390625 "/></g></g></g><g fill="#000000" fill-opacity="1"><g transform="translate(96.235707, 125.691651)"><g><path d="M 5.8125 -2.625 C 5.8125 -2.539062 5.804688 -2.421875 5.796875 -2.265625 L 1.625 -2.265625 C 1.695312 -1.867188 1.882812 -1.554688 2.1875 -1.328125 C 2.5 -1.097656 2.882812 -0.984375 3.34375 -0.984375 C 3.925781 -0.984375 4.40625 -1.175781 4.78125 -1.5625 L 5.453125 -0.796875 C 5.210938 -0.515625 4.910156 -0.300781 4.546875 -0.15625 C 4.179688 -0.0078125 3.769531 0.0625 3.3125 0.0625 C 2.726562 0.0625 2.210938 -0.0507812 1.765625 -0.28125 C 1.328125 -0.507812 0.984375 -0.832031 0.734375 -1.25 C 0.492188 -1.664062 0.375 -2.132812 0.375 -2.65625 C 0.375 -3.175781 0.488281 -3.640625 0.71875 -4.046875 C 0.957031 -4.460938 1.285156 -4.785156 1.703125 -5.015625 C 2.128906 -5.253906 2.601562 -5.375 3.125 -5.375 C 3.644531 -5.375 4.109375 -5.257812 4.515625 -5.03125 C 4.921875 -4.800781 5.238281 -4.476562 5.46875 -4.0625 C 5.695312 -3.644531 5.8125 -3.164062 5.8125 -2.625 Z M 3.125 -4.375 C 2.726562 -4.375 2.390625 -4.253906 2.109375 -4.015625 C 1.835938 -3.785156 1.671875 -3.472656 1.609375 -3.078125 L 4.625 -3.078125 C 4.570312 -3.460938 4.410156 -3.773438 4.140625 -4.015625 C 3.867188 -4.253906 3.53125 -4.375 3.125 -4.375 Z M 3.125 -4.375 "/></g></g></g><g fill="#000000" fill-opacity="1"><g transform="translate(102.421537, 125.691651)"><g><path d="M 4.96875 -1 L 4.96875 0 L 0.375 0 L 0.375 -0.78125 L 3.296875 -4.3125 L 0.4375 -4.3125 L 0.4375 -5.3125 L 4.890625 -5.3125 L 4.890625 -4.53125 L 1.953125 -1 Z M 4.96875 -1 "/></g></g></g><g fill="#000000" fill-opacity="1"><g transform="translate(107.712302, 125.691651)"><g/></g></g><g fill="#000000" fill-opacity="1"><g transform="translate(110.457133, 125.691651)"><g><path d="M 3.765625 -5.375 C 4.273438 -5.375 4.734375 -5.257812 5.140625 -5.03125 C 5.554688 -4.8125 5.878906 -4.492188 6.109375 -4.078125 C 6.335938 -3.671875 6.453125 -3.195312 6.453125 -2.65625 C 6.453125 -2.113281 6.335938 -1.632812 6.109375 -1.21875 C 5.878906 -0.8125 5.554688 -0.492188 5.140625 -0.265625 C 4.734375 -0.046875 4.273438 0.0625 3.765625 0.0625 C 3.046875 0.0625 2.476562 -0.171875 2.0625 -0.640625 L 2.0625 1.9375 L 0.8125 1.9375 L 0.8125 -5.3125 L 2 -5.3125 L 2 -4.625 C 2.207031 -4.875 2.460938 -5.0625 2.765625 -5.1875 C 3.066406 -5.3125 3.398438 -5.375 3.765625 -5.375 Z M 3.625 -1 C 4.082031 -1 4.457031 -1.148438 4.75 -1.453125 C 5.050781 -1.753906 5.203125 -2.15625 5.203125 -2.65625 C 5.203125 -3.15625 5.050781 -3.554688 4.75 -3.859375 C 4.457031 -4.160156 4.082031 -4.3125 3.625 -4.3125 C 3.320312 -4.3125 3.050781 -4.242188 2.8125 -4.109375 C 2.570312 -3.972656 2.382812 -3.78125 2.25 -3.53125 C 2.113281 -3.28125 2.046875 -2.988281 2.046875 -2.65625 C 2.046875 -2.320312 2.113281 -2.03125 2.25 -1.78125 C 2.382812 -1.53125 2.570312 -1.335938 2.8125 -1.203125 C 3.050781 -1.066406 3.320312 -1 3.625 -1 Z M 3.625 -1 "/></g></g></g><g fill="#000000" fill-opacity="1"><g transform="translate(117.279447, 125.691651)"><g><path d="M 2 -4.53125 C 2.351562 -5.09375 2.984375 -5.375 3.890625 -5.375 L 3.890625 -4.1875 C 3.785156 -4.207031 3.691406 -4.21875 3.609375 -4.21875 C 3.117188 -4.21875 2.738281 -4.078125 2.46875 -3.796875 C 2.195312 -3.515625 2.0625 -3.109375 2.0625 -2.578125 L 2.0625 0 L 0.8125 0 L 0.8125 -5.3125 L 2 -5.3125 Z M 2 -4.53125 "/></g></g></g><g fill="#000000" fill-opacity="1"><g transform="translate(121.456371, 125.691651)"><g><path d="M 5.8125 -2.625 C 5.8125 -2.539062 5.804688 -2.421875 5.796875 -2.265625 L 1.625 -2.265625 C 1.695312 -1.867188 1.882812 -1.554688 2.1875 -1.328125 C 2.5 -1.097656 2.882812 -0.984375 3.34375 -0.984375 C 3.925781 -0.984375 4.40625 -1.175781 4.78125 -1.5625 L 5.453125 -0.796875 C 5.210938 -0.515625 4.910156 -0.300781 4.546875 -0.15625 C 4.179688 -0.0078125 3.769531 0.0625 3.3125 0.0625 C 2.726562 0.0625 2.210938 -0.0507812 1.765625 -0.28125 C 1.328125 -0.507812 0.984375 -0.832031 0.734375 -1.25 C 0.492188 -1.664062 0.375 -2.132812 0.375 -2.65625 C 0.375 -3.175781 0.488281 -3.640625 0.71875 -4.046875 C 0.957031 -4.460938 1.285156 -4.785156 1.703125 -5.015625 C 2.128906 -5.253906 2.601562 -5.375 3.125 -5.375 C 3.644531 -5.375 4.109375 -5.257812 4.515625 -5.03125 C 4.921875 -4.800781 5.238281 -4.476562 5.46875 -4.0625 C 5.695312 -3.644531 5.8125 -3.164062 5.8125 -2.625 Z M 3.125 -4.375 C 2.726562 -4.375 2.390625 -4.253906 2.109375 -4.015625 C 1.835938 -3.785156 1.671875 -3.472656 1.609375 -3.078125 L 4.625 -3.078125 C 4.570312 -3.460938 4.410156 -3.773438 4.140625 -4.015625 C 3.867188 -4.253906 3.53125 -4.375 3.125 -4.375 Z M 3.125 -4.375 "/></g></g></g><g fill="#000000" fill-opacity="1"><g transform="translate(127.642201, 125.691651)"><g><path d="M 3.25 0.0625 C 2.695312 0.0625 2.203125 -0.0507812 1.765625 -0.28125 C 1.328125 -0.507812 0.984375 -0.832031 0.734375 -1.25 C 0.492188 -1.664062 0.375 -2.132812 0.375 -2.65625 C 0.375 -3.175781 0.492188 -3.640625 0.734375 -4.046875 C 0.984375 -4.460938 1.328125 -4.785156 1.765625 -5.015625 C 2.203125 -5.253906 2.695312 -5.375 3.25 -5.375 C 3.78125 -5.375 4.238281 -5.265625 4.625 -5.046875 C 5.019531 -4.835938 5.320312 -4.535156 5.53125 -4.140625 L 4.5625 -3.578125 C 4.414062 -3.828125 4.226562 -4.007812 4 -4.125 C 3.769531 -4.25 3.519531 -4.3125 3.25 -4.3125 C 2.78125 -4.3125 2.390625 -4.160156 2.078125 -3.859375 C 1.773438 -3.554688 1.625 -3.15625 1.625 -2.65625 C 1.625 -2.15625 1.773438 -1.753906 2.078125 -1.453125 C 2.378906 -1.148438 2.769531 -1 3.25 -1 C 3.519531 -1 3.769531 -1.054688 4 -1.171875 C 4.226562 -1.296875 4.414062 -1.484375 4.5625 -1.734375 L 5.53125 -1.171875 C 5.320312 -0.773438 5.019531 -0.46875 4.625 -0.25 C 4.226562 -0.0390625 3.769531 0.0625 3.25 0.0625 Z M 3.25 0.0625 "/></g></g></g><g fill="#000000" fill-opacity="1"><g transform="translate(133.420275, 125.691651)"><g><path d="M 0.8125 -5.3125 L 2.0625 -5.3125 L 2.0625 0 L 0.8125 0 Z M 1.4375 -6.1875 C 1.207031 -6.1875 1.015625 -6.257812 0.859375 -6.40625 C 0.710938 -6.550781 0.640625 -6.726562 0.640625 -6.9375 C 0.640625 -7.144531 0.710938 -7.320312 0.859375 -7.46875 C 1.015625 -7.613281 1.207031 -7.6875 1.4375 -7.6875 C 1.664062 -7.6875 1.851562 -7.617188 2 -7.484375 C 2.15625 -7.347656 2.234375 -7.175781 2.234375 -6.96875 C 2.234375 -6.75 2.15625 -6.5625 2 -6.40625 C 1.851562 -6.257812 1.664062 -6.1875 1.4375 -6.1875 Z M 1.4375 -6.1875 "/></g></g></g><g fill="#000000" fill-opacity="1"><g transform="translate(136.294391, 125.691651)"><g><path d="M 2.453125 0.0625 C 2.023438 0.0625 1.601562 0.0078125 1.1875 -0.09375 C 0.78125 -0.207031 0.453125 -0.351562 0.203125 -0.53125 L 0.6875 -1.46875 C 0.925781 -1.3125 1.210938 -1.1875 1.546875 -1.09375 C 1.878906 -1 2.207031 -0.953125 2.53125 -0.953125 C 3.28125 -0.953125 3.65625 -1.144531 3.65625 -1.53125 C 3.65625 -1.71875 3.554688 -1.847656 3.359375 -1.921875 C 3.171875 -1.992188 2.867188 -2.0625 2.453125 -2.125 C 2.015625 -2.195312 1.65625 -2.273438 1.375 -2.359375 C 1.101562 -2.441406 0.867188 -2.59375 0.671875 -2.8125 C 0.472656 -3.03125 0.375 -3.332031 0.375 -3.71875 C 0.375 -4.21875 0.582031 -4.617188 1 -4.921875 C 1.414062 -5.222656 1.984375 -5.375 2.703125 -5.375 C 3.066406 -5.375 3.429688 -5.332031 3.796875 -5.25 C 4.160156 -5.164062 4.460938 -5.054688 4.703125 -4.921875 L 4.21875 -3.96875 C 3.769531 -4.238281 3.265625 -4.375 2.703125 -4.375 C 2.335938 -4.375 2.054688 -4.316406 1.859375 -4.203125 C 1.671875 -4.097656 1.578125 -3.953125 1.578125 -3.765625 C 1.578125 -3.566406 1.675781 -3.425781 1.875 -3.34375 C 2.082031 -3.257812 2.398438 -3.179688 2.828125 -3.109375 C 3.253906 -3.046875 3.601562 -2.96875 3.875 -2.875 C 4.144531 -2.789062 4.375 -2.644531 4.5625 -2.4375 C 4.757812 -2.238281 4.859375 -1.953125 4.859375 -1.578125 C 4.859375 -1.078125 4.644531 -0.675781 4.21875 -0.375 C 3.789062 -0.0820312 3.203125 0.0625 2.453125 0.0625 Z M 2.453125 0.0625 "/></g></g></g><g fill="#000000" fill-opacity="1"><g transform="translate(141.41609, 125.691651)"><g><path d="M 3.203125 0.0625 C 2.671875 0.0625 2.1875 -0.0507812 1.75 -0.28125 C 1.320312 -0.507812 0.984375 -0.832031 0.734375 -1.25 C 0.492188 -1.664062 0.375 -2.132812 0.375 -2.65625 C 0.375 -3.175781 0.492188 -3.640625 0.734375 -4.046875 C 0.984375 -4.460938 1.320312 -4.785156 1.75 -5.015625 C 2.1875 -5.253906 2.671875 -5.375 3.203125 -5.375 C 3.742188 -5.375 4.226562 -5.253906 4.65625 -5.015625 C 5.09375 -4.785156 5.429688 -4.460938 5.671875 -4.046875 C 5.921875 -3.640625 6.046875 -3.175781 6.046875 -2.65625 C 6.046875 -2.132812 5.921875 -1.664062 5.671875 -1.25 C 5.429688 -0.832031 5.09375 -0.507812 4.65625 -0.28125 C 4.226562 -0.0507812 3.742188 0.0625 3.203125 0.0625 Z M 3.203125 -1 C 3.660156 -1 4.035156 -1.148438 4.328125 -1.453125 C 4.628906 -1.753906 4.78125 -2.15625 4.78125 -2.65625 C 4.78125 -3.15625 4.628906 -3.554688 4.328125 -3.859375 C 4.035156 -4.160156 3.660156 -4.3125 3.203125 -4.3125 C 2.742188 -4.3125 2.363281 -4.160156 2.0625 -3.859375 C 1.769531 -3.554688 1.625 -3.15625 1.625 -2.65625 C 1.625 -2.15625 1.769531 -1.753906 2.0625 -1.453125 C 2.363281 -1.148438 2.742188 -1 3.203125 -1 Z M 3.203125 -1 "/></g></g></g><g fill="#000000" fill-opacity="1"><g transform="translate(147.830647, 125.691651)"><g><path d="M 1.21875 0.0625 C 0.988281 0.0625 0.789062 -0.0078125 0.625 -0.15625 C 0.46875 -0.3125 0.390625 -0.507812 0.390625 -0.75 C 0.390625 -1 0.46875 -1.195312 0.625 -1.34375 C 0.78125 -1.5 0.976562 -1.578125 1.21875 -1.578125 C 1.445312 -1.578125 1.640625 -1.5 1.796875 -1.34375 C 1.953125 -1.195312 2.03125 -1 2.03125 -0.75 C 2.03125 -0.507812 1.945312 -0.3125 1.78125 -0.15625 C 1.625 -0.0078125 1.4375 0.0625 1.21875 0.0625 Z M 1.21875 0.0625 "/></g></g></g><g fill="#000000" fill-opacity="1"><g transform="translate(18.670479, 139.122773)"><g><path d="M 5.453125 -1.609375 L 1.96875 -1.609375 L 1.28125 0 L -0.046875 0 L 3.078125 -6.96875 L 4.359375 -6.96875 L 7.5 0 L 6.15625 0 Z M 5.03125 -2.625 L 3.71875 -5.671875 L 2.40625 -2.625 Z M 5.03125 -2.625 "/></g></g></g><g fill="#000000" fill-opacity="1"><g transform="translate(26.119325, 139.122773)"><g><path d="M 3.828125 -5.375 C 4.503906 -5.375 5.039062 -5.175781 5.4375 -4.78125 C 5.84375 -4.394531 6.046875 -3.816406 6.046875 -3.046875 L 6.046875 0 L 4.8125 0 L 4.8125 -2.890625 C 4.8125 -3.347656 4.703125 -3.695312 4.484375 -3.9375 C 4.265625 -4.175781 3.953125 -4.296875 3.546875 -4.296875 C 3.085938 -4.296875 2.722656 -4.15625 2.453125 -3.875 C 2.191406 -3.601562 2.0625 -3.207031 2.0625 -2.6875 L 2.0625 0 L 0.8125 0 L 0.8125 -7.390625 L 2.0625 -7.390625 L 2.0625 -4.703125 C 2.269531 -4.921875 2.523438 -5.085938 2.828125 -5.203125 C 3.128906 -5.316406 3.460938 -5.375 3.828125 -5.375 Z M 3.828125 -5.375 "/></g></g></g><g fill="#000000" fill-opacity="1"><g transform="translate(32.931687, 139.122773)"><g><path d="M 3.203125 0.0625 C 2.671875 0.0625 2.1875 -0.0507812 1.75 -0.28125 C 1.320312 -0.507812 0.984375 -0.832031 0.734375 -1.25 C 0.492188 -1.664062 0.375 -2.132812 0.375 -2.65625 C 0.375 -3.175781 0.492188 -3.640625 0.734375 -4.046875 C 0.984375 -4.460938 1.320312 -4.785156 1.75 -5.015625 C 2.1875 -5.253906 2.671875 -5.375 3.203125 -5.375 C 3.742188 -5.375 4.226562 -5.253906 4.65625 -5.015625 C 5.09375 -4.785156 5.429688 -4.460938 5.671875 -4.046875 C 5.921875 -3.640625 6.046875 -3.175781 6.046875 -2.65625 C 6.046875 -2.132812 5.921875 -1.664062 5.671875 -1.25 C 5.429688 -0.832031 5.09375 -0.507812 4.65625 -0.28125 C 4.226562 -0.0507812 3.742188 0.0625 3.203125 0.0625 Z M 3.203125 -1 C 3.660156 -1 4.035156 -1.148438 4.328125 -1.453125 C 4.628906 -1.753906 4.78125 -2.15625 4.78125 -2.65625 C 4.78125 -3.15625 4.628906 -3.554688 4.328125 -3.859375 C 4.035156 -4.160156 3.660156 -4.3125 3.203125 -4.3125 C 2.742188 -4.3125 2.363281 -4.160156 2.0625 -3.859375 C 1.769531 -3.554688 1.625 -3.15625 1.625 -2.65625 C 1.625 -2.15625 1.769531 -1.753906 2.0625 -1.453125 C 2.363281 -1.148438 2.742188 -1 3.203125 -1 Z M 3.203125 -1 "/></g></g></g><g fill="#000000" fill-opacity="1"><g transform="translate(39.346244, 139.122773)"><g><path d="M 2 -4.53125 C 2.351562 -5.09375 2.984375 -5.375 3.890625 -5.375 L 3.890625 -4.1875 C 3.785156 -4.207031 3.691406 -4.21875 3.609375 -4.21875 C 3.117188 -4.21875 2.738281 -4.078125 2.46875 -3.796875 C 2.195312 -3.515625 2.0625 -3.109375 2.0625 -2.578125 L 2.0625 0 L 0.8125 0 L 0.8125 -5.3125 L 2 -5.3125 Z M 2 -4.53125 "/></g></g></g><g fill="#000000" fill-opacity="1"><g transform="translate(43.523169, 139.122773)"><g><path d="M 2 -4.53125 C 2.351562 -5.09375 2.984375 -5.375 3.890625 -5.375 L 3.890625 -4.1875 C 3.785156 -4.207031 3.691406 -4.21875 3.609375 -4.21875 C 3.117188 -4.21875 2.738281 -4.078125 2.46875 -3.796875 C 2.195312 -3.515625 2.0625 -3.109375 2.0625 -2.578125 L 2.0625 0 L 0.8125 0 L 0.8125 -5.3125 L 2 -5.3125 Z M 2 -4.53125 "/></g></g></g><g fill="#000000" fill-opacity="1"><g transform="translate(47.700094, 139.122773)"><g><path d="M 2.84375 -5.375 C 3.625 -5.375 4.222656 -5.1875 4.640625 -4.8125 C 5.054688 -4.4375 5.265625 -3.867188 5.265625 -3.109375 L 5.265625 0 L 4.09375 0 L 4.09375 -0.640625 C 3.9375 -0.410156 3.71875 -0.234375 3.4375 -0.109375 C 3.15625 0.00390625 2.816406 0.0625 2.421875 0.0625 C 2.023438 0.0625 1.675781 -0.00390625 1.375 -0.140625 C 1.070312 -0.273438 0.835938 -0.460938 0.671875 -0.703125 C 0.515625 -0.941406 0.4375 -1.210938 0.4375 -1.515625 C 0.4375 -1.992188 0.613281 -2.378906 0.96875 -2.671875 C 1.320312 -2.960938 1.878906 -3.109375 2.640625 -3.109375 L 4.015625 -3.109375 L 4.015625 -3.1875 C 4.015625 -3.5625 3.90625 -3.847656 3.6875 -4.046875 C 3.46875 -4.242188 3.140625 -4.34375 2.703125 -4.34375 C 2.398438 -4.34375 2.101562 -4.296875 1.8125 -4.203125 C 1.53125 -4.109375 1.285156 -3.976562 1.078125 -3.8125 L 0.59375 -4.71875 C 0.875 -4.925781 1.207031 -5.085938 1.59375 -5.203125 C 1.988281 -5.316406 2.40625 -5.375 2.84375 -5.375 Z M 2.671875 -0.84375 C 2.984375 -0.84375 3.257812 -0.910156 3.5 -1.046875 C 3.75 -1.191406 3.921875 -1.394531 4.015625 -1.65625 L 4.015625 -2.28125 L 2.734375 -2.28125 C 2.015625 -2.28125 1.65625 -2.046875 1.65625 -1.578125 C 1.65625 -1.347656 1.742188 -1.164062 1.921875 -1.03125 C 2.109375 -0.90625 2.359375 -0.84375 2.671875 -0.84375 Z M 2.671875 -0.84375 "/></g></g></g><g fill="#000000" fill-opacity="1"><g transform="translate(53.736748, 139.122773)"><g/></g></g><g fill="#000000" fill-opacity="1"><g transform="translate(56.481579, 139.122773)"><g><path d="M 4.015625 -0.28125 C 3.867188 -0.164062 3.691406 -0.078125 3.484375 -0.015625 C 3.273438 0.0351562 3.050781 0.0625 2.8125 0.0625 C 2.226562 0.0625 1.773438 -0.0859375 1.453125 -0.390625 C 1.140625 -0.691406 0.984375 -1.132812 0.984375 -1.71875 L 0.984375 -4.28125 L 0.109375 -4.28125 L 0.109375 -5.28125 L 0.984375 -5.28125 L 0.984375 -6.484375 L 2.234375 -6.484375 L 2.234375 -5.28125 L 3.65625 -5.28125 L 3.65625 -4.28125 L 2.234375 -4.28125 L 2.234375 -1.75 C 2.234375 -1.488281 2.296875 -1.289062 2.421875 -1.15625 C 2.546875 -1.019531 2.726562 -0.953125 2.96875 -0.953125 C 3.25 -0.953125 3.476562 -1.023438 3.65625 -1.171875 Z M 4.015625 -0.28125 "/></g></g></g><g fill="#000000" fill-opacity="1"><g transform="translate(60.698286, 139.122773)"><g><path d="M 0.8125 -5.3125 L 2.0625 -5.3125 L 2.0625 0 L 0.8125 0 Z M 1.4375 -6.1875 C 1.207031 -6.1875 1.015625 -6.257812 0.859375 -6.40625 C 0.710938 -6.550781 0.640625 -6.726562 0.640625 -6.9375 C 0.640625 -7.144531 0.710938 -7.320312 0.859375 -7.46875 C 1.015625 -7.613281 1.207031 -7.6875 1.4375 -7.6875 C 1.664062 -7.6875 1.851562 -7.617188 2 -7.484375 C 2.15625 -7.347656 2.234375 -7.175781 2.234375 -6.96875 C 2.234375 -6.75 2.15625 -6.5625 2 -6.40625 C 1.851562 -6.257812 1.664062 -6.1875 1.4375 -6.1875 Z M 1.4375 -6.1875 "/></g></g></g><g fill="#000000" fill-opacity="1"><g transform="translate(63.572402, 139.122773)"><g><path d="M 5.8125 -2.625 C 5.8125 -2.539062 5.804688 -2.421875 5.796875 -2.265625 L 1.625 -2.265625 C 1.695312 -1.867188 1.882812 -1.554688 2.1875 -1.328125 C 2.5 -1.097656 2.882812 -0.984375 3.34375 -0.984375 C 3.925781 -0.984375 4.40625 -1.175781 4.78125 -1.5625 L 5.453125 -0.796875 C 5.210938 -0.515625 4.910156 -0.300781 4.546875 -0.15625 C 4.179688 -0.0078125 3.769531 0.0625 3.3125 0.0625 C 2.726562 0.0625 2.210938 -0.0507812 1.765625 -0.28125 C 1.328125 -0.507812 0.984375 -0.832031 0.734375 -1.25 C 0.492188 -1.664062 0.375 -2.132812 0.375 -2.65625 C 0.375 -3.175781 0.488281 -3.640625 0.71875 -4.046875 C 0.957031 -4.460938 1.285156 -4.785156 1.703125 -5.015625 C 2.128906 -5.253906 2.601562 -5.375 3.125 -5.375 C 3.644531 -5.375 4.109375 -5.257812 4.515625 -5.03125 C 4.921875 -4.800781 5.238281 -4.476562 5.46875 -4.0625 C 5.695312 -3.644531 5.8125 -3.164062 5.8125 -2.625 Z M 3.125 -4.375 C 2.726562 -4.375 2.390625 -4.253906 2.109375 -4.015625 C 1.835938 -3.785156 1.671875 -3.472656 1.609375 -3.078125 L 4.625 -3.078125 C 4.570312 -3.460938 4.410156 -3.773438 4.140625 -4.015625 C 3.867188 -4.253906 3.53125 -4.375 3.125 -4.375 Z M 3.125 -4.375 "/></g></g></g><g fill="#000000" fill-opacity="1"><g transform="translate(69.758231, 139.122773)"><g><path d="M 7.53125 -5.375 C 8.195312 -5.375 8.722656 -5.175781 9.109375 -4.78125 C 9.503906 -4.394531 9.703125 -3.816406 9.703125 -3.046875 L 9.703125 0 L 8.453125 0 L 8.453125 -2.890625 C 8.453125 -3.347656 8.347656 -3.695312 8.140625 -3.9375 C 7.941406 -4.175781 7.648438 -4.296875 7.265625 -4.296875 C 6.847656 -4.296875 6.507812 -4.15625 6.25 -3.875 C 6 -3.601562 5.875 -3.210938 5.875 -2.703125 L 5.875 0 L 4.640625 0 L 4.640625 -2.890625 C 4.640625 -3.347656 4.535156 -3.695312 4.328125 -3.9375 C 4.117188 -4.175781 3.820312 -4.296875 3.4375 -4.296875 C 3.019531 -4.296875 2.6875 -4.15625 2.4375 -3.875 C 2.1875 -3.601562 2.0625 -3.210938 2.0625 -2.703125 L 2.0625 0 L 0.8125 0 L 0.8125 -5.3125 L 2 -5.3125 L 2 -4.640625 C 2.195312 -4.878906 2.441406 -5.0625 2.734375 -5.1875 C 3.035156 -5.3125 3.375 -5.375 3.75 -5.375 C 4.144531 -5.375 4.492188 -5.296875 4.796875 -5.140625 C 5.109375 -4.992188 5.351562 -4.773438 5.53125 -4.484375 C 5.75 -4.765625 6.03125 -4.984375 6.375 -5.140625 C 6.71875 -5.296875 7.101562 -5.375 7.53125 -5.375 Z M 7.53125 -5.375 "/></g></g></g><g fill="#000000" fill-opacity="1"><g transform="translate(80.23038, 139.122773)"><g><path d="M 3.765625 -5.375 C 4.273438 -5.375 4.734375 -5.257812 5.140625 -5.03125 C 5.554688 -4.8125 5.878906 -4.492188 6.109375 -4.078125 C 6.335938 -3.671875 6.453125 -3.195312 6.453125 -2.65625 C 6.453125 -2.113281 6.335938 -1.632812 6.109375 -1.21875 C 5.878906 -0.8125 5.554688 -0.492188 5.140625 -0.265625 C 4.734375 -0.046875 4.273438 0.0625 3.765625 0.0625 C 3.046875 0.0625 2.476562 -0.171875 2.0625 -0.640625 L 2.0625 1.9375 L 0.8125 1.9375 L 0.8125 -5.3125 L 2 -5.3125 L 2 -4.625 C 2.207031 -4.875 2.460938 -5.0625 2.765625 -5.1875 C 3.066406 -5.3125 3.398438 -5.375 3.765625 -5.375 Z M 3.625 -1 C 4.082031 -1 4.457031 -1.148438 4.75 -1.453125 C 5.050781 -1.753906 5.203125 -2.15625 5.203125 -2.65625 C 5.203125 -3.15625 5.050781 -3.554688 4.75 -3.859375 C 4.457031 -4.160156 4.082031 -4.3125 3.625 -4.3125 C 3.320312 -4.3125 3.050781 -4.242188 2.8125 -4.109375 C 2.570312 -3.972656 2.382812 -3.78125 2.25 -3.53125 C 2.113281 -3.28125 2.046875 -2.988281 2.046875 -2.65625 C 2.046875 -2.320312 2.113281 -2.03125 2.25 -1.78125 C 2.382812 -1.53125 2.570312 -1.335938 2.8125 -1.203125 C 3.050781 -1.066406 3.320312 -1 3.625 -1 Z M 3.625 -1 "/></g></g></g><g fill="#000000" fill-opacity="1"><g transform="translate(87.052693, 139.122773)"><g><path d="M 3.203125 0.0625 C 2.671875 0.0625 2.1875 -0.0507812 1.75 -0.28125 C 1.320312 -0.507812 0.984375 -0.832031 0.734375 -1.25 C 0.492188 -1.664062 0.375 -2.132812 0.375 -2.65625 C 0.375 -3.175781 0.492188 -3.640625 0.734375 -4.046875 C 0.984375 -4.460938 1.320312 -4.785156 1.75 -5.015625 C 2.1875 -5.253906 2.671875 -5.375 3.203125 -5.375 C 3.742188 -5.375 4.226562 -5.253906 4.65625 -5.015625 C 5.09375 -4.785156 5.429688 -4.460938 5.671875 -4.046875 C 5.921875 -3.640625 6.046875 -3.175781 6.046875 -2.65625 C 6.046875 -2.132812 5.921875 -1.664062 5.671875 -1.25 C 5.429688 -0.832031 5.09375 -0.507812 4.65625 -0.28125 C 4.226562 -0.0507812 3.742188 0.0625 3.203125 0.0625 Z M 3.203125 -1 C 3.660156 -1 4.035156 -1.148438 4.328125 -1.453125 C 4.628906 -1.753906 4.78125 -2.15625 4.78125 -2.65625 C 4.78125 -3.15625 4.628906 -3.554688 4.328125 -3.859375 C 4.035156 -4.160156 3.660156 -4.3125 3.203125 -4.3125 C 2.742188 -4.3125 2.363281 -4.160156 2.0625 -3.859375 C 1.769531 -3.554688 1.625 -3.15625 1.625 -2.65625 C 1.625 -2.15625 1.769531 -1.753906 2.0625 -1.453125 C 2.363281 -1.148438 2.742188 -1 3.203125 -1 Z M 3.203125 -1 "/></g></g></g><g fill="#000000" fill-opacity="1"><g transform="translate(93.46725, 139.122773)"><g/></g></g><g fill="#000000" fill-opacity="1"><g transform="translate(96.212081, 139.122773)"><g><path d="M 5.796875 -5.3125 L 3.296875 0.421875 C 3.066406 1.003906 2.785156 1.410156 2.453125 1.640625 C 2.117188 1.878906 1.71875 2 1.25 2 C 0.988281 2 0.726562 1.953125 0.46875 1.859375 C 0.207031 1.773438 -0.00390625 1.660156 -0.171875 1.515625 L 0.328125 0.59375 C 0.441406 0.707031 0.582031 0.796875 0.75 0.859375 C 0.914062 0.929688 1.082031 0.96875 1.25 0.96875 C 1.46875 0.96875 1.644531 0.910156 1.78125 0.796875 C 1.925781 0.679688 2.0625 0.492188 2.1875 0.234375 L 2.265625 0.015625 L -0.046875 -5.3125 L 1.25 -5.3125 L 2.921875 -1.390625 L 4.59375 -5.3125 Z M 5.796875 -5.3125 "/></g></g></g><g fill="#000000" fill-opacity="1"><g transform="translate(101.960324, 139.122773)"><g/></g></g><g fill="#000000" fill-opacity="1"><g transform="translate(104.705156, 139.122773)"><g><path d="M 7.53125 -5.375 C 8.195312 -5.375 8.722656 -5.175781 9.109375 -4.78125 C 9.503906 -4.394531 9.703125 -3.816406 9.703125 -3.046875 L 9.703125 0 L 8.453125 0 L 8.453125 -2.890625 C 8.453125 -3.347656 8.347656 -3.695312 8.140625 -3.9375 C 7.941406 -4.175781 7.648438 -4.296875 7.265625 -4.296875 C 6.847656 -4.296875 6.507812 -4.15625 6.25 -3.875 C 6 -3.601562 5.875 -3.210938 5.875 -2.703125 L 5.875 0 L 4.640625 0 L 4.640625 -2.890625 C 4.640625 -3.347656 4.535156 -3.695312 4.328125 -3.9375 C 4.117188 -4.175781 3.820312 -4.296875 3.4375 -4.296875 C 3.019531 -4.296875 2.6875 -4.15625 2.4375 -3.875 C 2.1875 -3.601562 2.0625 -3.210938 2.0625 -2.703125 L 2.0625 0 L 0.8125 0 L 0.8125 -5.3125 L 2 -5.3125 L 2 -4.640625 C 2.195312 -4.878906 2.441406 -5.0625 2.734375 -5.1875 C 3.035156 -5.3125 3.375 -5.375 3.75 -5.375 C 4.144531 -5.375 4.492188 -5.296875 4.796875 -5.140625 C 5.109375 -4.992188 5.351562 -4.773438 5.53125 -4.484375 C 5.75 -4.765625 6.03125 -4.984375 6.375 -5.140625 C 6.71875 -5.296875 7.101562 -5.375 7.53125 -5.375 Z M 7.53125 -5.375 "/></g></g></g><g fill="#000000" fill-opacity="1"><g transform="translate(115.177304, 139.122773)"><g><path d="M 2.84375 -5.375 C 3.625 -5.375 4.222656 -5.1875 4.640625 -4.8125 C 5.054688 -4.4375 5.265625 -3.867188 5.265625 -3.109375 L 5.265625 0 L 4.09375 0 L 4.09375 -0.640625 C 3.9375 -0.410156 3.71875 -0.234375 3.4375 -0.109375 C 3.15625 0.00390625 2.816406 0.0625 2.421875 0.0625 C 2.023438 0.0625 1.675781 -0.00390625 1.375 -0.140625 C 1.070312 -0.273438 0.835938 -0.460938 0.671875 -0.703125 C 0.515625 -0.941406 0.4375 -1.210938 0.4375 -1.515625 C 0.4375 -1.992188 0.613281 -2.378906 0.96875 -2.671875 C 1.320312 -2.960938 1.878906 -3.109375 2.640625 -3.109375 L 4.015625 -3.109375 L 4.015625 -3.1875 C 4.015625 -3.5625 3.90625 -3.847656 3.6875 -4.046875 C 3.46875 -4.242188 3.140625 -4.34375 2.703125 -4.34375 C 2.398438 -4.34375 2.101562 -4.296875 1.8125 -4.203125 C 1.53125 -4.109375 1.285156 -3.976562 1.078125 -3.8125 L 0.59375 -4.71875 C 0.875 -4.925781 1.207031 -5.085938 1.59375 -5.203125 C 1.988281 -5.316406 2.40625 -5.375 2.84375 -5.375 Z M 2.671875 -0.84375 C 2.984375 -0.84375 3.257812 -0.910156 3.5 -1.046875 C 3.75 -1.191406 3.921875 -1.394531 4.015625 -1.65625 L 4.015625 -2.28125 L 2.734375 -2.28125 C 2.015625 -2.28125 1.65625 -2.046875 1.65625 -1.578125 C 1.65625 -1.347656 1.742188 -1.164062 1.921875 -1.03125 C 2.109375 -0.90625 2.359375 -0.84375 2.671875 -0.84375 Z M 2.671875 -0.84375 "/></g></g></g><g fill="#000000" fill-opacity="1"><g transform="translate(121.213958, 139.122773)"><g><path d="M 4.015625 -0.28125 C 3.867188 -0.164062 3.691406 -0.078125 3.484375 -0.015625 C 3.273438 0.0351562 3.050781 0.0625 2.8125 0.0625 C 2.226562 0.0625 1.773438 -0.0859375 1.453125 -0.390625 C 1.140625 -0.691406 0.984375 -1.132812 0.984375 -1.71875 L 0.984375 -4.28125 L 0.109375 -4.28125 L 0.109375 -5.28125 L 0.984375 -5.28125 L 0.984375 -6.484375 L 2.234375 -6.484375 L 2.234375 -5.28125 L 3.65625 -5.28125 L 3.65625 -4.28125 L 2.234375 -4.28125 L 2.234375 -1.75 C 2.234375 -1.488281 2.296875 -1.289062 2.421875 -1.15625 C 2.546875 -1.019531 2.726562 -0.953125 2.96875 -0.953125 C 3.25 -0.953125 3.476562 -1.023438 3.65625 -1.171875 Z M 4.015625 -0.28125 "/></g></g></g><g fill="#000000" fill-opacity="1"><g transform="translate(125.430665, 139.122773)"><g><path d="M 5.8125 -2.625 C 5.8125 -2.539062 5.804688 -2.421875 5.796875 -2.265625 L 1.625 -2.265625 C 1.695312 -1.867188 1.882812 -1.554688 2.1875 -1.328125 C 2.5 -1.097656 2.882812 -0.984375 3.34375 -0.984375 C 3.925781 -0.984375 4.40625 -1.175781 4.78125 -1.5625 L 5.453125 -0.796875 C 5.210938 -0.515625 4.910156 -0.300781 4.546875 -0.15625 C 4.179688 -0.0078125 3.769531 0.0625 3.3125 0.0625 C 2.726562 0.0625 2.210938 -0.0507812 1.765625 -0.28125 C 1.328125 -0.507812 0.984375 -0.832031 0.734375 -1.25 C 0.492188 -1.664062 0.375 -2.132812 0.375 -2.65625 C 0.375 -3.175781 0.488281 -3.640625 0.71875 -4.046875 C 0.957031 -4.460938 1.285156 -4.785156 1.703125 -5.015625 C 2.128906 -5.253906 2.601562 -5.375 3.125 -5.375 C 3.644531 -5.375 4.109375 -5.257812 4.515625 -5.03125 C 4.921875 -4.800781 5.238281 -4.476562 5.46875 -4.0625 C 5.695312 -3.644531 5.8125 -3.164062 5.8125 -2.625 Z M 3.125 -4.375 C 2.726562 -4.375 2.390625 -4.253906 2.109375 -4.015625 C 1.835938 -3.785156 1.671875 -3.472656 1.609375 -3.078125 L 4.625 -3.078125 C 4.570312 -3.460938 4.410156 -3.773438 4.140625 -4.015625 C 3.867188 -4.253906 3.53125 -4.375 3.125 -4.375 Z M 3.125 -4.375 "/></g></g></g><g fill="#000000" fill-opacity="1"><g transform="translate(131.616495, 139.122773)"><g><path d="M 2 -4.53125 C 2.351562 -5.09375 2.984375 -5.375 3.890625 -5.375 L 3.890625 -4.1875 C 3.785156 -4.207031 3.691406 -4.21875 3.609375 -4.21875 C 3.117188 -4.21875 2.738281 -4.078125 2.46875 -3.796875 C 2.195312 -3.515625 2.0625 -3.109375 2.0625 -2.578125 L 2.0625 0 L 0.8125 0 L 0.8125 -5.3125 L 2 -5.3125 Z M 2 -4.53125 "/></g></g></g><g fill="#000000" fill-opacity="1"><g transform="translate(135.79342, 139.122773)"><g><path d="M 0.8125 -5.3125 L 2.0625 -5.3125 L 2.0625 0 L 0.8125 0 Z M 1.4375 -6.1875 C 1.207031 -6.1875 1.015625 -6.257812 0.859375 -6.40625 C 0.710938 -6.550781 0.640625 -6.726562 0.640625 -6.9375 C 0.640625 -7.144531 0.710938 -7.320312 0.859375 -7.46875 C 1.015625 -7.613281 1.207031 -7.6875 1.4375 -7.6875 C 1.664062 -7.6875 1.851562 -7.617188 2 -7.484375 C 2.15625 -7.347656 2.234375 -7.175781 2.234375 -6.96875 C 2.234375 -6.75 2.15625 -6.5625 2 -6.40625 C 1.851562 -6.257812 1.664062 -6.1875 1.4375 -6.1875 Z M 1.4375 -6.1875 "/></g></g></g><g fill="#000000" fill-opacity="1"><g transform="translate(138.667535, 139.122773)"><g><path d="M 2.84375 -5.375 C 3.625 -5.375 4.222656 -5.1875 4.640625 -4.8125 C 5.054688 -4.4375 5.265625 -3.867188 5.265625 -3.109375 L 5.265625 0 L 4.09375 0 L 4.09375 -0.640625 C 3.9375 -0.410156 3.71875 -0.234375 3.4375 -0.109375 C 3.15625 0.00390625 2.816406 0.0625 2.421875 0.0625 C 2.023438 0.0625 1.675781 -0.00390625 1.375 -0.140625 C 1.070312 -0.273438 0.835938 -0.460938 0.671875 -0.703125 C 0.515625 -0.941406 0.4375 -1.210938 0.4375 -1.515625 C 0.4375 -1.992188 0.613281 -2.378906 0.96875 -2.671875 C 1.320312 -2.960938 1.878906 -3.109375 2.640625 -3.109375 L 4.015625 -3.109375 L 4.015625 -3.1875 C 4.015625 -3.5625 3.90625 -3.847656 3.6875 -4.046875 C 3.46875 -4.242188 3.140625 -4.34375 2.703125 -4.34375 C 2.398438 -4.34375 2.101562 -4.296875 1.8125 -4.203125 C 1.53125 -4.109375 1.285156 -3.976562 1.078125 -3.8125 L 0.59375 -4.71875 C 0.875 -4.925781 1.207031 -5.085938 1.59375 -5.203125 C 1.988281 -5.316406 2.40625 -5.375 2.84375 -5.375 Z M 2.671875 -0.84375 C 2.984375 -0.84375 3.257812 -0.910156 3.5 -1.046875 C 3.75 -1.191406 3.921875 -1.394531 4.015625 -1.65625 L 4.015625 -2.28125 L 2.734375 -2.28125 C 2.015625 -2.28125 1.65625 -2.046875 1.65625 -1.578125 C 1.65625 -1.347656 1.742188 -1.164062 1.921875 -1.03125 C 2.109375 -0.90625 2.359375 -0.84375 2.671875 -0.84375 Z M 2.671875 -0.84375 "/></g></g></g><g fill="#000000" fill-opacity="1"><g transform="translate(144.70419, 139.122773)"><g><path d="M 0.8125 -7.390625 L 2.0625 -7.390625 L 2.0625 0 L 0.8125 0 Z M 0.8125 -7.390625 "/></g></g></g><g fill="#000000" fill-opacity="1"><g transform="translate(147.578305, 139.122773)"><g><path d="M 5.8125 -2.625 C 5.8125 -2.539062 5.804688 -2.421875 5.796875 -2.265625 L 1.625 -2.265625 C 1.695312 -1.867188 1.882812 -1.554688 2.1875 -1.328125 C 2.5 -1.097656 2.882812 -0.984375 3.34375 -0.984375 C 3.925781 -0.984375 4.40625 -1.175781 4.78125 -1.5625 L 5.453125 -0.796875 C 5.210938 -0.515625 4.910156 -0.300781 4.546875 -0.15625 C 4.179688 -0.0078125 3.769531 0.0625 3.3125 0.0625 C 2.726562 0.0625 2.210938 -0.0507812 1.765625 -0.28125 C 1.328125 -0.507812 0.984375 -0.832031 0.734375 -1.25 C 0.492188 -1.664062 0.375 -2.132812 0.375 -2.65625 C 0.375 -3.175781 0.488281 -3.640625 0.71875 -4.046875 C 0.957031 -4.460938 1.285156 -4.785156 1.703125 -5.015625 C 2.128906 -5.253906 2.601562 -5.375 3.125 -5.375 C 3.644531 -5.375 4.109375 -5.257812 4.515625 -5.03125 C 4.921875 -4.800781 5.238281 -4.476562 5.46875 -4.0625 C 5.695312 -3.644531 5.8125 -3.164062 5.8125 -2.625 Z M 3.125 -4.375 C 2.726562 -4.375 2.390625 -4.253906 2.109375 -4.015625 C 1.835938 -3.785156 1.671875 -3.472656 1.609375 -3.078125 L 4.625 -3.078125 C 4.570312 -3.460938 4.410156 -3.773438 4.140625 -4.015625 C 3.867188 -4.253906 3.53125 -4.375 3.125 -4.375 Z M 3.125 -4.375 "/></g></g></g><g fill="#000000" fill-opacity="1"><g transform="translate(153.764135, 139.122773)"><g><path d="M 2.453125 0.0625 C 2.023438 0.0625 1.601562 0.0078125 1.1875 -0.09375 C 0.78125 -0.207031 0.453125 -0.351562 0.203125 -0.53125 L 0.6875 -1.46875 C 0.925781 -1.3125 1.210938 -1.1875 1.546875 -1.09375 C 1.878906 -1 2.207031 -0.953125 2.53125 -0.953125 C 3.28125 -0.953125 3.65625 -1.144531 3.65625 -1.53125 C 3.65625 -1.71875 3.554688 -1.847656 3.359375 -1.921875 C 3.171875 -1.992188 2.867188 -2.0625 2.453125 -2.125 C 2.015625 -2.195312 1.65625 -2.273438 1.375 -2.359375 C 1.101562 -2.441406 0.867188 -2.59375 0.671875 -2.8125 C 0.472656 -3.03125 0.375 -3.332031 0.375 -3.71875 C 0.375 -4.21875 0.582031 -4.617188 1 -4.921875 C 1.414062 -5.222656 1.984375 -5.375 2.703125 -5.375 C 3.066406 -5.375 3.429688 -5.332031 3.796875 -5.25 C 4.160156 -5.164062 4.460938 -5.054688 4.703125 -4.921875 L 4.21875 -3.96875 C 3.769531 -4.238281 3.265625 -4.375 2.703125 -4.375 C 2.335938 -4.375 2.054688 -4.316406 1.859375 -4.203125 C 1.671875 -4.097656 1.578125 -3.953125 1.578125 -3.765625 C 1.578125 -3.566406 1.675781 -3.425781 1.875 -3.34375 C 2.082031 -3.257812 2.398438 -3.179688 2.828125 -3.109375 C 3.253906 -3.046875 3.601562 -2.96875 3.875 -2.875 C 4.144531 -2.789062 4.375 -2.644531 4.5625 -2.4375 C 4.757812 -2.238281 4.859375 -1.953125 4.859375 -1.578125 C 4.859375 -1.078125 4.644531 -0.675781 4.21875 -0.375 C 3.789062 -0.0820312 3.203125 0.0625 2.453125 0.0625 Z M 2.453125 0.0625 "/></g></g></g><g fill="#000000" fill-opacity="1"><g transform="translate(158.885834, 139.122773)"><g><path d="M 1.21875 0.0625 C 0.988281 0.0625 0.789062 -0.0078125 0.625 -0.15625 C 0.46875 -0.3125 0.390625 -0.507812 0.390625 -0.75 C 0.390625 -1 0.46875 -1.195312 0.625 -1.34375 C 0.78125 -1.5 0.976562 -1.578125 1.21875 -1.578125 C 1.445312 -1.578125 1.640625 -1.5 1.796875 -1.34375 C 1.953125 -1.195312 2.03125 -1 2.03125 -0.75 C 2.03125 -0.507812 1.945312 -0.3125 1.78125 -0.15625 C 1.625 -0.0078125 1.4375 0.0625 1.21875 0.0625 Z M 1.21875 0.0625 "/></g></g></g><g fill="#000000" fill-opacity="1"><g transform="translate(44.984752, 152.553895)"><g><path d="M 1.390625 -5.375 C 1.617188 -5.375 1.804688 -5.296875 1.953125 -5.140625 C 2.109375 -4.992188 2.1875 -4.8125 2.1875 -4.59375 C 2.1875 -4.382812 2.109375 -4.207031 1.953125 -4.0625 C 1.804688 -3.914062 1.617188 -3.84375 1.390625 -3.84375 C 1.160156 -3.84375 0.96875 -3.914062 0.8125 -4.0625 C 0.664062 -4.207031 0.59375 -4.382812 0.59375 -4.59375 C 0.59375 -4.8125 0.664062 -4.992188 0.8125 -5.140625 C 0.96875 -5.296875 1.160156 -5.375 1.390625 -5.375 Z M 2.125 1.53125 L 0.65625 1.53125 L 0.890625 -3 L 1.875 -3 Z M 2.125 1.53125 "/></g></g></g><g fill="#000000" fill-opacity="1"><g transform="translate(47.749474, 152.553895)"><g><path d="M 0.9375 -6.96875 L 2.234375 -6.96875 L 2.234375 -1.09375 L 5.875 -1.09375 L 5.875 0 L 0.9375 0 Z M 0.9375 -6.96875 "/></g></g></g><g fill="#000000" fill-opacity="1"><g transform="translate(53.706565, 152.553895)"><g><path d="M 0.8125 -5.3125 L 2.0625 -5.3125 L 2.0625 0 L 0.8125 0 Z M 1.4375 -6.1875 C 1.207031 -6.1875 1.015625 -6.257812 0.859375 -6.40625 C 0.710938 -6.550781 0.640625 -6.726562 0.640625 -6.9375 C 0.640625 -7.144531 0.710938 -7.320312 0.859375 -7.46875 C 1.015625 -7.613281 1.207031 -7.6875 1.4375 -7.6875 C 1.664062 -7.6875 1.851562 -7.617188 2 -7.484375 C 2.15625 -7.347656 2.234375 -7.175781 2.234375 -6.96875 C 2.234375 -6.75 2.15625 -6.5625 2 -6.40625 C 1.851562 -6.257812 1.664062 -6.1875 1.4375 -6.1875 Z M 1.4375 -6.1875 "/></g></g></g><g fill="#000000" fill-opacity="1"><g transform="translate(56.58068, 152.553895)"><g><path d="M 2.453125 0.0625 C 2.023438 0.0625 1.601562 0.0078125 1.1875 -0.09375 C 0.78125 -0.207031 0.453125 -0.351562 0.203125 -0.53125 L 0.6875 -1.46875 C 0.925781 -1.3125 1.210938 -1.1875 1.546875 -1.09375 C 1.878906 -1 2.207031 -0.953125 2.53125 -0.953125 C 3.28125 -0.953125 3.65625 -1.144531 3.65625 -1.53125 C 3.65625 -1.71875 3.554688 -1.847656 3.359375 -1.921875 C 3.171875 -1.992188 2.867188 -2.0625 2.453125 -2.125 C 2.015625 -2.195312 1.65625 -2.273438 1.375 -2.359375 C 1.101562 -2.441406 0.867188 -2.59375 0.671875 -2.8125 C 0.472656 -3.03125 0.375 -3.332031 0.375 -3.71875 C 0.375 -4.21875 0.582031 -4.617188 1 -4.921875 C 1.414062 -5.222656 1.984375 -5.375 2.703125 -5.375 C 3.066406 -5.375 3.429688 -5.332031 3.796875 -5.25 C 4.160156 -5.164062 4.460938 -5.054688 4.703125 -4.921875 L 4.21875 -3.96875 C 3.769531 -4.238281 3.265625 -4.375 2.703125 -4.375 C 2.335938 -4.375 2.054688 -4.316406 1.859375 -4.203125 C 1.671875 -4.097656 1.578125 -3.953125 1.578125 -3.765625 C 1.578125 -3.566406 1.675781 -3.425781 1.875 -3.34375 C 2.082031 -3.257812 2.398438 -3.179688 2.828125 -3.109375 C 3.253906 -3.046875 3.601562 -2.96875 3.875 -2.875 C 4.144531 -2.789062 4.375 -2.644531 4.5625 -2.4375 C 4.757812 -2.238281 4.859375 -1.953125 4.859375 -1.578125 C 4.859375 -1.078125 4.644531 -0.675781 4.21875 -0.375 C 3.789062 -0.0820312 3.203125 0.0625 2.453125 0.0625 Z M 2.453125 0.0625 "/></g></g></g><g fill="#000000" fill-opacity="1"><g transform="translate(61.702379, 152.553895)"><g><path d="M 4.015625 -0.28125 C 3.867188 -0.164062 3.691406 -0.078125 3.484375 -0.015625 C 3.273438 0.0351562 3.050781 0.0625 2.8125 0.0625 C 2.226562 0.0625 1.773438 -0.0859375 1.453125 -0.390625 C 1.140625 -0.691406 0.984375 -1.132812 0.984375 -1.71875 L 0.984375 -4.28125 L 0.109375 -4.28125 L 0.109375 -5.28125 L 0.984375 -5.28125 L 0.984375 -6.484375 L 2.234375 -6.484375 L 2.234375 -5.28125 L 3.65625 -5.28125 L 3.65625 -4.28125 L 2.234375 -4.28125 L 2.234375 -1.75 C 2.234375 -1.488281 2.296875 -1.289062 2.421875 -1.15625 C 2.546875 -1.019531 2.726562 -0.953125 2.96875 -0.953125 C 3.25 -0.953125 3.476562 -1.023438 3.65625 -1.171875 Z M 4.015625 -0.28125 "/></g></g></g><g fill="#000000" fill-opacity="1"><g transform="translate(65.919086, 152.553895)"><g><path d="M 3.203125 0.0625 C 2.671875 0.0625 2.1875 -0.0507812 1.75 -0.28125 C 1.320312 -0.507812 0.984375 -0.832031 0.734375 -1.25 C 0.492188 -1.664062 0.375 -2.132812 0.375 -2.65625 C 0.375 -3.175781 0.492188 -3.640625 0.734375 -4.046875 C 0.984375 -4.460938 1.320312 -4.785156 1.75 -5.015625 C 2.1875 -5.253906 2.671875 -5.375 3.203125 -5.375 C 3.742188 -5.375 4.226562 -5.253906 4.65625 -5.015625 C 5.09375 -4.785156 5.429688 -4.460938 5.671875 -4.046875 C 5.921875 -3.640625 6.046875 -3.175781 6.046875 -2.65625 C 6.046875 -2.132812 5.921875 -1.664062 5.671875 -1.25 C 5.429688 -0.832031 5.09375 -0.507812 4.65625 -0.28125 C 4.226562 -0.0507812 3.742188 0.0625 3.203125 0.0625 Z M 3.203125 -1 C 3.660156 -1 4.035156 -1.148438 4.328125 -1.453125 C 4.628906 -1.753906 4.78125 -2.15625 4.78125 -2.65625 C 4.78125 -3.15625 4.628906 -3.554688 4.328125 -3.859375 C 4.035156 -4.160156 3.660156 -4.3125 3.203125 -4.3125 C 2.742188 -4.3125 2.363281 -4.160156 2.0625 -3.859375 C 1.769531 -3.554688 1.625 -3.15625 1.625 -2.65625 C 1.625 -2.15625 1.769531 -1.753906 2.0625 -1.453125 C 2.363281 -1.148438 2.742188 -1 3.203125 -1 Z M 3.203125 -1 "/></g></g></g><g fill="#000000" fill-opacity="1"><g transform="translate(72.333643, 152.553895)"><g><path d="M 2.453125 0.0625 C 2.023438 0.0625 1.601562 0.0078125 1.1875 -0.09375 C 0.78125 -0.207031 0.453125 -0.351562 0.203125 -0.53125 L 0.6875 -1.46875 C 0.925781 -1.3125 1.210938 -1.1875 1.546875 -1.09375 C 1.878906 -1 2.207031 -0.953125 2.53125 -0.953125 C 3.28125 -0.953125 3.65625 -1.144531 3.65625 -1.53125 C 3.65625 -1.71875 3.554688 -1.847656 3.359375 -1.921875 C 3.171875 -1.992188 2.867188 -2.0625 2.453125 -2.125 C 2.015625 -2.195312 1.65625 -2.273438 1.375 -2.359375 C 1.101562 -2.441406 0.867188 -2.59375 0.671875 -2.8125 C 0.472656 -3.03125 0.375 -3.332031 0.375 -3.71875 C 0.375 -4.21875 0.582031 -4.617188 1 -4.921875 C 1.414062 -5.222656 1.984375 -5.375 2.703125 -5.375 C 3.066406 -5.375 3.429688 -5.332031 3.796875 -5.25 C 4.160156 -5.164062 4.460938 -5.054688 4.703125 -4.921875 L 4.21875 -3.96875 C 3.769531 -4.238281 3.265625 -4.375 2.703125 -4.375 C 2.335938 -4.375 2.054688 -4.316406 1.859375 -4.203125 C 1.671875 -4.097656 1.578125 -3.953125 1.578125 -3.765625 C 1.578125 -3.566406 1.675781 -3.425781 1.875 -3.34375 C 2.082031 -3.257812 2.398438 -3.179688 2.828125 -3.109375 C 3.253906 -3.046875 3.601562 -2.96875 3.875 -2.875 C 4.144531 -2.789062 4.375 -2.644531 4.5625 -2.4375 C 4.757812 -2.238281 4.859375 -1.953125 4.859375 -1.578125 C 4.859375 -1.078125 4.644531 -0.675781 4.21875 -0.375 C 3.789062 -0.0820312 3.203125 0.0625 2.453125 0.0625 Z M 2.453125 0.0625 "/></g></g></g><g fill="#000000" fill-opacity="1"><g transform="translate(77.455342, 152.553895)"><g/></g></g><g fill="#000000" fill-opacity="1"><g transform="translate(80.200173, 152.553895)"><g><path d="M 3.765625 -5.375 C 4.273438 -5.375 4.734375 -5.257812 5.140625 -5.03125 C 5.554688 -4.8125 5.878906 -4.492188 6.109375 -4.078125 C 6.335938 -3.671875 6.453125 -3.195312 6.453125 -2.65625 C 6.453125 -2.113281 6.335938 -1.632812 6.109375 -1.21875 C 5.878906 -0.8125 5.554688 -0.492188 5.140625 -0.265625 C 4.734375 -0.046875 4.273438 0.0625 3.765625 0.0625 C 3.046875 0.0625 2.476562 -0.171875 2.0625 -0.640625 L 2.0625 1.9375 L 0.8125 1.9375 L 0.8125 -5.3125 L 2 -5.3125 L 2 -4.625 C 2.207031 -4.875 2.460938 -5.0625 2.765625 -5.1875 C 3.066406 -5.3125 3.398438 -5.375 3.765625 -5.375 Z M 3.625 -1 C 4.082031 -1 4.457031 -1.148438 4.75 -1.453125 C 5.050781 -1.753906 5.203125 -2.15625 5.203125 -2.65625 C 5.203125 -3.15625 5.050781 -3.554688 4.75 -3.859375 C 4.457031 -4.160156 4.082031 -4.3125 3.625 -4.3125 C 3.320312 -4.3125 3.050781 -4.242188 2.8125 -4.109375 C 2.570312 -3.972656 2.382812 -3.78125 2.25 -3.53125 C 2.113281 -3.28125 2.046875 -2.988281 2.046875 -2.65625 C 2.046875 -2.320312 2.113281 -2.03125 2.25 -1.78125 C 2.382812 -1.53125 2.570312 -1.335938 2.8125 -1.203125 C 3.050781 -1.066406 3.320312 -1 3.625 -1 Z M 3.625 -1 "/></g></g></g><g fill="#000000" fill-opacity="1"><g transform="translate(87.022487, 152.553895)"><g><path d="M 2.84375 -5.375 C 3.625 -5.375 4.222656 -5.1875 4.640625 -4.8125 C 5.054688 -4.4375 5.265625 -3.867188 5.265625 -3.109375 L 5.265625 0 L 4.09375 0 L 4.09375 -0.640625 C 3.9375 -0.410156 3.71875 -0.234375 3.4375 -0.109375 C 3.15625 0.00390625 2.816406 0.0625 2.421875 0.0625 C 2.023438 0.0625 1.675781 -0.00390625 1.375 -0.140625 C 1.070312 -0.273438 0.835938 -0.460938 0.671875 -0.703125 C 0.515625 -0.941406 0.4375 -1.210938 0.4375 -1.515625 C 0.4375 -1.992188 0.613281 -2.378906 0.96875 -2.671875 C 1.320312 -2.960938 1.878906 -3.109375 2.640625 -3.109375 L 4.015625 -3.109375 L 4.015625 -3.1875 C 4.015625 -3.5625 3.90625 -3.847656 3.6875 -4.046875 C 3.46875 -4.242188 3.140625 -4.34375 2.703125 -4.34375 C 2.398438 -4.34375 2.101562 -4.296875 1.8125 -4.203125 C 1.53125 -4.109375 1.285156 -3.976562 1.078125 -3.8125 L 0.59375 -4.71875 C 0.875 -4.925781 1.207031 -5.085938 1.59375 -5.203125 C 1.988281 -5.316406 2.40625 -5.375 2.84375 -5.375 Z M 2.671875 -0.84375 C 2.984375 -0.84375 3.257812 -0.910156 3.5 -1.046875 C 3.75 -1.191406 3.921875 -1.394531 4.015625 -1.65625 L 4.015625 -2.28125 L 2.734375 -2.28125 C 2.015625 -2.28125 1.65625 -2.046875 1.65625 -1.578125 C 1.65625 -1.347656 1.742188 -1.164062 1.921875 -1.03125 C 2.109375 -0.90625 2.359375 -0.84375 2.671875 -0.84375 Z M 2.671875 -0.84375 "/></g></g></g><g fill="#000000" fill-opacity="1"><g transform="translate(93.059141, 152.553895)"><g><path d="M 2 -4.53125 C 2.351562 -5.09375 2.984375 -5.375 3.890625 -5.375 L 3.890625 -4.1875 C 3.785156 -4.207031 3.691406 -4.21875 3.609375 -4.21875 C 3.117188 -4.21875 2.738281 -4.078125 2.46875 -3.796875 C 2.195312 -3.515625 2.0625 -3.109375 2.0625 -2.578125 L 2.0625 0 L 0.8125 0 L 0.8125 -5.3125 L 2 -5.3125 Z M 2 -4.53125 "/></g></g></g><g fill="#000000" fill-opacity="1"><g transform="translate(97.236066, 152.553895)"><g><path d="M 2.84375 -5.375 C 3.625 -5.375 4.222656 -5.1875 4.640625 -4.8125 C 5.054688 -4.4375 5.265625 -3.867188 5.265625 -3.109375 L 5.265625 0 L 4.09375 0 L 4.09375 -0.640625 C 3.9375 -0.410156 3.71875 -0.234375 3.4375 -0.109375 C 3.15625 0.00390625 2.816406 0.0625 2.421875 0.0625 C 2.023438 0.0625 1.675781 -0.00390625 1.375 -0.140625 C 1.070312 -0.273438 0.835938 -0.460938 0.671875 -0.703125 C 0.515625 -0.941406 0.4375 -1.210938 0.4375 -1.515625 C 0.4375 -1.992188 0.613281 -2.378906 0.96875 -2.671875 C 1.320312 -2.960938 1.878906 -3.109375 2.640625 -3.109375 L 4.015625 -3.109375 L 4.015625 -3.1875 C 4.015625 -3.5625 3.90625 -3.847656 3.6875 -4.046875 C 3.46875 -4.242188 3.140625 -4.34375 2.703125 -4.34375 C 2.398438 -4.34375 2.101562 -4.296875 1.8125 -4.203125 C 1.53125 -4.109375 1.285156 -3.976562 1.078125 -3.8125 L 0.59375 -4.71875 C 0.875 -4.925781 1.207031 -5.085938 1.59375 -5.203125 C 1.988281 -5.316406 2.40625 -5.375 2.84375 -5.375 Z M 2.671875 -0.84375 C 2.984375 -0.84375 3.257812 -0.910156 3.5 -1.046875 C 3.75 -1.191406 3.921875 -1.394531 4.015625 -1.65625 L 4.015625 -2.28125 L 2.734375 -2.28125 C 2.015625 -2.28125 1.65625 -2.046875 1.65625 -1.578125 C 1.65625 -1.347656 1.742188 -1.164062 1.921875 -1.03125 C 2.109375 -0.90625 2.359375 -0.84375 2.671875 -0.84375 Z M 2.671875 -0.84375 "/></g></g></g><g fill="#000000" fill-opacity="1"><g transform="translate(103.27272, 152.553895)"><g/></g></g><g fill="#000000" fill-opacity="1"><g transform="translate(106.017551, 152.553895)"><g><path d="M 5.96875 -5.3125 L 5.96875 0 L 4.78125 0 L 4.78125 -0.671875 C 4.582031 -0.429688 4.332031 -0.25 4.03125 -0.125 C 3.726562 0 3.40625 0.0625 3.0625 0.0625 C 2.351562 0.0625 1.796875 -0.128906 1.390625 -0.515625 C 0.984375 -0.910156 0.78125 -1.5 0.78125 -2.28125 L 0.78125 -5.3125 L 2.015625 -5.3125 L 2.015625 -2.453125 C 2.015625 -1.972656 2.125 -1.613281 2.34375 -1.375 C 2.5625 -1.144531 2.867188 -1.03125 3.265625 -1.03125 C 3.710938 -1.03125 4.066406 -1.164062 4.328125 -1.4375 C 4.585938 -1.707031 4.71875 -2.101562 4.71875 -2.625 L 4.71875 -5.3125 Z M 5.96875 -5.3125 "/></g></g></g><g fill="#000000" fill-opacity="1"><g transform="translate(112.790132, 152.553895)"><g><path d="M 2.453125 0.0625 C 2.023438 0.0625 1.601562 0.0078125 1.1875 -0.09375 C 0.78125 -0.207031 0.453125 -0.351562 0.203125 -0.53125 L 0.6875 -1.46875 C 0.925781 -1.3125 1.210938 -1.1875 1.546875 -1.09375 C 1.878906 -1 2.207031 -0.953125 2.53125 -0.953125 C 3.28125 -0.953125 3.65625 -1.144531 3.65625 -1.53125 C 3.65625 -1.71875 3.554688 -1.847656 3.359375 -1.921875 C 3.171875 -1.992188 2.867188 -2.0625 2.453125 -2.125 C 2.015625 -2.195312 1.65625 -2.273438 1.375 -2.359375 C 1.101562 -2.441406 0.867188 -2.59375 0.671875 -2.8125 C 0.472656 -3.03125 0.375 -3.332031 0.375 -3.71875 C 0.375 -4.21875 0.582031 -4.617188 1 -4.921875 C 1.414062 -5.222656 1.984375 -5.375 2.703125 -5.375 C 3.066406 -5.375 3.429688 -5.332031 3.796875 -5.25 C 4.160156 -5.164062 4.460938 -5.054688 4.703125 -4.921875 L 4.21875 -3.96875 C 3.769531 -4.238281 3.265625 -4.375 2.703125 -4.375 C 2.335938 -4.375 2.054688 -4.316406 1.859375 -4.203125 C 1.671875 -4.097656 1.578125 -3.953125 1.578125 -3.765625 C 1.578125 -3.566406 1.675781 -3.425781 1.875 -3.34375 C 2.082031 -3.257812 2.398438 -3.179688 2.828125 -3.109375 C 3.253906 -3.046875 3.601562 -2.96875 3.875 -2.875 C 4.144531 -2.789062 4.375 -2.644531 4.5625 -2.4375 C 4.757812 -2.238281 4.859375 -1.953125 4.859375 -1.578125 C 4.859375 -1.078125 4.644531 -0.675781 4.21875 -0.375 C 3.789062 -0.0820312 3.203125 0.0625 2.453125 0.0625 Z M 2.453125 0.0625 "/></g></g></g><g fill="#000000" fill-opacity="1"><g transform="translate(117.911831, 152.553895)"><g><path d="M 2.84375 -5.375 C 3.625 -5.375 4.222656 -5.1875 4.640625 -4.8125 C 5.054688 -4.4375 5.265625 -3.867188 5.265625 -3.109375 L 5.265625 0 L 4.09375 0 L 4.09375 -0.640625 C 3.9375 -0.410156 3.71875 -0.234375 3.4375 -0.109375 C 3.15625 0.00390625 2.816406 0.0625 2.421875 0.0625 C 2.023438 0.0625 1.675781 -0.00390625 1.375 -0.140625 C 1.070312 -0.273438 0.835938 -0.460938 0.671875 -0.703125 C 0.515625 -0.941406 0.4375 -1.210938 0.4375 -1.515625 C 0.4375 -1.992188 0.613281 -2.378906 0.96875 -2.671875 C 1.320312 -2.960938 1.878906 -3.109375 2.640625 -3.109375 L 4.015625 -3.109375 L 4.015625 -3.1875 C 4.015625 -3.5625 3.90625 -3.847656 3.6875 -4.046875 C 3.46875 -4.242188 3.140625 -4.34375 2.703125 -4.34375 C 2.398438 -4.34375 2.101562 -4.296875 1.8125 -4.203125 C 1.53125 -4.109375 1.285156 -3.976562 1.078125 -3.8125 L 0.59375 -4.71875 C 0.875 -4.925781 1.207031 -5.085938 1.59375 -5.203125 C 1.988281 -5.316406 2.40625 -5.375 2.84375 -5.375 Z M 2.671875 -0.84375 C 2.984375 -0.84375 3.257812 -0.910156 3.5 -1.046875 C 3.75 -1.191406 3.921875 -1.394531 4.015625 -1.65625 L 4.015625 -2.28125 L 2.734375 -2.28125 C 2.015625 -2.28125 1.65625 -2.046875 1.65625 -1.578125 C 1.65625 -1.347656 1.742188 -1.164062 1.921875 -1.03125 C 2.109375 -0.90625 2.359375 -0.84375 2.671875 -0.84375 Z M 2.671875 -0.84375 "/></g></g></g><g fill="#000000" fill-opacity="1"><g transform="translate(123.948485, 152.553895)"><g><path d="M 2 -4.53125 C 2.351562 -5.09375 2.984375 -5.375 3.890625 -5.375 L 3.890625 -4.1875 C 3.785156 -4.207031 3.691406 -4.21875 3.609375 -4.21875 C 3.117188 -4.21875 2.738281 -4.078125 2.46875 -3.796875 C 2.195312 -3.515625 2.0625 -3.109375 2.0625 -2.578125 L 2.0625 0 L 0.8125 0 L 0.8125 -5.3125 L 2 -5.3125 Z M 2 -4.53125 "/></g></g></g><g fill="#000000" fill-opacity="1"><g transform="translate(128.12541, 152.553895)"><g><path d="M 0.65625 -6.96875 L 2.125 -6.96875 L 1.875 -2.3125 L 0.890625 -2.3125 Z M 1.390625 0.0625 C 1.160156 0.0625 0.96875 -0.0078125 0.8125 -0.15625 C 0.664062 -0.300781 0.59375 -0.484375 0.59375 -0.703125 C 0.59375 -0.921875 0.664062 -1.101562 0.8125 -1.25 C 0.96875 -1.394531 1.160156 -1.46875 1.390625 -1.46875 C 1.617188 -1.46875 1.804688 -1.394531 1.953125 -1.25 C 2.109375 -1.101562 2.1875 -0.921875 2.1875 -0.703125 C 2.1875 -0.484375 2.109375 -0.300781 1.953125 -0.15625 C 1.804688 -0.0078125 1.617188 0.0625 1.390625 0.0625 Z M 1.390625 0.0625 "/></g></g></g><g fill="#000000" fill-opacity="1"><g transform="translate(130.890132, 152.553895)"><g><path d="M 0.5625 -6.96875 L 1.625 -6.96875 L 1.546875 -4.203125 L 0.640625 -4.203125 Z M 2.484375 -6.96875 L 3.546875 -6.96875 L 3.46875 -4.203125 L 2.5625 -4.203125 Z M 2.484375 -6.96875 "/></g></g></g></svg>