<svg xmlns="http://www.w3.org/2000/svg" xmlns:xlink="http://www.w3.org/1999/xlink" width="240" zoomAndPan="magnify" viewBox="0 0 180 195.000001" height="260" preserveAspectRatio="xMidYMid meet" version="1.0"><defs><g/><clipPath id="1449d9e7c2"><path d="M 0.460938 0 L 179.539062 0 L 179.539062 194.003906 L 0.460938 194.003906 Z M 0.460938 0 " clip-rule="nonzero"/></clipPath><clipPath id="48a108dbcc"><path d="M 55.59375 25 L 124.242188 25 L 124.242188 97.003906 L 55.59375 97.003906 Z M 55.59375 25 " clip-rule="nonzero"/></clipPath><clipPath id="69797cf5e5"><path d="M 64.210938 17.910156 L 115.625 17.910156 L 115.625 54.839844 L 64.210938 54.839844 Z M 64.210938 17.910156 " clip-rule="nonzero"/></clipPath></defs><g clip-path="url(#1449d9e7c2)"><path fill="#ffffff" d="M 0.460938 0 L 179.539062 0 L 179.539062 194.003906 L 0.460938 194.003906 Z M 0.460938 0 " fill-opacity="1" fill-rule="nonzero"/><path fill="#ffffff" d="M 0.460938 0 L 179.539062 0 L 179.539062 194.003906 L 0.460938 194.003906 Z M 0.460938 0 " fill-opacity="1" fill-rule="nonzero"/></g><g clip-path="url(#48a108dbcc)"><path fill="#000000" d="M 124.015625 90.648438 C 123.273438 76.511719 110.601562 70.664062 110.601562 70.664062 C 107.570312 69.242188 102.082031 66.464844 98.480469 64.628906 C 103.09375 59.570312 104.457031 51.324219 104.667969 50.152344 C 105.628906 44.84375 105.144531 38.269531 105.144531 38.269531 C 104.265625 25.492188 91.394531 25.292969 90.046875 25.304688 C 89.972656 25.304688 89.925781 25.304688 89.925781 25.304688 C 89.925781 25.304688 89.882812 25.304688 89.820312 25.304688 C 88.601562 25.289062 75.585938 25.421875 74.703125 38.269531 C 74.703125 38.269531 74.21875 44.839844 75.179688 50.152344 C 75.242188 50.492188 75.40625 51.445312 75.714844 52.734375 C 78.140625 55.925781 81.882812 57.488281 84.953125 58.253906 C 85.339844 57.878906 85.867188 57.644531 86.449219 57.644531 L 92.050781 57.644531 C 93.234375 57.644531 94.195312 58.609375 94.195312 59.796875 C 94.195312 60.984375 93.234375 61.945312 92.050781 61.945312 L 86.449219 61.945312 C 85.566406 61.945312 84.8125 61.410156 84.480469 60.648438 C 82.191406 60.089844 79.539062 59.117188 77.171875 57.445312 C 78.117188 59.902344 79.460938 62.539062 81.367188 64.628906 C 77.769531 66.464844 72.28125 69.242188 69.25 70.664062 C 69.25 70.664062 56.578125 76.511719 55.832031 90.648438 C 55.832031 90.648438 55.613281 92.996094 60.058594 93.886719 C 60.058594 93.886719 73.671875 97.003906 89.925781 97.003906 C 106.179688 97.003906 119.796875 93.886719 119.796875 93.886719 C 124.238281 92.996094 124.015625 90.648438 124.015625 90.648438 Z M 124.015625 90.648438 " fill-opacity="1" fill-rule="nonzero"/></g><g clip-path="url(#69797cf5e5)"><path fill="#000000" d="M 70.347656 54.734375 L 71.699219 54.734375 L 71.699219 38.808594 C 71.703125 38.769531 71.710938 38.730469 71.710938 38.691406 L 71.710938 36.339844 C 71.710938 32.148438 73.003906 28.75 75.550781 26.238281 C 80.816406 21.046875 89.8125 21.117188 89.964844 21.136719 C 90.070312 21.128906 98.992188 21 104.28125 26.191406 C 106.84375 28.707031 108.144531 32.121094 108.144531 36.339844 L 108.144531 38.824219 C 108.144531 38.851562 108.152344 38.871094 108.152344 38.898438 L 108.152344 54.734375 L 109.503906 54.734375 C 112.832031 54.734375 115.53125 52.03125 115.53125 48.695312 L 115.53125 42.886719 C 115.53125 40.203125 113.78125 37.933594 111.363281 37.144531 L 111.363281 36.339844 C 111.363281 31.21875 109.738281 27.03125 106.535156 23.882812 C 100.285156 17.753906 90.304688 17.914062 89.957031 17.910156 C 89.539062 17.90625 79.550781 17.78125 73.304688 23.921875 C 70.109375 27.066406 68.492188 31.242188 68.492188 36.339844 L 68.492188 37.140625 C 66.070312 37.929688 64.320312 40.203125 64.320312 42.886719 L 64.320312 48.691406 C 64.320312 52.03125 67.019531 54.734375 70.347656 54.734375 Z M 70.347656 54.734375 " fill-opacity="1" fill-rule="nonzero"/></g><g fill="#000000" fill-opacity="1"><g transform="translate(44.005399, 127.225817)"><g><path d="M 0.5625 -6.96875 L 1.625 -6.96875 L 1.546875 -4.203125 L 0.640625 -4.203125 Z M 2.484375 -6.96875 L 3.546875 -6.96875 L 3.46875 -4.203125 L 2.5625 -4.203125 Z M 2.484375 -6.96875 "/></g></g></g><g fill="#000000" fill-opacity="1"><g transform="translate(48.112712, 127.225817)"><g><path d="M 5.453125 -1.609375 L 1.96875 -1.609375 L 1.28125 0 L -0.046875 0 L 3.078125 -6.96875 L 4.359375 -6.96875 L 7.5 0 L 6.15625 0 Z M 5.03125 -2.625 L 3.71875 -5.671875 L 2.40625 -2.625 Z M 5.03125 -2.625 "/></g></g></g><g fill="#000000" fill-opacity="1"><g transform="translate(55.561557, 127.225817)"><g><path d="M 2.453125 0.0625 C 2.023438 0.0625 1.601562 0.0078125 1.1875 -0.09375 C 0.78125 -0.207031 0.453125 -0.351562 0.203125 -0.53125 L 0.6875 -1.46875 C 0.925781 -1.3125 1.210938 -1.1875 1.546875 -1.09375 C 1.878906 -1 2.207031 -0.953125 2.53125 -0.953125 C 3.28125 -0.953125 3.65625 -1.144531 3.65625 -1.53125 C 3.65625 -1.71875 3.554688 -1.847656 3.359375 -1.921875 C 3.171875 -1.992188 2.867188 -2.0625 2.453125 -2.125 C 2.015625 -2.195312 1.65625 -2.273438 1.375 -2.359375 C 1.101562 -2.441406 0.867188 -2.59375 0.671875 -2.8125 C 0.472656 -3.03125 0.375 -3.332031 0.375 -3.71875 C 0.375 -4.21875 0.582031 -4.617188 1 -4.921875 C 1.414062 -5.222656 1.984375 -5.375 2.703125 -5.375 C 3.066406 -5.375 3.429688 -5.332031 3.796875 -5.25 C 4.160156 -5.164062 4.460938 -5.054688 4.703125 -4.921875 L 4.21875 -3.96875 C 3.769531 -4.238281 3.265625 -4.375 2.703125 -4.375 C 2.335938 -4.375 2.054688 -4.316406 1.859375 -4.203125 C 1.671875 -4.097656 1.578125 -3.953125 1.578125 -3.765625 C 1.578125 -3.566406 1.675781 -3.425781 1.875 -3.34375 C 2.082031 -3.257812 2.398438 -3.179688 2.828125 -3.109375 C 3.253906 -3.046875 3.601562 -2.96875 3.875 -2.875 C 4.144531 -2.789062 4.375 -2.644531 4.5625 -2.4375 C 4.757812 -2.238281 4.859375 -1.953125 4.859375 -1.578125 C 4.859375 -1.078125 4.644531 -0.675781 4.21875 -0.375 C 3.789062 -0.0820312 3.203125 0.0625 2.453125 0.0625 Z M 2.453125 0.0625 "/></g></g></g><g fill="#000000" fill-opacity="1"><g transform="translate(60.683257, 127.225817)"><g><path d="M 5.8125 -2.625 C 5.8125 -2.539062 5.804688 -2.421875 5.796875 -2.265625 L 1.625 -2.265625 C 1.695312 -1.867188 1.882812 -1.554688 2.1875 -1.328125 C 2.5 -1.097656 2.882812 -0.984375 3.34375 -0.984375 C 3.925781 -0.984375 4.40625 -1.175781 4.78125 -1.5625 L 5.453125 -0.796875 C 5.210938 -0.515625 4.910156 -0.300781 4.546875 -0.15625 C 4.179688 -0.0078125 3.769531 0.0625 3.3125 0.0625 C 2.726562 0.0625 2.210938 -0.0507812 1.765625 -0.28125 C 1.328125 -0.507812 0.984375 -0.832031 0.734375 -1.25 C 0.492188 -1.664062 0.375 -2.132812 0.375 -2.65625 C 0.375 -3.175781 0.488281 -3.640625 0.71875 -4.046875 C 0.957031 -4.460938 1.285156 -4.785156 1.703125 -5.015625 C 2.128906 -5.253906 2.601562 -5.375 3.125 -5.375 C 3.644531 -5.375 4.109375 -5.257812 4.515625 -5.03125 C 4.921875 -4.800781 5.238281 -4.476562 5.46875 -4.0625 C 5.695312 -3.644531 5.8125 -3.164062 5.8125 -2.625 Z M 3.125 -4.375 C 2.726562 -4.375 2.390625 -4.253906 2.109375 -4.015625 C 1.835938 -3.785156 1.671875 -3.472656 1.609375 -3.078125 L 4.625 -3.078125 C 4.570312 -3.460938 4.410156 -3.773438 4.140625 -4.015625 C 3.867188 -4.253906 3.53125 -4.375 3.125 -4.375 Z M 3.125 -4.375 "/></g></g></g><g fill="#000000" fill-opacity="1"><g transform="translate(66.869086, 127.225817)"><g><path d="M 2.453125 0.0625 C 2.023438 0.0625 1.601562 0.0078125 1.1875 -0.09375 C 0.78125 -0.207031 0.453125 -0.351562 0.203125 -0.53125 L 0.6875 -1.46875 C 0.925781 -1.3125 1.210938 -1.1875 1.546875 -1.09375 C 1.878906 -1 2.207031 -0.953125 2.53125 -0.953125 C 3.28125 -0.953125 3.65625 -1.144531 3.65625 -1.53125 C 3.65625 -1.71875 3.554688 -1.847656 3.359375 -1.921875 C 3.171875 -1.992188 2.867188 -2.0625 2.453125 -2.125 C 2.015625 -2.195312 1.65625 -2.273438 1.375 -2.359375 C 1.101562 -2.441406 0.867188 -2.59375 0.671875 -2.8125 C 0.472656 -3.03125 0.375 -3.332031 0.375 -3.71875 C 0.375 -4.21875 0.582031 -4.617188 1 -4.921875 C 1.414062 -5.222656 1.984375 -5.375 2.703125 -5.375 C 3.066406 -5.375 3.429688 -5.332031 3.796875 -5.25 C 4.160156 -5.164062 4.460938 -5.054688 4.703125 -4.921875 L 4.21875 -3.96875 C 3.769531 -4.238281 3.265625 -4.375 2.703125 -4.375 C 2.335938 -4.375 2.054688 -4.316406 1.859375 -4.203125 C 1.671875 -4.097656 1.578125 -3.953125 1.578125 -3.765625 C 1.578125 -3.566406 1.675781 -3.425781 1.875 -3.34375 C 2.082031 -3.257812 2.398438 -3.179688 2.828125 -3.109375 C 3.253906 -3.046875 3.601562 -2.96875 3.875 -2.875 C 4.144531 -2.789062 4.375 -2.644531 4.5625 -2.4375 C 4.757812 -2.238281 4.859375 -1.953125 4.859375 -1.578125 C 4.859375 -1.078125 4.644531 -0.675781 4.21875 -0.375 C 3.789062 -0.0820312 3.203125 0.0625 2.453125 0.0625 Z M 2.453125 0.0625 "/></g></g></g><g fill="#000000" fill-opacity="1"><g transform="translate(71.990786, 127.225817)"><g><path d="M 3.203125 0.0625 C 2.671875 0.0625 2.1875 -0.0507812 1.75 -0.28125 C 1.320312 -0.507812 0.984375 -0.832031 0.734375 -1.25 C 0.492188 -1.664062 0.375 -2.132812 0.375 -2.65625 C 0.375 -3.175781 0.492188 -3.640625 0.734375 -4.046875 C 0.984375 -4.460938 1.320312 -4.785156 1.75 -5.015625 C 2.1875 -5.253906 2.671875 -5.375 3.203125 -5.375 C 3.742188 -5.375 4.226562 -5.253906 4.65625 -5.015625 C 5.09375 -4.785156 5.429688 -4.460938 5.671875 -4.046875 C 5.921875 -3.640625 6.046875 -3.175781 6.046875 -2.65625 C 6.046875 -2.132812 5.921875 -1.664062 5.671875 -1.25 C 5.429688 -0.832031 5.09375 -0.507812 4.65625 -0.28125 C 4.226562 -0.0507812 3.742188 0.0625 3.203125 0.0625 Z M 3.203125 -1 C 3.660156 -1 4.035156 -1.148438 4.328125 -1.453125 C 4.628906 -1.753906 4.78125 -2.15625 4.78125 -2.65625 C 4.78125 -3.15625 4.628906 -3.554688 4.328125 -3.859375 C 4.035156 -4.160156 3.660156 -4.3125 3.203125 -4.3125 C 2.742188 -4.3125 2.363281 -4.160156 2.0625 -3.859375 C 1.769531 -3.554688 1.625 -3.15625 1.625 -2.65625 C 1.625 -2.15625 1.769531 -1.753906 2.0625 -1.453125 C 2.363281 -1.148438 2.742188 -1 3.203125 -1 Z M 3.203125 -1 "/></g></g></g><g fill="#000000" fill-opacity="1"><g transform="translate(78.405343, 127.225817)"><g><path d="M 2 -4.53125 C 2.351562 -5.09375 2.984375 -5.375 3.890625 -5.375 L 3.890625 -4.1875 C 3.785156 -4.207031 3.691406 -4.21875 3.609375 -4.21875 C 3.117188 -4.21875 2.738281 -4.078125 2.46875 -3.796875 C 2.195312 -3.515625 2.0625 -3.109375 2.0625 -2.578125 L 2.0625 0 L 0.8125 0 L 0.8125 -5.3125 L 2 -5.3125 Z M 2 -4.53125 "/></g></g></g><g fill="#000000" fill-opacity="1"><g transform="translate(82.582268, 127.225817)"><g><path d="M 0.8125 -5.3125 L 2.0625 -5.3125 L 2.0625 0 L 0.8125 0 Z M 1.9375 -7.40625 L 3.40625 -7.40625 L 1.671875 -6.046875 L 0.59375 -6.046875 Z M 1.9375 -7.40625 "/></g></g></g><g fill="#000000" fill-opacity="1"><g transform="translate(85.456383, 127.225817)"><g><path d="M 2.84375 -5.375 C 3.625 -5.375 4.222656 -5.1875 4.640625 -4.8125 C 5.054688 -4.4375 5.265625 -3.867188 5.265625 -3.109375 L 5.265625 0 L 4.09375 0 L 4.09375 -0.640625 C 3.9375 -0.410156 3.71875 -0.234375 3.4375 -0.109375 C 3.15625 0.00390625 2.816406 0.0625 2.421875 0.0625 C 2.023438 0.0625 1.675781 -0.00390625 1.375 -0.140625 C 1.070312 -0.273438 0.835938 -0.460938 0.671875 -0.703125 C 0.515625 -0.941406 0.4375 -1.210938 0.4375 -1.515625 C 0.4375 -1.992188 0.613281 -2.378906 0.96875 -2.671875 C 1.320312 -2.960938 1.878906 -3.109375 2.640625 -3.109375 L 4.015625 -3.109375 L 4.015625 -3.1875 C 4.015625 -3.5625 3.90625 -3.847656 3.6875 -4.046875 C 3.46875 -4.242188 3.140625 -4.34375 2.703125 -4.34375 C 2.398438 -4.34375 2.101562 -4.296875 1.8125 -4.203125 C 1.53125 -4.109375 1.285156 -3.976562 1.078125 -3.8125 L 0.59375 -4.71875 C 0.875 -4.925781 1.207031 -5.085938 1.59375 -5.203125 C 1.988281 -5.316406 2.40625 -5.375 2.84375 -5.375 Z M 2.671875 -0.84375 C 2.984375 -0.84375 3.257812 -0.910156 3.5 -1.046875 C 3.75 -1.191406 3.921875 -1.394531 4.015625 -1.65625 L 4.015625 -2.28125 L 2.734375 -2.28125 C 2.015625 -2.28125 1.65625 -2.046875 1.65625 -1.578125 C 1.65625 -1.347656 1.742188 -1.164062 1.921875 -1.03125 C 2.109375 -0.90625 2.359375 -0.84375 2.671875 -0.84375 Z M 2.671875 -0.84375 "/></g></g></g><g fill="#000000" fill-opacity="1"><g transform="translate(91.493038, 127.225817)"><g/></g></g><g fill="#000000" fill-opacity="1"><g transform="translate(94.237869, 127.225817)"><g><path d="M 5.8125 -2.625 C 5.8125 -2.539062 5.804688 -2.421875 5.796875 -2.265625 L 1.625 -2.265625 C 1.695312 -1.867188 1.882812 -1.554688 2.1875 -1.328125 C 2.5 -1.097656 2.882812 -0.984375 3.34375 -0.984375 C 3.925781 -0.984375 4.40625 -1.175781 4.78125 -1.5625 L 5.453125 -0.796875 C 5.210938 -0.515625 4.910156 -0.300781 4.546875 -0.15625 C 4.179688 -0.0078125 3.769531 0.0625 3.3125 0.0625 C 2.726562 0.0625 2.210938 -0.0507812 1.765625 -0.28125 C 1.328125 -0.507812 0.984375 -0.832031 0.734375 -1.25 C 0.492188 -1.664062 0.375 -2.132812 0.375 -2.65625 C 0.375 -3.175781 0.488281 -3.640625 0.71875 -4.046875 C 0.957031 -4.460938 1.285156 -4.785156 1.703125 -5.015625 C 2.128906 -5.253906 2.601562 -5.375 3.125 -5.375 C 3.644531 -5.375 4.109375 -5.257812 4.515625 -5.03125 C 4.921875 -4.800781 5.238281 -4.476562 5.46875 -4.0625 C 5.695312 -3.644531 5.8125 -3.164062 5.8125 -2.625 Z M 3.125 -4.375 C 2.726562 -4.375 2.390625 -4.253906 2.109375 -4.015625 C 1.835938 -3.785156 1.671875 -3.472656 1.609375 -3.078125 L 4.625 -3.078125 C 4.570312 -3.460938 4.410156 -3.773438 4.140625 -4.015625 C 3.867188 -4.253906 3.53125 -4.375 3.125 -4.375 Z M 3.125 -4.375 "/></g></g></g><g fill="#000000" fill-opacity="1"><g transform="translate(100.423699, 127.225817)"><g><path d="M 4.203125 0 L 2.84375 -1.84375 L 1.46875 0 L 0.09375 0 L 2.15625 -2.703125 L 0.171875 -5.3125 L 1.5625 -5.3125 L 2.859375 -3.578125 L 4.171875 -5.3125 L 5.515625 -5.3125 L 3.515625 -2.71875 L 5.609375 0 Z M 4.203125 0 "/></g></g></g><g fill="#000000" fill-opacity="1"><g transform="translate(106.12222, 127.225817)"><g><path d="M 3.765625 -5.375 C 4.273438 -5.375 4.734375 -5.257812 5.140625 -5.03125 C 5.554688 -4.8125 5.878906 -4.492188 6.109375 -4.078125 C 6.335938 -3.671875 6.453125 -3.195312 6.453125 -2.65625 C 6.453125 -2.113281 6.335938 -1.632812 6.109375 -1.21875 C 5.878906 -0.8125 5.554688 -0.492188 5.140625 -0.265625 C 4.734375 -0.046875 4.273438 0.0625 3.765625 0.0625 C 3.046875 0.0625 2.476562 -0.171875 2.0625 -0.640625 L 2.0625 1.9375 L 0.8125 1.9375 L 0.8125 -5.3125 L 2 -5.3125 L 2 -4.625 C 2.207031 -4.875 2.460938 -5.0625 2.765625 -5.1875 C 3.066406 -5.3125 3.398438 -5.375 3.765625 -5.375 Z M 3.625 -1 C 4.082031 -1 4.457031 -1.148438 4.75 -1.453125 C 5.050781 -1.753906 5.203125 -2.15625 5.203125 -2.65625 C 5.203125 -3.15625 5.050781 -3.554688 4.75 -3.859375 C 4.457031 -4.160156 4.082031 -4.3125 3.625 -4.3125 C 3.320312 -4.3125 3.050781 -4.242188 2.8125 -4.109375 C 2.570312 -3.972656 2.382812 -3.78125 2.25 -3.53125 C 2.113281 -3.28125 2.046875 -2.988281 2.046875 -2.65625 C 2.046875 -2.320312 2.113281 -2.03125 2.25 -1.78125 C 2.382812 -1.53125 2.570312 -1.335938 2.8125 -1.203125 C 3.050781 -1.066406 3.320312 -1 3.625 -1 Z M 3.625 -1 "/></g></g></g><g fill="#000000" fill-opacity="1"><g transform="translate(112.944534, 127.225817)"><g><path d="M 5.8125 -2.625 C 5.8125 -2.539062 5.804688 -2.421875 5.796875 -2.265625 L 1.625 -2.265625 C 1.695312 -1.867188 1.882812 -1.554688 2.1875 -1.328125 C 2.5 -1.097656 2.882812 -0.984375 3.34375 -0.984375 C 3.925781 -0.984375 4.40625 -1.175781 4.78125 -1.5625 L 5.453125 -0.796875 C 5.210938 -0.515625 4.910156 -0.300781 4.546875 -0.15625 C 4.179688 -0.0078125 3.769531 0.0625 3.3125 0.0625 C 2.726562 0.0625 2.210938 -0.0507812 1.765625 -0.28125 C 1.328125 -0.507812 0.984375 -0.832031 0.734375 -1.25 C 0.492188 -1.664062 0.375 -2.132812 0.375 -2.65625 C 0.375 -3.175781 0.488281 -3.640625 0.71875 -4.046875 C 0.957031 -4.460938 1.285156 -4.785156 1.703125 -5.015625 C 2.128906 -5.253906 2.601562 -5.375 3.125 -5.375 C 3.644531 -5.375 4.109375 -5.257812 4.515625 -5.03125 C 4.921875 -4.800781 5.238281 -4.476562 5.46875 -4.0625 C 5.695312 -3.644531 5.8125 -3.164062 5.8125 -2.625 Z M 3.125 -4.375 C 2.726562 -4.375 2.390625 -4.253906 2.109375 -4.015625 C 1.835938 -3.785156 1.671875 -3.472656 1.609375 -3.078125 L 4.625 -3.078125 C 4.570312 -3.460938 4.410156 -3.773438 4.140625 -4.015625 C 3.867188 -4.253906 3.53125 -4.375 3.125 -4.375 Z M 3.125 -4.375 "/></g></g></g><g fill="#000000" fill-opacity="1"><g transform="translate(119.130363, 127.225817)"><g><path d="M 2 -4.53125 C 2.351562 -5.09375 2.984375 -5.375 3.890625 -5.375 L 3.890625 -4.1875 C 3.785156 -4.207031 3.691406 -4.21875 3.609375 -4.21875 C 3.117188 -4.21875 2.738281 -4.078125 2.46875 -3.796875 C 2.195312 -3.515625 2.0625 -3.109375 2.0625 -2.578125 L 2.0625 0 L 0.8125 0 L 0.8125 -5.3125 L 2 -5.3125 Z M 2 -4.53125 "/></g></g></g><g fill="#000000" fill-opacity="1"><g transform="translate(123.307288, 127.225817)"><g><path d="M 4.015625 -0.28125 C 3.867188 -0.164062 3.691406 -0.078125 3.484375 -0.015625 C 3.273438 0.0351562 3.050781 0.0625 2.8125 0.0625 C 2.226562 0.0625 1.773438 -0.0859375 1.453125 -0.390625 C 1.140625 -0.691406 0.984375 -1.132812 0.984375 -1.71875 L 0.984375 -4.28125 L 0.109375 -4.28125 L 0.109375 -5.28125 L 0.984375 -5.28125 L 0.984375 -6.484375 L 2.234375 -6.484375 L 2.234375 -5.28125 L 3.65625 -5.28125 L 3.65625 -4.28125 L 2.234375 -4.28125 L 2.234375 -1.75 C 2.234375 -1.488281 2.296875 -1.289062 2.421875 -1.15625 C 2.546875 -1.019531 2.726562 -0.953125 2.96875 -0.953125 C 3.25 -0.953125 3.476562 -1.023438 3.65625 -1.171875 Z M 4.015625 -0.28125 "/></g></g></g><g fill="#000000" fill-opacity="1"><g transform="translate(127.523995, 127.225817)"><g><path d="M 2.84375 -5.375 C 3.625 -5.375 4.222656 -5.1875 4.640625 -4.8125 C 5.054688 -4.4375 5.265625 -3.867188 5.265625 -3.109375 L 5.265625 0 L 4.09375 0 L 4.09375 -0.640625 C 3.9375 -0.410156 3.71875 -0.234375 3.4375 -0.109375 C 3.15625 0.00390625 2.816406 0.0625 2.421875 0.0625 C 2.023438 0.0625 1.675781 -0.00390625 1.375 -0.140625 C 1.070312 -0.273438 0.835938 -0.460938 0.671875 -0.703125 C 0.515625 -0.941406 0.4375 -1.210938 0.4375 -1.515625 C 0.4375 -1.992188 0.613281 -2.378906 0.96875 -2.671875 C 1.320312 -2.960938 1.878906 -3.109375 2.640625 -3.109375 L 4.015625 -3.109375 L 4.015625 -3.1875 C 4.015625 -3.5625 3.90625 -3.847656 3.6875 -4.046875 C 3.46875 -4.242188 3.140625 -4.34375 2.703125 -4.34375 C 2.398438 -4.34375 2.101562 -4.296875 1.8125 -4.203125 C 1.53125 -4.109375 1.285156 -3.976562 1.078125 -3.8125 L 0.59375 -4.71875 C 0.875 -4.925781 1.207031 -5.085938 1.59375 -5.203125 C 1.988281 -5.316406 2.40625 -5.375 2.84375 -5.375 Z M 2.671875 -0.84375 C 2.984375 -0.84375 3.257812 -0.910156 3.5 -1.046875 C 3.75 -1.191406 3.921875 -1.394531 4.015625 -1.65625 L 4.015625 -2.28125 L 2.734375 -2.28125 C 2.015625 -2.28125 1.65625 -2.046875 1.65625 -1.578125 C 1.65625 -1.347656 1.742188 -1.164062 1.921875 -1.03125 C 2.109375 -0.90625 2.359375 -0.84375 2.671875 -0.84375 Z M 2.671875 -0.84375 "/></g></g></g><g fill="#000000" fill-opacity="1"><g transform="translate(133.560649, 127.225817)"><g><path d="M 1.21875 0.0625 C 0.988281 0.0625 0.789062 -0.0078125 0.625 -0.15625 C 0.46875 -0.3125 0.390625 -0.507812 0.390625 -0.75 C 0.390625 -1 0.46875 -1.195312 0.625 -1.34375 C 0.78125 -1.5 0.976562 -1.578125 1.21875 -1.578125 C 1.445312 -1.578125 1.640625 -1.5 1.796875 -1.34375 C 1.953125 -1.195312 2.03125 -1 2.03125 -0.75 C 2.03125 -0.507812 1.945312 -0.3125 1.78125 -0.15625 C 1.625 -0.0078125 1.4375 0.0625 1.21875 0.0625 Z M 1.21875 0.0625 "/></g></g></g><g fill="#000000" fill-opacity="1"><g transform="translate(40.974069, 140.656939)"><g><path d="M 6.15625 -1.078125 L 6.15625 0 L 0.9375 0 L 0.9375 -6.96875 L 6.015625 -6.96875 L 6.015625 -5.875 L 2.234375 -5.875 L 2.234375 -4.078125 L 5.59375 -4.078125 L 5.59375 -3 L 2.234375 -3 L 2.234375 -1.078125 Z M 6.15625 -1.078125 "/></g></g></g><g fill="#000000" fill-opacity="1"><g transform="translate(47.637256, 140.656939)"><g><path d="M 3.828125 -5.375 C 4.503906 -5.375 5.039062 -5.175781 5.4375 -4.78125 C 5.84375 -4.394531 6.046875 -3.816406 6.046875 -3.046875 L 6.046875 0 L 4.8125 0 L 4.8125 -2.890625 C 4.8125 -3.347656 4.703125 -3.695312 4.484375 -3.9375 C 4.265625 -4.175781 3.953125 -4.296875 3.546875 -4.296875 C 3.085938 -4.296875 2.722656 -4.15625 2.453125 -3.875 C 2.191406 -3.601562 2.0625 -3.207031 2.0625 -2.6875 L 2.0625 0 L 0.8125 0 L 0.8125 -5.3125 L 2 -5.3125 L 2 -4.625 C 2.207031 -4.875 2.46875 -5.0625 2.78125 -5.1875 C 3.09375 -5.3125 3.441406 -5.375 3.828125 -5.375 Z M 3.828125 -5.375 "/></g></g></g><g fill="#000000" fill-opacity="1"><g transform="translate(54.449618, 140.656939)"><g><path d="M 3.25 0.0625 C 2.695312 0.0625 2.203125 -0.0507812 1.765625 -0.28125 C 1.328125 -0.507812 0.984375 -0.832031 0.734375 -1.25 C 0.492188 -1.664062 0.375 -2.132812 0.375 -2.65625 C 0.375 -3.175781 0.492188 -3.640625 0.734375 -4.046875 C 0.984375 -4.460938 1.328125 -4.785156 1.765625 -5.015625 C 2.203125 -5.253906 2.695312 -5.375 3.25 -5.375 C 3.78125 -5.375 4.238281 -5.265625 4.625 -5.046875 C 5.019531 -4.835938 5.320312 -4.535156 5.53125 -4.140625 L 4.5625 -3.578125 C 4.414062 -3.828125 4.226562 -4.007812 4 -4.125 C 3.769531 -4.25 3.519531 -4.3125 3.25 -4.3125 C 2.78125 -4.3125 2.390625 -4.160156 2.078125 -3.859375 C 1.773438 -3.554688 1.625 -3.15625 1.625 -2.65625 C 1.625 -2.15625 1.773438 -1.753906 2.078125 -1.453125 C 2.378906 -1.148438 2.769531 -1 3.25 -1 C 3.519531 -1 3.769531 -1.054688 4 -1.171875 C 4.226562 -1.296875 4.414062 -1.484375 4.5625 -1.734375 L 5.53125 -1.171875 C 5.320312 -0.773438 5.019531 -0.46875 4.625 -0.25 C 4.226562 -0.0390625 3.769531 0.0625 3.25 0.0625 Z M 3.25 0.0625 "/></g></g></g><g fill="#000000" fill-opacity="1"><g transform="translate(60.227692, 140.656939)"><g><path d="M 5.96875 -5.3125 L 5.96875 0 L 4.78125 0 L 4.78125 -0.671875 C 4.582031 -0.429688 4.332031 -0.25 4.03125 -0.125 C 3.726562 0 3.40625 0.0625 3.0625 0.0625 C 2.351562 0.0625 1.796875 -0.128906 1.390625 -0.515625 C 0.984375 -0.910156 0.78125 -1.5 0.78125 -2.28125 L 0.78125 -5.3125 L 2.015625 -5.3125 L 2.015625 -2.453125 C 2.015625 -1.972656 2.125 -1.613281 2.34375 -1.375 C 2.5625 -1.144531 2.867188 -1.03125 3.265625 -1.03125 C 3.710938 -1.03125 4.066406 -1.164062 4.328125 -1.4375 C 4.585938 -1.707031 4.71875 -2.101562 4.71875 -2.625 L 4.71875 -5.3125 Z M 5.96875 -5.3125 "/></g></g></g><g fill="#000000" fill-opacity="1"><g transform="translate(67.000272, 140.656939)"><g><path d="M 5.8125 -2.625 C 5.8125 -2.539062 5.804688 -2.421875 5.796875 -2.265625 L 1.625 -2.265625 C 1.695312 -1.867188 1.882812 -1.554688 2.1875 -1.328125 C 2.5 -1.097656 2.882812 -0.984375 3.34375 -0.984375 C 3.925781 -0.984375 4.40625 -1.175781 4.78125 -1.5625 L 5.453125 -0.796875 C 5.210938 -0.515625 4.910156 -0.300781 4.546875 -0.15625 C 4.179688 -0.0078125 3.769531 0.0625 3.3125 0.0625 C 2.726562 0.0625 2.210938 -0.0507812 1.765625 -0.28125 C 1.328125 -0.507812 0.984375 -0.832031 0.734375 -1.25 C 0.492188 -1.664062 0.375 -2.132812 0.375 -2.65625 C 0.375 -3.175781 0.488281 -3.640625 0.71875 -4.046875 C 0.957031 -4.460938 1.285156 -4.785156 1.703125 -5.015625 C 2.128906 -5.253906 2.601562 -5.375 3.125 -5.375 C 3.644531 -5.375 4.109375 -5.257812 4.515625 -5.03125 C 4.921875 -4.800781 5.238281 -4.476562 5.46875 -4.0625 C 5.695312 -3.644531 5.8125 -3.164062 5.8125 -2.625 Z M 3.125 -4.375 C 2.726562 -4.375 2.390625 -4.253906 2.109375 -4.015625 C 1.835938 -3.785156 1.671875 -3.472656 1.609375 -3.078125 L 4.625 -3.078125 C 4.570312 -3.460938 4.410156 -3.773438 4.140625 -4.015625 C 3.867188 -4.253906 3.53125 -4.375 3.125 -4.375 Z M 3.125 -4.375 "/></g></g></g><g fill="#000000" fill-opacity="1"><g transform="translate(73.186102, 140.656939)"><g><path d="M 3.828125 -5.375 C 4.503906 -5.375 5.039062 -5.175781 5.4375 -4.78125 C 5.84375 -4.394531 6.046875 -3.816406 6.046875 -3.046875 L 6.046875 0 L 4.8125 0 L 4.8125 -2.890625 C 4.8125 -3.347656 4.703125 -3.695312 4.484375 -3.9375 C 4.265625 -4.175781 3.953125 -4.296875 3.546875 -4.296875 C 3.085938 -4.296875 2.722656 -4.15625 2.453125 -3.875 C 2.191406 -3.601562 2.0625 -3.207031 2.0625 -2.6875 L 2.0625 0 L 0.8125 0 L 0.8125 -5.3125 L 2 -5.3125 L 2 -4.625 C 2.207031 -4.875 2.46875 -5.0625 2.78125 -5.1875 C 3.09375 -5.3125 3.441406 -5.375 3.828125 -5.375 Z M 3.828125 -5.375 "/></g></g></g><g fill="#000000" fill-opacity="1"><g transform="translate(79.998464, 140.656939)"><g><path d="M 4.015625 -0.28125 C 3.867188 -0.164062 3.691406 -0.078125 3.484375 -0.015625 C 3.273438 0.0351562 3.050781 0.0625 2.8125 0.0625 C 2.226562 0.0625 1.773438 -0.0859375 1.453125 -0.390625 C 1.140625 -0.691406 0.984375 -1.132812 0.984375 -1.71875 L 0.984375 -4.28125 L 0.109375 -4.28125 L 0.109375 -5.28125 L 0.984375 -5.28125 L 0.984375 -6.484375 L 2.234375 -6.484375 L 2.234375 -5.28125 L 3.65625 -5.28125 L 3.65625 -4.28125 L 2.234375 -4.28125 L 2.234375 -1.75 C 2.234375 -1.488281 2.296875 -1.289062 2.421875 -1.15625 C 2.546875 -1.019531 2.726562 -0.953125 2.96875 -0.953125 C 3.25 -0.953125 3.476562 -1.023438 3.65625 -1.171875 Z M 4.015625 -0.28125 "/></g></g></g><g fill="#000000" fill-opacity="1"><g transform="translate(84.215171, 140.656939)"><g><path d="M 2 -4.53125 C 2.351562 -5.09375 2.984375 -5.375 3.890625 -5.375 L 3.890625 -4.1875 C 3.785156 -4.207031 3.691406 -4.21875 3.609375 -4.21875 C 3.117188 -4.21875 2.738281 -4.078125 2.46875 -3.796875 C 2.195312 -3.515625 2.0625 -3.109375 2.0625 -2.578125 L 2.0625 0 L 0.8125 0 L 0.8125 -5.3125 L 2 -5.3125 Z M 2 -4.53125 "/></g></g></g><g fill="#000000" fill-opacity="1"><g transform="translate(88.392096, 140.656939)"><g><path d="M 2.84375 -5.375 C 3.625 -5.375 4.222656 -5.1875 4.640625 -4.8125 C 5.054688 -4.4375 5.265625 -3.867188 5.265625 -3.109375 L 5.265625 0 L 4.09375 0 L 4.09375 -0.640625 C 3.9375 -0.410156 3.71875 -0.234375 3.4375 -0.109375 C 3.15625 0.00390625 2.816406 0.0625 2.421875 0.0625 C 2.023438 0.0625 1.675781 -0.00390625 1.375 -0.140625 C 1.070312 -0.273438 0.835938 -0.460938 0.671875 -0.703125 C 0.515625 -0.941406 0.4375 -1.210938 0.4375 -1.515625 C 0.4375 -1.992188 0.613281 -2.378906 0.96875 -2.671875 C 1.320312 -2.960938 1.878906 -3.109375 2.640625 -3.109375 L 4.015625 -3.109375 L 4.015625 -3.1875 C 4.015625 -3.5625 3.90625 -3.847656 3.6875 -4.046875 C 3.46875 -4.242188 3.140625 -4.34375 2.703125 -4.34375 C 2.398438 -4.34375 2.101562 -4.296875 1.8125 -4.203125 C 1.53125 -4.109375 1.285156 -3.976562 1.078125 -3.8125 L 0.59375 -4.71875 C 0.875 -4.925781 1.207031 -5.085938 1.59375 -5.203125 C 1.988281 -5.316406 2.40625 -5.375 2.84375 -5.375 Z M 2.671875 -0.84375 C 2.984375 -0.84375 3.257812 -0.910156 3.5 -1.046875 C 3.75 -1.191406 3.921875 -1.394531 4.015625 -1.65625 L 4.015625 -2.28125 L 2.734375 -2.28125 C 2.015625 -2.28125 1.65625 -2.046875 1.65625 -1.578125 C 1.65625 -1.347656 1.742188 -1.164062 1.921875 -1.03125 C 2.109375 -0.90625 2.359375 -0.84375 2.671875 -0.84375 Z M 2.671875 -0.84375 "/></g></g></g><g fill="#000000" fill-opacity="1"><g transform="translate(94.42875, 140.656939)"><g/></g></g><g fill="#000000" fill-opacity="1"><g transform="translate(97.173581, 140.656939)"><g><path d="M 0.8125 -7.390625 L 2.0625 -7.390625 L 2.0625 0 L 0.8125 0 Z M 0.8125 -7.390625 "/></g></g></g><g fill="#000000" fill-opacity="1"><g transform="translate(100.047697, 140.656939)"><g><path d="M 2.84375 -5.375 C 3.625 -5.375 4.222656 -5.1875 4.640625 -4.8125 C 5.054688 -4.4375 5.265625 -3.867188 5.265625 -3.109375 L 5.265625 0 L 4.09375 0 L 4.09375 -0.640625 C 3.9375 -0.410156 3.71875 -0.234375 3.4375 -0.109375 C 3.15625 0.00390625 2.816406 0.0625 2.421875 0.0625 C 2.023438 0.0625 1.675781 -0.00390625 1.375 -0.140625 C 1.070312 -0.273438 0.835938 -0.460938 0.671875 -0.703125 C 0.515625 -0.941406 0.4375 -1.210938 0.4375 -1.515625 C 0.4375 -1.992188 0.613281 -2.378906 0.96875 -2.671875 C 1.320312 -2.960938 1.878906 -3.109375 2.640625 -3.109375 L 4.015625 -3.109375 L 4.015625 -3.1875 C 4.015625 -3.5625 3.90625 -3.847656 3.6875 -4.046875 C 3.46875 -4.242188 3.140625 -4.34375 2.703125 -4.34375 C 2.398438 -4.34375 2.101562 -4.296875 1.8125 -4.203125 C 1.53125 -4.109375 1.285156 -3.976562 1.078125 -3.8125 L 0.59375 -4.71875 C 0.875 -4.925781 1.207031 -5.085938 1.59375 -5.203125 C 1.988281 -5.316406 2.40625 -5.375 2.84375 -5.375 Z M 2.671875 -0.84375 C 2.984375 -0.84375 3.257812 -0.910156 3.5 -1.046875 C 3.75 -1.191406 3.921875 -1.394531 4.015625 -1.65625 L 4.015625 -2.28125 L 2.734375 -2.28125 C 2.015625 -2.28125 1.65625 -2.046875 1.65625 -1.578125 C 1.65625 -1.347656 1.742188 -1.164062 1.921875 -1.03125 C 2.109375 -0.90625 2.359375 -0.84375 2.671875 -0.84375 Z M 2.671875 -0.84375 "/></g></g></g><g fill="#000000" fill-opacity="1"><g transform="translate(106.084351, 140.656939)"><g/></g></g><g fill="#000000" fill-opacity="1"><g transform="translate(108.829183, 140.656939)"><g><path d="M 7.53125 -5.375 C 8.195312 -5.375 8.722656 -5.175781 9.109375 -4.78125 C 9.503906 -4.394531 9.703125 -3.816406 9.703125 -3.046875 L 9.703125 0 L 8.453125 0 L 8.453125 -2.890625 C 8.453125 -3.347656 8.347656 -3.695312 8.140625 -3.9375 C 7.941406 -4.175781 7.648438 -4.296875 7.265625 -4.296875 C 6.847656 -4.296875 6.507812 -4.15625 6.25 -3.875 C 6 -3.601562 5.875 -3.210938 5.875 -2.703125 L 5.875 0 L 4.640625 0 L 4.640625 -2.890625 C 4.640625 -3.347656 4.535156 -3.695312 4.328125 -3.9375 C 4.117188 -4.175781 3.820312 -4.296875 3.4375 -4.296875 C 3.019531 -4.296875 2.6875 -4.15625 2.4375 -3.875 C 2.1875 -3.601562 2.0625 -3.210938 2.0625 -2.703125 L 2.0625 0 L 0.8125 0 L 0.8125 -5.3125 L 2 -5.3125 L 2 -4.640625 C 2.195312 -4.878906 2.441406 -5.0625 2.734375 -5.1875 C 3.035156 -5.3125 3.375 -5.375 3.75 -5.375 C 4.144531 -5.375 4.492188 -5.296875 4.796875 -5.140625 C 5.109375 -4.992188 5.351562 -4.773438 5.53125 -4.484375 C 5.75 -4.765625 6.03125 -4.984375 6.375 -5.140625 C 6.71875 -5.296875 7.101562 -5.375 7.53125 -5.375 Z M 7.53125 -5.375 "/></g></g></g><g fill="#000000" fill-opacity="1"><g transform="translate(119.301331, 140.656939)"><g><path d="M 5.8125 -2.625 C 5.8125 -2.539062 5.804688 -2.421875 5.796875 -2.265625 L 1.625 -2.265625 C 1.695312 -1.867188 1.882812 -1.554688 2.1875 -1.328125 C 2.5 -1.097656 2.882812 -0.984375 3.34375 -0.984375 C 3.925781 -0.984375 4.40625 -1.175781 4.78125 -1.5625 L 5.453125 -0.796875 C 5.210938 -0.515625 4.910156 -0.300781 4.546875 -0.15625 C 4.179688 -0.0078125 3.769531 0.0625 3.3125 0.0625 C 2.726562 0.0625 2.210938 -0.0507812 1.765625 -0.28125 C 1.328125 -0.507812 0.984375 -0.832031 0.734375 -1.25 C 0.492188 -1.664062 0.375 -2.132812 0.375 -2.65625 C 0.375 -3.175781 0.488281 -3.640625 0.71875 -4.046875 C 0.957031 -4.460938 1.285156 -4.785156 1.703125 -5.015625 C 2.128906 -5.253906 2.601562 -5.375 3.125 -5.375 C 3.644531 -5.375 4.109375 -5.257812 4.515625 -5.03125 C 4.921875 -4.800781 5.238281 -4.476562 5.46875 -4.0625 C 5.695312 -3.644531 5.8125 -3.164062 5.8125 -2.625 Z M 3.125 -4.375 C 2.726562 -4.375 2.390625 -4.253906 2.109375 -4.015625 C 1.835938 -3.785156 1.671875 -3.472656 1.609375 -3.078125 L 4.625 -3.078125 C 4.570312 -3.460938 4.410156 -3.773438 4.140625 -4.015625 C 3.867188 -4.253906 3.53125 -4.375 3.125 -4.375 Z M 3.125 -4.375 "/></g></g></g><g fill="#000000" fill-opacity="1"><g transform="translate(125.487161, 140.656939)"><g><path d="M 0.265625 2 C -0.253906 2 -0.648438 1.894531 -0.921875 1.6875 L -0.5625 0.765625 C -0.375 0.898438 -0.132812 0.96875 0.15625 0.96875 C 0.382812 0.96875 0.5625 0.894531 0.6875 0.75 C 0.8125 0.613281 0.875 0.40625 0.875 0.125 L 0.875 -5.3125 L 2.125 -5.3125 L 2.125 0.09375 C 2.125 0.6875 1.957031 1.148438 1.625 1.484375 C 1.300781 1.828125 0.847656 2 0.265625 2 Z M 1.5 -6.1875 C 1.269531 -6.1875 1.078125 -6.257812 0.921875 -6.40625 C 0.773438 -6.550781 0.703125 -6.726562 0.703125 -6.9375 C 0.703125 -7.144531 0.773438 -7.320312 0.921875 -7.46875 C 1.078125 -7.613281 1.269531 -7.6875 1.5 -7.6875 C 1.726562 -7.6875 1.914062 -7.617188 2.0625 -7.484375 C 2.21875 -7.347656 2.296875 -7.175781 2.296875 -6.96875 C 2.296875 -6.75 2.21875 -6.5625 2.0625 -6.40625 C 1.914062 -6.257812 1.726562 -6.1875 1.5 -6.1875 Z M 1.5 -6.1875 "/></g></g></g><g fill="#000000" fill-opacity="1"><g transform="translate(128.420949, 140.656939)"><g><path d="M 3.203125 0.0625 C 2.671875 0.0625 2.1875 -0.0507812 1.75 -0.28125 C 1.320312 -0.507812 0.984375 -0.832031 0.734375 -1.25 C 0.492188 -1.664062 0.375 -2.132812 0.375 -2.65625 C 0.375 -3.175781 0.492188 -3.640625 0.734375 -4.046875 C 0.984375 -4.460938 1.320312 -4.785156 1.75 -5.015625 C 2.1875 -5.253906 2.671875 -5.375 3.203125 -5.375 C 3.742188 -5.375 4.226562 -5.253906 4.65625 -5.015625 C 5.09375 -4.785156 5.429688 -4.460938 5.671875 -4.046875 C 5.921875 -3.640625 6.046875 -3.175781 6.046875 -2.65625 C 6.046875 -2.132812 5.921875 -1.664062 5.671875 -1.25 C 5.429688 -0.832031 5.09375 -0.507812 4.65625 -0.28125 C 4.226562 -0.0507812 3.742188 0.0625 3.203125 0.0625 Z M 3.203125 -1 C 3.660156 -1 4.035156 -1.148438 4.328125 -1.453125 C 4.628906 -1.753906 4.78125 -2.15625 4.78125 -2.65625 C 4.78125 -3.15625 4.628906 -3.554688 4.328125 -3.859375 C 4.035156 -4.160156 3.660156 -4.3125 3.203125 -4.3125 C 2.742188 -4.3125 2.363281 -4.160156 2.0625 -3.859375 C 1.769531 -3.554688 1.625 -3.15625 1.625 -2.65625 C 1.625 -2.15625 1.769531 -1.753906 2.0625 -1.453125 C 2.363281 -1.148438 2.742188 -1 3.203125 -1 Z M 3.203125 -1 "/></g></g></g><g fill="#000000" fill-opacity="1"><g transform="translate(134.835506, 140.656939)"><g><path d="M 2 -4.53125 C 2.351562 -5.09375 2.984375 -5.375 3.890625 -5.375 L 3.890625 -4.1875 C 3.785156 -4.207031 3.691406 -4.21875 3.609375 -4.21875 C 3.117188 -4.21875 2.738281 -4.078125 2.46875 -3.796875 C 2.195312 -3.515625 2.0625 -3.109375 2.0625 -2.578125 L 2.0625 0 L 0.8125 0 L 0.8125 -5.3125 L 2 -5.3125 Z M 2 -4.53125 "/></g></g></g><g fill="#000000" fill-opacity="1"><g transform="translate(21.165496, 154.088061)"><g><path d="M 2.453125 0.0625 C 2.023438 0.0625 1.601562 0.0078125 1.1875 -0.09375 C 0.78125 -0.207031 0.453125 -0.351562 0.203125 -0.53125 L 0.6875 -1.46875 C 0.925781 -1.3125 1.210938 -1.1875 1.546875 -1.09375 C 1.878906 -1 2.207031 -0.953125 2.53125 -0.953125 C 3.28125 -0.953125 3.65625 -1.144531 3.65625 -1.53125 C 3.65625 -1.71875 3.554688 -1.847656 3.359375 -1.921875 C 3.171875 -1.992188 2.867188 -2.0625 2.453125 -2.125 C 2.015625 -2.195312 1.65625 -2.273438 1.375 -2.359375 C 1.101562 -2.441406 0.867188 -2.59375 0.671875 -2.8125 C 0.472656 -3.03125 0.375 -3.332031 0.375 -3.71875 C 0.375 -4.21875 0.582031 -4.617188 1 -4.921875 C 1.414062 -5.222656 1.984375 -5.375 2.703125 -5.375 C 3.066406 -5.375 3.429688 -5.332031 3.796875 -5.25 C 4.160156 -5.164062 4.460938 -5.054688 4.703125 -4.921875 L 4.21875 -3.96875 C 3.769531 -4.238281 3.265625 -4.375 2.703125 -4.375 C 2.335938 -4.375 2.054688 -4.316406 1.859375 -4.203125 C 1.671875 -4.097656 1.578125 -3.953125 1.578125 -3.765625 C 1.578125 -3.566406 1.675781 -3.425781 1.875 -3.34375 C 2.082031 -3.257812 2.398438 -3.179688 2.828125 -3.109375 C 3.253906 -3.046875 3.601562 -2.96875 3.875 -2.875 C 4.144531 -2.789062 4.375 -2.644531 4.5625 -2.4375 C 4.757812 -2.238281 4.859375 -1.953125 4.859375 -1.578125 C 4.859375 -1.078125 4.644531 -0.675781 4.21875 -0.375 C 3.789062 -0.0820312 3.203125 0.0625 2.453125 0.0625 Z M 2.453125 0.0625 "/></g></g></g><g fill="#000000" fill-opacity="1"><g transform="translate(26.287195, 154.088061)"><g><path d="M 3.203125 0.0625 C 2.671875 0.0625 2.1875 -0.0507812 1.75 -0.28125 C 1.320312 -0.507812 0.984375 -0.832031 0.734375 -1.25 C 0.492188 -1.664062 0.375 -2.132812 0.375 -2.65625 C 0.375 -3.175781 0.492188 -3.640625 0.734375 -4.046875 C 0.984375 -4.460938 1.320312 -4.785156 1.75 -5.015625 C 2.1875 -5.253906 2.671875 -5.375 3.203125 -5.375 C 3.742188 -5.375 4.226562 -5.253906 4.65625 -5.015625 C 5.09375 -4.785156 5.429688 -4.460938 5.671875 -4.046875 C 5.921875 -3.640625 6.046875 -3.175781 6.046875 -2.65625 C 6.046875 -2.132812 5.921875 -1.664062 5.671875 -1.25 C 5.429688 -0.832031 5.09375 -0.507812 4.65625 -0.28125 C 4.226562 -0.0507812 3.742188 0.0625 3.203125 0.0625 Z M 3.203125 -1 C 3.660156 -1 4.035156 -1.148438 4.328125 -1.453125 C 4.628906 -1.753906 4.78125 -2.15625 4.78125 -2.65625 C 4.78125 -3.15625 4.628906 -3.554688 4.328125 -3.859375 C 4.035156 -4.160156 3.660156 -4.3125 3.203125 -4.3125 C 2.742188 -4.3125 2.363281 -4.160156 2.0625 -3.859375 C 1.769531 -3.554688 1.625 -3.15625 1.625 -2.65625 C 1.625 -2.15625 1.769531 -1.753906 2.0625 -1.453125 C 2.363281 -1.148438 2.742188 -1 3.203125 -1 Z M 3.203125 -1 "/></g></g></g><g fill="#000000" fill-opacity="1"><g transform="translate(32.701753, 154.088061)"><g><path d="M 0.8125 -7.390625 L 2.0625 -7.390625 L 2.0625 0 L 0.8125 0 Z M 0.8125 -7.390625 "/></g></g></g><g fill="#000000" fill-opacity="1"><g transform="translate(35.575868, 154.088061)"><g><path d="M 5.96875 -5.3125 L 5.96875 0 L 4.78125 0 L 4.78125 -0.671875 C 4.582031 -0.429688 4.332031 -0.25 4.03125 -0.125 C 3.726562 0 3.40625 0.0625 3.0625 0.0625 C 2.351562 0.0625 1.796875 -0.128906 1.390625 -0.515625 C 0.984375 -0.910156 0.78125 -1.5 0.78125 -2.28125 L 0.78125 -5.3125 L 2.015625 -5.3125 L 2.015625 -2.453125 C 2.015625 -1.972656 2.125 -1.613281 2.34375 -1.375 C 2.5625 -1.144531 2.867188 -1.03125 3.265625 -1.03125 C 3.710938 -1.03125 4.066406 -1.164062 4.328125 -1.4375 C 4.585938 -1.707031 4.71875 -2.101562 4.71875 -2.625 L 4.71875 -5.3125 Z M 5.96875 -5.3125 "/></g></g></g><g fill="#000000" fill-opacity="1"><g transform="translate(42.348449, 154.088061)"><g><path d="M 3.25 0.0625 C 2.695312 0.0625 2.203125 -0.0507812 1.765625 -0.28125 C 1.328125 -0.507812 0.984375 -0.832031 0.734375 -1.25 C 0.492188 -1.664062 0.375 -2.132812 0.375 -2.65625 C 0.375 -3.175781 0.492188 -3.640625 0.734375 -4.046875 C 0.984375 -4.460938 1.328125 -4.785156 1.765625 -5.015625 C 2.203125 -5.253906 2.695312 -5.375 3.25 -5.375 C 3.78125 -5.375 4.238281 -5.265625 4.625 -5.046875 C 5.019531 -4.835938 5.320312 -4.535156 5.53125 -4.140625 L 4.5625 -3.578125 C 4.414062 -3.828125 4.226562 -4.007812 4 -4.125 C 3.769531 -4.25 3.519531 -4.3125 3.25 -4.3125 C 2.78125 -4.3125 2.390625 -4.160156 2.078125 -3.859375 C 1.773438 -3.554688 1.625 -3.15625 1.625 -2.65625 C 1.625 -2.15625 1.773438 -1.753906 2.078125 -1.453125 C 2.378906 -1.148438 2.769531 -1 3.25 -1 C 3.519531 -1 3.769531 -1.054688 4 -1.171875 C 4.226562 -1.296875 4.414062 -1.484375 4.5625 -1.734375 L 5.53125 -1.171875 C 5.320312 -0.773438 5.019531 -0.46875 4.625 -0.25 C 4.226562 -0.0390625 3.769531 0.0625 3.25 0.0625 Z M 3.25 0.0625 "/></g></g></g><g fill="#000000" fill-opacity="1"><g transform="translate(48.126522, 154.088061)"><g><path d="M 0.8125 -5.3125 L 2.0625 -5.3125 L 2.0625 0 L 0.8125 0 Z M 1.4375 -6.1875 C 1.207031 -6.1875 1.015625 -6.257812 0.859375 -6.40625 C 0.710938 -6.550781 0.640625 -6.726562 0.640625 -6.9375 C 0.640625 -7.144531 0.710938 -7.320312 0.859375 -7.46875 C 1.015625 -7.613281 1.207031 -7.6875 1.4375 -7.6875 C 1.664062 -7.6875 1.851562 -7.617188 2 -7.484375 C 2.15625 -7.347656 2.234375 -7.175781 2.234375 -6.96875 C 2.234375 -6.75 2.15625 -6.5625 2 -6.40625 C 1.851562 -6.257812 1.664062 -6.1875 1.4375 -6.1875 Z M 1.4375 -6.1875 "/></g></g></g><g fill="#000000" fill-opacity="1"><g transform="translate(51.000638, 154.088061)"><g><path d="M 3.203125 0.0625 C 2.671875 0.0625 2.1875 -0.0507812 1.75 -0.28125 C 1.320312 -0.507812 0.984375 -0.832031 0.734375 -1.25 C 0.492188 -1.664062 0.375 -2.132812 0.375 -2.65625 C 0.375 -3.175781 0.492188 -3.640625 0.734375 -4.046875 C 0.984375 -4.460938 1.320312 -4.785156 1.75 -5.015625 C 2.1875 -5.253906 2.671875 -5.375 3.203125 -5.375 C 3.742188 -5.375 4.226562 -5.253906 4.65625 -5.015625 C 5.09375 -4.785156 5.429688 -4.460938 5.671875 -4.046875 C 5.921875 -3.640625 6.046875 -3.175781 6.046875 -2.65625 C 6.046875 -2.132812 5.921875 -1.664062 5.671875 -1.25 C 5.429688 -0.832031 5.09375 -0.507812 4.65625 -0.28125 C 4.226562 -0.0507812 3.742188 0.0625 3.203125 0.0625 Z M 3.203125 -1 C 3.660156 -1 4.035156 -1.148438 4.328125 -1.453125 C 4.628906 -1.753906 4.78125 -2.15625 4.78125 -2.65625 C 4.78125 -3.15625 4.628906 -3.554688 4.328125 -3.859375 C 4.035156 -4.160156 3.660156 -4.3125 3.203125 -4.3125 C 2.742188 -4.3125 2.363281 -4.160156 2.0625 -3.859375 C 1.769531 -3.554688 1.625 -3.15625 1.625 -2.65625 C 1.625 -2.15625 1.769531 -1.753906 2.0625 -1.453125 C 2.363281 -1.148438 2.742188 -1 3.203125 -1 Z M 3.703125 -7.40625 L 5.171875 -7.40625 L 3.4375 -6.046875 L 2.359375 -6.046875 Z M 3.703125 -7.40625 "/></g></g></g><g fill="#000000" fill-opacity="1"><g transform="translate(57.415195, 154.088061)"><g><path d="M 3.828125 -5.375 C 4.503906 -5.375 5.039062 -5.175781 5.4375 -4.78125 C 5.84375 -4.394531 6.046875 -3.816406 6.046875 -3.046875 L 6.046875 0 L 4.8125 0 L 4.8125 -2.890625 C 4.8125 -3.347656 4.703125 -3.695312 4.484375 -3.9375 C 4.265625 -4.175781 3.953125 -4.296875 3.546875 -4.296875 C 3.085938 -4.296875 2.722656 -4.15625 2.453125 -3.875 C 2.191406 -3.601562 2.0625 -3.207031 2.0625 -2.6875 L 2.0625 0 L 0.8125 0 L 0.8125 -5.3125 L 2 -5.3125 L 2 -4.625 C 2.207031 -4.875 2.46875 -5.0625 2.78125 -5.1875 C 3.09375 -5.3125 3.441406 -5.375 3.828125 -5.375 Z M 3.828125 -5.375 "/></g></g></g><g fill="#000000" fill-opacity="1"><g transform="translate(64.227558, 154.088061)"><g/></g></g><g fill="#000000" fill-opacity="1"><g transform="translate(66.972389, 154.088061)"><g><path d="M 3.765625 -5.375 C 4.273438 -5.375 4.734375 -5.257812 5.140625 -5.03125 C 5.554688 -4.8125 5.878906 -4.492188 6.109375 -4.078125 C 6.335938 -3.671875 6.453125 -3.195312 6.453125 -2.65625 C 6.453125 -2.113281 6.335938 -1.632812 6.109375 -1.21875 C 5.878906 -0.8125 5.554688 -0.492188 5.140625 -0.265625 C 4.734375 -0.046875 4.273438 0.0625 3.765625 0.0625 C 3.046875 0.0625 2.476562 -0.171875 2.0625 -0.640625 L 2.0625 1.9375 L 0.8125 1.9375 L 0.8125 -5.3125 L 2 -5.3125 L 2 -4.625 C 2.207031 -4.875 2.460938 -5.0625 2.765625 -5.1875 C 3.066406 -5.3125 3.398438 -5.375 3.765625 -5.375 Z M 3.625 -1 C 4.082031 -1 4.457031 -1.148438 4.75 -1.453125 C 5.050781 -1.753906 5.203125 -2.15625 5.203125 -2.65625 C 5.203125 -3.15625 5.050781 -3.554688 4.75 -3.859375 C 4.457031 -4.160156 4.082031 -4.3125 3.625 -4.3125 C 3.320312 -4.3125 3.050781 -4.242188 2.8125 -4.109375 C 2.570312 -3.972656 2.382812 -3.78125 2.25 -3.53125 C 2.113281 -3.28125 2.046875 -2.988281 2.046875 -2.65625 C 2.046875 -2.320312 2.113281 -2.03125 2.25 -1.78125 C 2.382812 -1.53125 2.570312 -1.335938 2.8125 -1.203125 C 3.050781 -1.066406 3.320312 -1 3.625 -1 Z M 3.625 -1 "/></g></g></g><g fill="#000000" fill-opacity="1"><g transform="translate(73.794702, 154.088061)"><g><path d="M 2.84375 -5.375 C 3.625 -5.375 4.222656 -5.1875 4.640625 -4.8125 C 5.054688 -4.4375 5.265625 -3.867188 5.265625 -3.109375 L 5.265625 0 L 4.09375 0 L 4.09375 -0.640625 C 3.9375 -0.410156 3.71875 -0.234375 3.4375 -0.109375 C 3.15625 0.00390625 2.816406 0.0625 2.421875 0.0625 C 2.023438 0.0625 1.675781 -0.00390625 1.375 -0.140625 C 1.070312 -0.273438 0.835938 -0.460938 0.671875 -0.703125 C 0.515625 -0.941406 0.4375 -1.210938 0.4375 -1.515625 C 0.4375 -1.992188 0.613281 -2.378906 0.96875 -2.671875 C 1.320312 -2.960938 1.878906 -3.109375 2.640625 -3.109375 L 4.015625 -3.109375 L 4.015625 -3.1875 C 4.015625 -3.5625 3.90625 -3.847656 3.6875 -4.046875 C 3.46875 -4.242188 3.140625 -4.34375 2.703125 -4.34375 C 2.398438 -4.34375 2.101562 -4.296875 1.8125 -4.203125 C 1.53125 -4.109375 1.285156 -3.976562 1.078125 -3.8125 L 0.59375 -4.71875 C 0.875 -4.925781 1.207031 -5.085938 1.59375 -5.203125 C 1.988281 -5.316406 2.40625 -5.375 2.84375 -5.375 Z M 2.671875 -0.84375 C 2.984375 -0.84375 3.257812 -0.910156 3.5 -1.046875 C 3.75 -1.191406 3.921875 -1.394531 4.015625 -1.65625 L 4.015625 -2.28125 L 2.734375 -2.28125 C 2.015625 -2.28125 1.65625 -2.046875 1.65625 -1.578125 C 1.65625 -1.347656 1.742188 -1.164062 1.921875 -1.03125 C 2.109375 -0.90625 2.359375 -0.84375 2.671875 -0.84375 Z M 2.671875 -0.84375 "/></g></g></g><g fill="#000000" fill-opacity="1"><g transform="translate(79.831356, 154.088061)"><g><path d="M 2 -4.53125 C 2.351562 -5.09375 2.984375 -5.375 3.890625 -5.375 L 3.890625 -4.1875 C 3.785156 -4.207031 3.691406 -4.21875 3.609375 -4.21875 C 3.117188 -4.21875 2.738281 -4.078125 2.46875 -3.796875 C 2.195312 -3.515625 2.0625 -3.109375 2.0625 -2.578125 L 2.0625 0 L 0.8125 0 L 0.8125 -5.3125 L 2 -5.3125 Z M 2 -4.53125 "/></g></g></g><g fill="#000000" fill-opacity="1"><g transform="translate(84.008281, 154.088061)"><g><path d="M 2.84375 -5.375 C 3.625 -5.375 4.222656 -5.1875 4.640625 -4.8125 C 5.054688 -4.4375 5.265625 -3.867188 5.265625 -3.109375 L 5.265625 0 L 4.09375 0 L 4.09375 -0.640625 C 3.9375 -0.410156 3.71875 -0.234375 3.4375 -0.109375 C 3.15625 0.00390625 2.816406 0.0625 2.421875 0.0625 C 2.023438 0.0625 1.675781 -0.00390625 1.375 -0.140625 C 1.070312 -0.273438 0.835938 -0.460938 0.671875 -0.703125 C 0.515625 -0.941406 0.4375 -1.210938 0.4375 -1.515625 C 0.4375 -1.992188 0.613281 -2.378906 0.96875 -2.671875 C 1.320312 -2.960938 1.878906 -3.109375 2.640625 -3.109375 L 4.015625 -3.109375 L 4.015625 -3.1875 C 4.015625 -3.5625 3.90625 -3.847656 3.6875 -4.046875 C 3.46875 -4.242188 3.140625 -4.34375 2.703125 -4.34375 C 2.398438 -4.34375 2.101562 -4.296875 1.8125 -4.203125 C 1.53125 -4.109375 1.285156 -3.976562 1.078125 -3.8125 L 0.59375 -4.71875 C 0.875 -4.925781 1.207031 -5.085938 1.59375 -5.203125 C 1.988281 -5.316406 2.40625 -5.375 2.84375 -5.375 Z M 2.671875 -0.84375 C 2.984375 -0.84375 3.257812 -0.910156 3.5 -1.046875 C 3.75 -1.191406 3.921875 -1.394531 4.015625 -1.65625 L 4.015625 -2.28125 L 2.734375 -2.28125 C 2.015625 -2.28125 1.65625 -2.046875 1.65625 -1.578125 C 1.65625 -1.347656 1.742188 -1.164062 1.921875 -1.03125 C 2.109375 -0.90625 2.359375 -0.84375 2.671875 -0.84375 Z M 2.671875 -0.84375 "/></g></g></g><g fill="#000000" fill-opacity="1"><g transform="translate(90.044936, 154.088061)"><g/></g></g><g fill="#000000" fill-opacity="1"><g transform="translate(92.789767, 154.088061)"><g><path d="M 4.015625 -0.28125 C 3.867188 -0.164062 3.691406 -0.078125 3.484375 -0.015625 C 3.273438 0.0351562 3.050781 0.0625 2.8125 0.0625 C 2.226562 0.0625 1.773438 -0.0859375 1.453125 -0.390625 C 1.140625 -0.691406 0.984375 -1.132812 0.984375 -1.71875 L 0.984375 -4.28125 L 0.109375 -4.28125 L 0.109375 -5.28125 L 0.984375 -5.28125 L 0.984375 -6.484375 L 2.234375 -6.484375 L 2.234375 -5.28125 L 3.65625 -5.28125 L 3.65625 -4.28125 L 2.234375 -4.28125 L 2.234375 -1.75 C 2.234375 -1.488281 2.296875 -1.289062 2.421875 -1.15625 C 2.546875 -1.019531 2.726562 -0.953125 2.96875 -0.953125 C 3.25 -0.953125 3.476562 -1.023438 3.65625 -1.171875 Z M 4.015625 -0.28125 "/></g></g></g><g fill="#000000" fill-opacity="1"><g transform="translate(97.006473, 154.088061)"><g><path d="M 5.96875 -5.3125 L 5.96875 0 L 4.78125 0 L 4.78125 -0.671875 C 4.582031 -0.429688 4.332031 -0.25 4.03125 -0.125 C 3.726562 0 3.40625 0.0625 3.0625 0.0625 C 2.351562 0.0625 1.796875 -0.128906 1.390625 -0.515625 C 0.984375 -0.910156 0.78125 -1.5 0.78125 -2.28125 L 0.78125 -5.3125 L 2.015625 -5.3125 L 2.015625 -2.453125 C 2.015625 -1.972656 2.125 -1.613281 2.34375 -1.375 C 2.5625 -1.144531 2.867188 -1.03125 3.265625 -1.03125 C 3.710938 -1.03125 4.066406 -1.164062 4.328125 -1.4375 C 4.585938 -1.707031 4.71875 -2.101562 4.71875 -2.625 L 4.71875 -5.3125 Z M 5.96875 -5.3125 "/></g></g></g><g fill="#000000" fill-opacity="1"><g transform="translate(103.779054, 154.088061)"><g/></g></g><g fill="#000000" fill-opacity="1"><g transform="translate(106.523885, 154.088061)"><g><path d="M 3.765625 -5.375 C 4.273438 -5.375 4.734375 -5.257812 5.140625 -5.03125 C 5.554688 -4.8125 5.878906 -4.492188 6.109375 -4.078125 C 6.335938 -3.671875 6.453125 -3.195312 6.453125 -2.65625 C 6.453125 -2.113281 6.335938 -1.632812 6.109375 -1.21875 C 5.878906 -0.8125 5.554688 -0.492188 5.140625 -0.265625 C 4.734375 -0.046875 4.273438 0.0625 3.765625 0.0625 C 3.046875 0.0625 2.476562 -0.171875 2.0625 -0.640625 L 2.0625 1.9375 L 0.8125 1.9375 L 0.8125 -5.3125 L 2 -5.3125 L 2 -4.625 C 2.207031 -4.875 2.460938 -5.0625 2.765625 -5.1875 C 3.066406 -5.3125 3.398438 -5.375 3.765625 -5.375 Z M 3.625 -1 C 4.082031 -1 4.457031 -1.148438 4.75 -1.453125 C 5.050781 -1.753906 5.203125 -2.15625 5.203125 -2.65625 C 5.203125 -3.15625 5.050781 -3.554688 4.75 -3.859375 C 4.457031 -4.160156 4.082031 -4.3125 3.625 -4.3125 C 3.320312 -4.3125 3.050781 -4.242188 2.8125 -4.109375 C 2.570312 -3.972656 2.382812 -3.78125 2.25 -3.53125 C 2.113281 -3.28125 2.046875 -2.988281 2.046875 -2.65625 C 2.046875 -2.320312 2.113281 -2.03125 2.25 -1.78125 C 2.382812 -1.53125 2.570312 -1.335938 2.8125 -1.203125 C 3.050781 -1.066406 3.320312 -1 3.625 -1 Z M 3.625 -1 "/></g></g></g><g fill="#000000" fill-opacity="1"><g transform="translate(113.346198, 154.088061)"><g><path d="M 2 -4.53125 C 2.351562 -5.09375 2.984375 -5.375 3.890625 -5.375 L 3.890625 -4.1875 C 3.785156 -4.207031 3.691406 -4.21875 3.609375 -4.21875 C 3.117188 -4.21875 2.738281 -4.078125 2.46875 -3.796875 C 2.195312 -3.515625 2.0625 -3.109375 2.0625 -2.578125 L 2.0625 0 L 0.8125 0 L 0.8125 -5.3125 L 2 -5.3125 Z M 2 -4.53125 "/></g></g></g><g fill="#000000" fill-opacity="1"><g transform="translate(117.523123, 154.088061)"><g><path d="M 3.203125 0.0625 C 2.671875 0.0625 2.1875 -0.0507812 1.75 -0.28125 C 1.320312 -0.507812 0.984375 -0.832031 0.734375 -1.25 C 0.492188 -1.664062 0.375 -2.132812 0.375 -2.65625 C 0.375 -3.175781 0.492188 -3.640625 0.734375 -4.046875 C 0.984375 -4.460938 1.320312 -4.785156 1.75 -5.015625 C 2.1875 -5.253906 2.671875 -5.375 3.203125 -5.375 C 3.742188 -5.375 4.226562 -5.253906 4.65625 -5.015625 C 5.09375 -4.785156 5.429688 -4.460938 5.671875 -4.046875 C 5.921875 -3.640625 6.046875 -3.175781 6.046875 -2.65625 C 6.046875 -2.132812 5.921875 -1.664062 5.671875 -1.25 C 5.429688 -0.832031 5.09375 -0.507812 4.65625 -0.28125 C 4.226562 -0.0507812 3.742188 0.0625 3.203125 0.0625 Z M 3.203125 -1 C 3.660156 -1 4.035156 -1.148438 4.328125 -1.453125 C 4.628906 -1.753906 4.78125 -2.15625 4.78125 -2.65625 C 4.78125 -3.15625 4.628906 -3.554688 4.328125 -3.859375 C 4.035156 -4.160156 3.660156 -4.3125 3.203125 -4.3125 C 2.742188 -4.3125 2.363281 -4.160156 2.0625 -3.859375 C 1.769531 -3.554688 1.625 -3.15625 1.625 -2.65625 C 1.625 -2.15625 1.769531 -1.753906 2.0625 -1.453125 C 2.363281 -1.148438 2.742188 -1 3.203125 -1 Z M 3.203125 -1 "/></g></g></g><g fill="#000000" fill-opacity="1"><g transform="translate(123.93768, 154.088061)"><g><path d="M 5.796875 -5.3125 L 3.296875 0.421875 C 3.066406 1.003906 2.785156 1.410156 2.453125 1.640625 C 2.117188 1.878906 1.71875 2 1.25 2 C 0.988281 2 0.726562 1.953125 0.46875 1.859375 C 0.207031 1.773438 -0.00390625 1.660156 -0.171875 1.515625 L 0.328125 0.59375 C 0.441406 0.707031 0.582031 0.796875 0.75 0.859375 C 0.914062 0.929688 1.082031 0.96875 1.25 0.96875 C 1.46875 0.96875 1.644531 0.910156 1.78125 0.796875 C 1.925781 0.679688 2.0625 0.492188 2.1875 0.234375 L 2.265625 0.015625 L -0.046875 -5.3125 L 1.25 -5.3125 L 2.921875 -1.390625 L 4.59375 -5.3125 Z M 5.796875 -5.3125 "/></g></g></g><g fill="#000000" fill-opacity="1"><g transform="translate(129.685923, 154.088061)"><g><path d="M 5.8125 -2.625 C 5.8125 -2.539062 5.804688 -2.421875 5.796875 -2.265625 L 1.625 -2.265625 C 1.695312 -1.867188 1.882812 -1.554688 2.1875 -1.328125 C 2.5 -1.097656 2.882812 -0.984375 3.34375 -0.984375 C 3.925781 -0.984375 4.40625 -1.175781 4.78125 -1.5625 L 5.453125 -0.796875 C 5.210938 -0.515625 4.910156 -0.300781 4.546875 -0.15625 C 4.179688 -0.0078125 3.769531 0.0625 3.3125 0.0625 C 2.726562 0.0625 2.210938 -0.0507812 1.765625 -0.28125 C 1.328125 -0.507812 0.984375 -0.832031 0.734375 -1.25 C 0.492188 -1.664062 0.375 -2.132812 0.375 -2.65625 C 0.375 -3.175781 0.488281 -3.640625 0.71875 -4.046875 C 0.957031 -4.460938 1.285156 -4.785156 1.703125 -5.015625 C 2.128906 -5.253906 2.601562 -5.375 3.125 -5.375 C 3.644531 -5.375 4.109375 -5.257812 4.515625 -5.03125 C 4.921875 -4.800781 5.238281 -4.476562 5.46875 -4.0625 C 5.695312 -3.644531 5.8125 -3.164062 5.8125 -2.625 Z M 3.125 -4.375 C 2.726562 -4.375 2.390625 -4.253906 2.109375 -4.015625 C 1.835938 -3.785156 1.671875 -3.472656 1.609375 -3.078125 L 4.625 -3.078125 C 4.570312 -3.460938 4.410156 -3.773438 4.140625 -4.015625 C 3.867188 -4.253906 3.53125 -4.375 3.125 -4.375 Z M 3.125 -4.375 "/></g></g></g><g fill="#000000" fill-opacity="1"><g transform="translate(135.871753, 154.088061)"><g><path d="M 3.25 0.0625 C 2.695312 0.0625 2.203125 -0.0507812 1.765625 -0.28125 C 1.328125 -0.507812 0.984375 -0.832031 0.734375 -1.25 C 0.492188 -1.664062 0.375 -2.132812 0.375 -2.65625 C 0.375 -3.175781 0.492188 -3.640625 0.734375 -4.046875 C 0.984375 -4.460938 1.328125 -4.785156 1.765625 -5.015625 C 2.203125 -5.253906 2.695312 -5.375 3.25 -5.375 C 3.78125 -5.375 4.238281 -5.265625 4.625 -5.046875 C 5.019531 -4.835938 5.320312 -4.535156 5.53125 -4.140625 L 4.5625 -3.578125 C 4.414062 -3.828125 4.226562 -4.007812 4 -4.125 C 3.769531 -4.25 3.519531 -4.3125 3.25 -4.3125 C 2.78125 -4.3125 2.390625 -4.160156 2.078125 -3.859375 C 1.773438 -3.554688 1.625 -3.15625 1.625 -2.65625 C 1.625 -2.15625 1.773438 -1.753906 2.078125 -1.453125 C 2.378906 -1.148438 2.769531 -1 3.25 -1 C 3.519531 -1 3.769531 -1.054688 4 -1.171875 C 4.226562 -1.296875 4.414062 -1.484375 4.5625 -1.734375 L 5.53125 -1.171875 C 5.320312 -0.773438 5.019531 -0.46875 4.625 -0.25 C 4.226562 -0.0390625 3.769531 0.0625 3.25 0.0625 Z M 3.25 0.0625 "/></g></g></g><g fill="#000000" fill-opacity="1"><g transform="translate(141.649827, 154.088061)"><g><path d="M 4.015625 -0.28125 C 3.867188 -0.164062 3.691406 -0.078125 3.484375 -0.015625 C 3.273438 0.0351562 3.050781 0.0625 2.8125 0.0625 C 2.226562 0.0625 1.773438 -0.0859375 1.453125 -0.390625 C 1.140625 -0.691406 0.984375 -1.132812 0.984375 -1.71875 L 0.984375 -4.28125 L 0.109375 -4.28125 L 0.109375 -5.28125 L 0.984375 -5.28125 L 0.984375 -6.484375 L 2.234375 -6.484375 L 2.234375 -5.28125 L 3.65625 -5.28125 L 3.65625 -4.28125 L 2.234375 -4.28125 L 2.234375 -1.75 C 2.234375 -1.488281 2.296875 -1.289062 2.421875 -1.15625 C 2.546875 -1.019531 2.726562 -0.953125 2.96875 -0.953125 C 3.25 -0.953125 3.476562 -1.023438 3.65625 -1.171875 Z M 4.015625 -0.28125 "/></g></g></g><g fill="#000000" fill-opacity="1"><g transform="translate(145.866533, 154.088061)"><g><path d="M 3.203125 0.0625 C 2.671875 0.0625 2.1875 -0.0507812 1.75 -0.28125 C 1.320312 -0.507812 0.984375 -0.832031 0.734375 -1.25 C 0.492188 -1.664062 0.375 -2.132812 0.375 -2.65625 C 0.375 -3.175781 0.492188 -3.640625 0.734375 -4.046875 C 0.984375 -4.460938 1.320312 -4.785156 1.75 -5.015625 C 2.1875 -5.253906 2.671875 -5.375 3.203125 -5.375 C 3.742188 -5.375 4.226562 -5.253906 4.65625 -5.015625 C 5.09375 -4.785156 5.429688 -4.460938 5.671875 -4.046875 C 5.921875 -3.640625 6.046875 -3.175781 6.046875 -2.65625 C 6.046875 -2.132812 5.921875 -1.664062 5.671875 -1.25 C 5.429688 -0.832031 5.09375 -0.507812 4.65625 -0.28125 C 4.226562 -0.0507812 3.742188 0.0625 3.203125 0.0625 Z M 3.203125 -1 C 3.660156 -1 4.035156 -1.148438 4.328125 -1.453125 C 4.628906 -1.753906 4.78125 -2.15625 4.78125 -2.65625 C 4.78125 -3.15625 4.628906 -3.554688 4.328125 -3.859375 C 4.035156 -4.160156 3.660156 -4.3125 3.203125 -4.3125 C 2.742188 -4.3125 2.363281 -4.160156 2.0625 -3.859375 C 1.769531 -3.554688 1.625 -3.15625 1.625 -2.65625 C 1.625 -2.15625 1.769531 -1.753906 2.0625 -1.453125 C 2.363281 -1.148438 2.742188 -1 3.203125 -1 Z M 3.203125 -1 "/></g></g></g><g fill="#000000" fill-opacity="1"><g transform="translate(152.28109, 154.088061)"><g><path d="M 1.21875 0.0625 C 0.988281 0.0625 0.789062 -0.0078125 0.625 -0.15625 C 0.46875 -0.3125 0.390625 -0.507812 0.390625 -0.75 C 0.390625 -1 0.46875 -1.195312 0.625 -1.34375 C 0.78125 -1.5 0.976562 -1.578125 1.21875 -1.578125 C 1.445312 -1.578125 1.640625 -1.5 1.796875 -1.34375 C 1.953125 -1.195312 2.03125 -1 2.03125 -0.75 C 2.03125 -0.507812 1.945312 -0.3125 1.78125 -0.15625 C 1.625 -0.0078125 1.4375 0.0625 1.21875 0.0625 Z M 1.21875 0.0625 "/></g></g></g><g fill="#000000" fill-opacity="1"><g transform="translate(154.70768, 154.088061)"><g><path d="M 0.5625 -6.96875 L 1.625 -6.96875 L 1.546875 -4.203125 L 0.640625 -4.203125 Z M 2.484375 -6.96875 L 3.546875 -6.96875 L 3.46875 -4.203125 L 2.5625 -4.203125 Z M 2.484375 -6.96875 "/></g></g></g></svg>