<svg xmlns="http://www.w3.org/2000/svg" xmlns:xlink="http://www.w3.org/1999/xlink" width="240" zoomAndPan="magnify" viewBox="0 0 180 195.000001" height="260" preserveAspectRatio="xMidYMid meet" version="1.0"><defs><g/><clipPath id="d21419f727"><path d="M 0.460938 0 L 179.539062 0 L 179.539062 194.003906 L 0.460938 194.003906 Z M 0.460938 0 " clip-rule="nonzero"/></clipPath><clipPath id="0b7510c83e"><path d="M 18.367188 61 L 120 61 L 120 66 L 18.367188 66 Z M 18.367188 61 " clip-rule="nonzero"/></clipPath><clipPath id="5f9b528008"><path d="M 18.382812 35.695312 L 161.617188 35.695312 L 161.617188 83.203125 L 18.382812 83.203125 Z M 18.382812 35.695312 " clip-rule="nonzero"/></clipPath><clipPath id="2e27069f21"><path d="M 60.539062 74.382812 L 77.851562 74.382812 L 77.851562 91.652344 L 60.539062 91.652344 Z M 60.539062 74.382812 " clip-rule="nonzero"/></clipPath><clipPath id="7754c61aa4"><path d="M 135.675781 72.5 L 154.988281 72.5 L 154.988281 91.652344 L 135.675781 91.652344 Z M 135.675781 72.5 " clip-rule="nonzero"/></clipPath><clipPath id="1200ae6d2d"><path d="M 36.28125 74.382812 L 53.59375 74.382812 L 53.59375 91.652344 L 36.28125 91.652344 Z M 36.28125 74.382812 " clip-rule="nonzero"/></clipPath></defs><g clip-path="url(#d21419f727)"><path fill="#ffffff" d="M 0.460938 0 L 179.539062 0 L 179.539062 194.003906 L 0.460938 194.003906 Z M 0.460938 0 " fill-opacity="1" fill-rule="nonzero"/><path fill="#ffffff" d="M 0.460938 0 L 179.539062 0 L 179.539062 194.003906 L 0.460938 194.003906 Z M 0.460938 0 " fill-opacity="1" fill-rule="nonzero"/></g><g clip-path="url(#0b7510c83e)"><path fill="#000000" d="M 119.144531 61.910156 L 18.382812 61.910156 L 18.382812 65.539062 L 119.144531 65.539062 L 119.144531 61.910156 " fill-opacity="1" fill-rule="nonzero"/></g><path fill="#ffffff" d="M 138.699219 59.449219 C 138.601562 59.40625 138.488281 59.382812 138.375 59.382812 L 134.742188 59.382812 C 134.628906 59.382812 134.515625 59.40625 134.417969 59.449219 C 134.316406 59.492188 134.230469 59.550781 134.152344 59.628906 C 134.003906 59.777344 133.910156 59.984375 133.910156 60.214844 C 133.910156 60.671875 134.28125 61.046875 134.742188 61.046875 L 138.375 61.046875 C 138.835938 61.046875 139.207031 60.671875 139.207031 60.214844 C 139.207031 59.984375 139.117188 59.777344 138.964844 59.628906 C 138.890625 59.550781 138.800781 59.492188 138.699219 59.449219 " fill-opacity="1" fill-rule="nonzero"/><path fill="#000000" d="M 132.847656 58.023438 L 155.542969 58.023438 C 155.640625 58.023438 155.726562 58.003906 155.804688 57.96875 C 155.726562 58.003906 155.640625 58.023438 155.542969 58.023438 L 132.847656 58.023438 " fill-opacity="1" fill-rule="nonzero"/><g clip-path="url(#5f9b528008)"><path fill="#000000" d="M 156.003906 57.828125 C 155.976562 57.855469 155.945312 57.882812 155.914062 57.90625 C 155.878906 57.929688 155.84375 57.953125 155.804688 57.96875 C 155.726562 58.003906 155.640625 58.023438 155.542969 58.023438 L 132.847656 58.023438 L 132.847656 44.261719 L 146.75 44.261719 C 146.828125 44.261719 146.90625 44.277344 146.976562 44.304688 C 147 44.3125 147.023438 44.324219 147.042969 44.335938 C 147.089844 44.359375 147.132812 44.386719 147.167969 44.421875 C 147.179688 44.429688 147.1875 44.4375 147.199219 44.445312 C 147.207031 44.457031 147.214844 44.464844 147.222656 44.472656 C 147.242188 44.492188 147.257812 44.511719 147.273438 44.53125 L 156.066406 57.019531 C 156.097656 57.0625 156.121094 57.109375 156.136719 57.152344 C 156.144531 57.167969 156.148438 57.183594 156.15625 57.199219 C 156.226562 57.425781 156.160156 57.664062 156.003906 57.828125 Z M 138.375 61.046875 L 134.742188 61.046875 C 134.28125 61.046875 133.910156 60.671875 133.910156 60.214844 C 133.910156 59.984375 134 59.777344 134.152344 59.628906 L 134.152344 59.625 C 134.226562 59.550781 134.316406 59.488281 134.417969 59.449219 C 134.515625 59.40625 134.625 59.382812 134.742188 59.382812 L 138.375 59.382812 C 138.488281 59.382812 138.601562 59.40625 138.699219 59.449219 C 138.800781 59.492188 138.890625 59.550781 138.964844 59.628906 C 139.117188 59.777344 139.207031 59.984375 139.207031 60.214844 C 139.207031 60.671875 138.835938 61.046875 138.375 61.046875 Z M 131.941406 58.023438 L 129.699219 58.023438 C 129.347656 58.023438 129.0625 57.738281 129.0625 57.386719 C 129.066406 54.679688 129.082031 44.261719 129.214844 44.261719 L 131.941406 44.261719 Z M 159.195312 75.257812 L 159.195312 57.71875 C 159.195312 57.71875 148.140625 42.75 148.59375 42.296875 L 126.792969 42.296875 L 126.792969 67.664062 L 124.589844 67.664062 L 124.589844 43.507812 L 123.886719 43.507812 L 123.886719 39.6875 L 120.027344 35.835938 C 119.839844 35.644531 119.53125 35.644531 119.34375 35.835938 L 118.664062 36.515625 C 118.476562 36.703125 118.476562 37.007812 118.664062 37.195312 L 121.957031 40.488281 L 121.957031 43.507812 L 121.257812 43.507812 L 121.257812 67.664062 L 21.710938 67.664062 L 21.710938 76.738281 L 18.382812 76.738281 L 18.382812 79.761719 L 34.347656 79.761719 C 34.113281 80.652344 33.984375 81.585938 33.984375 82.550781 C 33.984375 82.742188 33.992188 82.929688 34 83.121094 L 35.367188 83.121094 C 35.355469 82.929688 35.347656 82.742188 35.347656 82.550781 C 35.347656 81.578125 35.496094 80.640625 35.765625 79.761719 C 36.957031 75.882812 40.570312 73.066406 44.84375 73.066406 C 49.117188 73.066406 52.730469 75.882812 53.921875 79.761719 C 54.195312 80.640625 54.339844 81.578125 54.339844 82.550781 C 54.339844 82.742188 54.335938 82.929688 54.324219 83.121094 L 55.6875 83.121094 C 55.699219 82.929688 55.703125 82.742188 55.703125 82.550781 C 55.703125 81.585938 55.578125 80.652344 55.339844 79.761719 L 58.875 79.761719 C 58.640625 80.652344 58.515625 81.585938 58.515625 82.550781 C 58.515625 82.742188 58.519531 82.929688 58.53125 83.121094 L 59.894531 83.121094 C 59.882812 82.929688 59.875 82.742188 59.875 82.550781 C 59.875 81.578125 60.023438 80.640625 60.292969 79.761719 C 61.488281 75.882812 65.101562 73.066406 69.375 73.066406 C 73.648438 73.066406 77.261719 75.882812 78.453125 79.761719 C 78.722656 80.640625 78.871094 81.578125 78.871094 82.550781 C 78.871094 82.742188 78.863281 82.929688 78.851562 83.121094 L 80.21875 83.121094 C 80.226562 82.929688 80.234375 82.742188 80.234375 82.550781 C 80.234375 81.585938 80.105469 80.652344 79.871094 79.761719 L 126.792969 79.761719 L 126.792969 79.792969 L 133.039062 79.792969 L 133.039062 82.136719 L 134.144531 82.136719 C 134.089844 81.691406 134.058594 81.238281 134.058594 80.777344 C 134.058594 80.445312 134.078125 80.117188 134.105469 79.792969 C 134.140625 79.375 134.203125 78.960938 134.285156 78.558594 C 135.3125 73.609375 139.703125 69.890625 144.960938 69.890625 C 150.222656 69.890625 154.609375 73.609375 155.636719 78.558594 C 155.71875 78.960938 155.78125 79.375 155.820312 79.792969 C 155.847656 80.117188 155.863281 80.445312 155.863281 80.777344 C 155.863281 81.238281 155.835938 81.691406 155.777344 82.136719 L 156.886719 82.136719 L 156.886719 79.792969 L 161.617188 79.792969 L 161.617188 75.257812 L 159.195312 75.257812 " fill-opacity="1" fill-rule="nonzero"/></g><g clip-path="url(#2e27069f21)"><path fill="#000000" d="M 69.222656 74.425781 C 64.480469 74.425781 60.632812 78.265625 60.632812 83.003906 C 60.632812 87.738281 64.480469 91.578125 69.222656 91.578125 C 73.964844 91.578125 77.8125 87.738281 77.8125 83.003906 C 77.8125 78.265625 73.964844 74.425781 69.222656 74.425781 " fill-opacity="1" fill-rule="nonzero"/></g><path fill="#ffffff" d="M 69.222656 77.867188 C 66.382812 77.867188 64.078125 80.167969 64.078125 83.003906 C 64.078125 85.839844 66.382812 88.140625 69.222656 88.140625 C 72.0625 88.140625 74.367188 85.839844 74.367188 83.003906 C 74.367188 80.167969 72.0625 77.867188 69.222656 77.867188 " fill-opacity="1" fill-rule="nonzero"/><path fill="#000000" d="M 69.222656 77.925781 C 66.417969 77.925781 64.136719 80.203125 64.136719 83.003906 C 64.136719 85.800781 66.417969 88.082031 69.222656 88.082031 C 72.027344 88.082031 74.308594 85.800781 74.308594 83.003906 C 74.308594 80.203125 72.027344 77.925781 69.222656 77.925781 Z M 69.222656 88.199219 C 66.351562 88.199219 64.019531 85.867188 64.019531 83.003906 C 64.019531 80.136719 66.351562 77.808594 69.222656 77.808594 C 72.089844 77.808594 74.425781 80.136719 74.425781 83.003906 C 74.425781 85.867188 72.089844 88.199219 69.222656 88.199219 " fill-opacity="1" fill-rule="nonzero"/><path fill="#000000" d="M 69.222656 79.90625 C 67.511719 79.90625 66.121094 81.292969 66.121094 83.003906 C 66.121094 84.710938 67.511719 86.097656 69.222656 86.097656 C 70.933594 86.097656 72.320312 84.710938 72.320312 83.003906 C 72.320312 81.292969 70.933594 79.90625 69.222656 79.90625 " fill-opacity="1" fill-rule="nonzero"/><g clip-path="url(#7754c61aa4)"><path fill="#000000" d="M 145.308594 72.535156 C 140.019531 72.535156 135.734375 76.816406 135.734375 82.09375 C 135.734375 87.375 140.019531 91.652344 145.308594 91.652344 C 150.59375 91.652344 154.878906 87.375 154.878906 82.09375 C 154.878906 76.816406 150.59375 72.535156 145.308594 72.535156 " fill-opacity="1" fill-rule="nonzero"/></g><path fill="#ffffff" d="M 145.308594 76.371094 C 142.140625 76.371094 139.574219 78.933594 139.574219 82.09375 C 139.574219 85.257812 142.140625 87.820312 145.308594 87.820312 C 148.472656 87.820312 151.039062 85.257812 151.039062 82.09375 C 151.039062 78.933594 148.472656 76.371094 145.308594 76.371094 " fill-opacity="1" fill-rule="nonzero"/><path fill="#000000" d="M 145.308594 76.429688 C 142.179688 76.429688 139.632812 78.972656 139.632812 82.09375 C 139.632812 85.21875 142.179688 87.761719 145.308594 87.761719 C 148.4375 87.761719 150.980469 85.21875 150.980469 82.09375 C 150.980469 78.972656 148.4375 76.429688 145.308594 76.429688 Z M 145.308594 87.878906 C 142.113281 87.878906 139.515625 85.285156 139.515625 82.09375 C 139.515625 78.90625 142.113281 76.3125 145.308594 76.3125 C 148.5 76.3125 151.097656 78.90625 151.097656 82.09375 C 151.097656 85.285156 148.5 87.878906 145.308594 87.878906 " fill-opacity="1" fill-rule="nonzero"/><path fill="#000000" d="M 145.308594 78.644531 C 143.398438 78.644531 141.851562 80.191406 141.851562 82.09375 C 141.851562 84 143.398438 85.546875 145.308594 85.546875 C 147.214844 85.546875 148.761719 84 148.761719 82.09375 C 148.761719 80.191406 147.214844 78.644531 145.308594 78.644531 " fill-opacity="1" fill-rule="nonzero"/><g clip-path="url(#1200ae6d2d)"><path fill="#000000" d="M 44.921875 74.425781 C 40.175781 74.425781 36.332031 78.265625 36.332031 83.003906 C 36.332031 87.738281 40.175781 91.578125 44.921875 91.578125 C 49.664062 91.578125 53.507812 87.738281 53.507812 83.003906 C 53.507812 78.265625 49.664062 74.425781 44.921875 74.425781 " fill-opacity="1" fill-rule="nonzero"/></g><path fill="#ffffff" d="M 44.921875 77.867188 C 42.078125 77.867188 39.777344 80.167969 39.777344 83.003906 C 39.777344 85.839844 42.078125 88.140625 44.921875 88.140625 C 47.761719 88.140625 50.0625 85.839844 50.0625 83.003906 C 50.0625 80.167969 47.761719 77.867188 44.921875 77.867188 " fill-opacity="1" fill-rule="nonzero"/><path fill="#000000" d="M 44.921875 77.925781 C 42.117188 77.925781 39.835938 80.203125 39.835938 83.003906 C 39.835938 85.800781 42.117188 88.082031 44.921875 88.082031 C 47.722656 88.082031 50.003906 85.800781 50.003906 83.003906 C 50.003906 80.203125 47.722656 77.925781 44.921875 77.925781 Z M 44.921875 88.199219 C 42.050781 88.199219 39.71875 85.867188 39.71875 83.003906 C 39.71875 80.136719 42.050781 77.808594 44.921875 77.808594 C 47.789062 77.808594 50.125 80.136719 50.125 83.003906 C 50.125 85.867188 47.789062 88.199219 44.921875 88.199219 " fill-opacity="1" fill-rule="nonzero"/><path fill="#000000" d="M 44.921875 79.90625 C 43.207031 79.90625 41.820312 81.292969 41.820312 83.003906 C 41.820312 84.710938 43.207031 86.097656 44.921875 86.097656 C 46.632812 86.097656 48.019531 84.710938 48.019531 83.003906 C 48.019531 81.292969 46.632812 79.90625 44.921875 79.90625 " fill-opacity="1" fill-rule="nonzero"/><g fill="#000000" fill-opacity="1"><g transform="translate(26.528618, 119.974965)"><g><path d="M 0.5625 -6.96875 L 1.625 -6.96875 L 1.546875 -4.203125 L 0.640625 -4.203125 Z M 2.484375 -6.96875 L 3.546875 -6.96875 L 3.46875 -4.203125 L 2.5625 -4.203125 Z M 2.484375 -6.96875 "/></g></g></g><g fill="#000000" fill-opacity="1"><g transform="translate(30.635931, 119.974965)"><g><path d="M 6.15625 -1.078125 L 6.15625 0 L 0.9375 0 L 0.9375 -6.96875 L 6.015625 -6.96875 L 6.015625 -5.875 L 2.234375 -5.875 L 2.234375 -4.078125 L 5.59375 -4.078125 L 5.59375 -3 L 2.234375 -3 L 2.234375 -1.078125 Z M 6.15625 -1.078125 "/></g></g></g><g fill="#000000" fill-opacity="1"><g transform="translate(37.299117, 119.974965)"><g><path d="M 3.828125 -5.375 C 4.503906 -5.375 5.039062 -5.175781 5.4375 -4.78125 C 5.84375 -4.394531 6.046875 -3.816406 6.046875 -3.046875 L 6.046875 0 L 4.8125 0 L 4.8125 -2.890625 C 4.8125 -3.347656 4.703125 -3.695312 4.484375 -3.9375 C 4.265625 -4.175781 3.953125 -4.296875 3.546875 -4.296875 C 3.085938 -4.296875 2.722656 -4.15625 2.453125 -3.875 C 2.191406 -3.601562 2.0625 -3.207031 2.0625 -2.6875 L 2.0625 0 L 0.8125 0 L 0.8125 -5.3125 L 2 -5.3125 L 2 -4.625 C 2.207031 -4.875 2.46875 -5.0625 2.78125 -5.1875 C 3.09375 -5.3125 3.441406 -5.375 3.828125 -5.375 Z M 3.828125 -5.375 "/></g></g></g><g fill="#000000" fill-opacity="1"><g transform="translate(44.11148, 119.974965)"><g><path d="M 4.015625 -0.28125 C 3.867188 -0.164062 3.691406 -0.078125 3.484375 -0.015625 C 3.273438 0.0351562 3.050781 0.0625 2.8125 0.0625 C 2.226562 0.0625 1.773438 -0.0859375 1.453125 -0.390625 C 1.140625 -0.691406 0.984375 -1.132812 0.984375 -1.71875 L 0.984375 -4.28125 L 0.109375 -4.28125 L 0.109375 -5.28125 L 0.984375 -5.28125 L 0.984375 -6.484375 L 2.234375 -6.484375 L 2.234375 -5.28125 L 3.65625 -5.28125 L 3.65625 -4.28125 L 2.234375 -4.28125 L 2.234375 -1.75 C 2.234375 -1.488281 2.296875 -1.289062 2.421875 -1.15625 C 2.546875 -1.019531 2.726562 -0.953125 2.96875 -0.953125 C 3.25 -0.953125 3.476562 -1.023438 3.65625 -1.171875 Z M 4.015625 -0.28125 "/></g></g></g><g fill="#000000" fill-opacity="1"><g transform="translate(48.328186, 119.974965)"><g><path d="M 2 -4.53125 C 2.351562 -5.09375 2.984375 -5.375 3.890625 -5.375 L 3.890625 -4.1875 C 3.785156 -4.207031 3.691406 -4.21875 3.609375 -4.21875 C 3.117188 -4.21875 2.738281 -4.078125 2.46875 -3.796875 C 2.195312 -3.515625 2.0625 -3.109375 2.0625 -2.578125 L 2.0625 0 L 0.8125 0 L 0.8125 -5.3125 L 2 -5.3125 Z M 2 -4.53125 "/></g></g></g><g fill="#000000" fill-opacity="1"><g transform="translate(52.505111, 119.974965)"><g><path d="M 5.8125 -2.625 C 5.8125 -2.539062 5.804688 -2.421875 5.796875 -2.265625 L 1.625 -2.265625 C 1.695312 -1.867188 1.882812 -1.554688 2.1875 -1.328125 C 2.5 -1.097656 2.882812 -0.984375 3.34375 -0.984375 C 3.925781 -0.984375 4.40625 -1.175781 4.78125 -1.5625 L 5.453125 -0.796875 C 5.210938 -0.515625 4.910156 -0.300781 4.546875 -0.15625 C 4.179688 -0.0078125 3.769531 0.0625 3.3125 0.0625 C 2.726562 0.0625 2.210938 -0.0507812 1.765625 -0.28125 C 1.328125 -0.507812 0.984375 -0.832031 0.734375 -1.25 C 0.492188 -1.664062 0.375 -2.132812 0.375 -2.65625 C 0.375 -3.175781 0.488281 -3.640625 0.71875 -4.046875 C 0.957031 -4.460938 1.285156 -4.785156 1.703125 -5.015625 C 2.128906 -5.253906 2.601562 -5.375 3.125 -5.375 C 3.644531 -5.375 4.109375 -5.257812 4.515625 -5.03125 C 4.921875 -4.800781 5.238281 -4.476562 5.46875 -4.0625 C 5.695312 -3.644531 5.8125 -3.164062 5.8125 -2.625 Z M 3.125 -4.375 C 2.726562 -4.375 2.390625 -4.253906 2.109375 -4.015625 C 1.835938 -3.785156 1.671875 -3.472656 1.609375 -3.078125 L 4.625 -3.078125 C 4.570312 -3.460938 4.410156 -3.773438 4.140625 -4.015625 C 3.867188 -4.253906 3.53125 -4.375 3.125 -4.375 Z M 3.125 -4.375 "/></g></g></g><g fill="#000000" fill-opacity="1"><g transform="translate(58.690941, 119.974965)"><g><path d="M 6.09375 -5.3125 L 6.09375 -0.8125 C 6.09375 1.0625 5.132812 2 3.21875 2 C 2.707031 2 2.222656 1.929688 1.765625 1.796875 C 1.304688 1.671875 0.929688 1.488281 0.640625 1.25 L 1.1875 0.3125 C 1.425781 0.5 1.722656 0.648438 2.078125 0.765625 C 2.429688 0.890625 2.789062 0.953125 3.15625 0.953125 C 3.738281 0.953125 4.164062 0.816406 4.4375 0.546875 C 4.707031 0.285156 4.84375 -0.117188 4.84375 -0.671875 L 4.84375 -0.953125 C 4.632812 -0.710938 4.375 -0.53125 4.0625 -0.40625 C 3.757812 -0.289062 3.425781 -0.234375 3.0625 -0.234375 C 2.5625 -0.234375 2.101562 -0.34375 1.6875 -0.5625 C 1.28125 -0.78125 0.957031 -1.082031 0.71875 -1.46875 C 0.488281 -1.863281 0.375 -2.3125 0.375 -2.8125 C 0.375 -3.320312 0.488281 -3.769531 0.71875 -4.15625 C 0.957031 -4.539062 1.28125 -4.835938 1.6875 -5.046875 C 2.101562 -5.265625 2.5625 -5.375 3.0625 -5.375 C 3.445312 -5.375 3.796875 -5.3125 4.109375 -5.1875 C 4.429688 -5.0625 4.695312 -4.867188 4.90625 -4.609375 L 4.90625 -5.3125 Z M 3.25 -1.296875 C 3.726562 -1.296875 4.113281 -1.4375 4.40625 -1.71875 C 4.707031 -2 4.859375 -2.363281 4.859375 -2.8125 C 4.859375 -3.257812 4.707031 -3.617188 4.40625 -3.890625 C 4.113281 -4.171875 3.726562 -4.3125 3.25 -4.3125 C 2.769531 -4.3125 2.378906 -4.171875 2.078125 -3.890625 C 1.773438 -3.617188 1.625 -3.257812 1.625 -2.8125 C 1.625 -2.363281 1.773438 -2 2.078125 -1.71875 C 2.378906 -1.4375 2.769531 -1.296875 3.25 -1.296875 Z M 3.25 -1.296875 "/></g></g></g><g fill="#000000" fill-opacity="1"><g transform="translate(65.592806, 119.974965)"><g><path d="M 2.84375 -5.375 C 3.625 -5.375 4.222656 -5.1875 4.640625 -4.8125 C 5.054688 -4.4375 5.265625 -3.867188 5.265625 -3.109375 L 5.265625 0 L 4.09375 0 L 4.09375 -0.640625 C 3.9375 -0.410156 3.71875 -0.234375 3.4375 -0.109375 C 3.15625 0.00390625 2.816406 0.0625 2.421875 0.0625 C 2.023438 0.0625 1.675781 -0.00390625 1.375 -0.140625 C 1.070312 -0.273438 0.835938 -0.460938 0.671875 -0.703125 C 0.515625 -0.941406 0.4375 -1.210938 0.4375 -1.515625 C 0.4375 -1.992188 0.613281 -2.378906 0.96875 -2.671875 C 1.320312 -2.960938 1.878906 -3.109375 2.640625 -3.109375 L 4.015625 -3.109375 L 4.015625 -3.1875 C 4.015625 -3.5625 3.90625 -3.847656 3.6875 -4.046875 C 3.46875 -4.242188 3.140625 -4.34375 2.703125 -4.34375 C 2.398438 -4.34375 2.101562 -4.296875 1.8125 -4.203125 C 1.53125 -4.109375 1.285156 -3.976562 1.078125 -3.8125 L 0.59375 -4.71875 C 0.875 -4.925781 1.207031 -5.085938 1.59375 -5.203125 C 1.988281 -5.316406 2.40625 -5.375 2.84375 -5.375 Z M 2.671875 -0.84375 C 2.984375 -0.84375 3.257812 -0.910156 3.5 -1.046875 C 3.75 -1.191406 3.921875 -1.394531 4.015625 -1.65625 L 4.015625 -2.28125 L 2.734375 -2.28125 C 2.015625 -2.28125 1.65625 -2.046875 1.65625 -1.578125 C 1.65625 -1.347656 1.742188 -1.164062 1.921875 -1.03125 C 2.109375 -0.90625 2.359375 -0.84375 2.671875 -0.84375 Z M 2.671875 -0.84375 "/></g></g></g><g fill="#000000" fill-opacity="1"><g transform="translate(71.62946, 119.974965)"><g><path d="M 7.53125 -5.375 C 8.195312 -5.375 8.722656 -5.175781 9.109375 -4.78125 C 9.503906 -4.394531 9.703125 -3.816406 9.703125 -3.046875 L 9.703125 0 L 8.453125 0 L 8.453125 -2.890625 C 8.453125 -3.347656 8.347656 -3.695312 8.140625 -3.9375 C 7.941406 -4.175781 7.648438 -4.296875 7.265625 -4.296875 C 6.847656 -4.296875 6.507812 -4.15625 6.25 -3.875 C 6 -3.601562 5.875 -3.210938 5.875 -2.703125 L 5.875 0 L 4.640625 0 L 4.640625 -2.890625 C 4.640625 -3.347656 4.535156 -3.695312 4.328125 -3.9375 C 4.117188 -4.175781 3.820312 -4.296875 3.4375 -4.296875 C 3.019531 -4.296875 2.6875 -4.15625 2.4375 -3.875 C 2.1875 -3.601562 2.0625 -3.210938 2.0625 -2.703125 L 2.0625 0 L 0.8125 0 L 0.8125 -5.3125 L 2 -5.3125 L 2 -4.640625 C 2.195312 -4.878906 2.441406 -5.0625 2.734375 -5.1875 C 3.035156 -5.3125 3.375 -5.375 3.75 -5.375 C 4.144531 -5.375 4.492188 -5.296875 4.796875 -5.140625 C 5.109375 -4.992188 5.351562 -4.773438 5.53125 -4.484375 C 5.75 -4.765625 6.03125 -4.984375 6.375 -5.140625 C 6.71875 -5.296875 7.101562 -5.375 7.53125 -5.375 Z M 7.53125 -5.375 "/></g></g></g><g fill="#000000" fill-opacity="1"><g transform="translate(82.101609, 119.974965)"><g><path d="M 3.203125 0.0625 C 2.671875 0.0625 2.1875 -0.0507812 1.75 -0.28125 C 1.320312 -0.507812 0.984375 -0.832031 0.734375 -1.25 C 0.492188 -1.664062 0.375 -2.132812 0.375 -2.65625 C 0.375 -3.175781 0.492188 -3.640625 0.734375 -4.046875 C 0.984375 -4.460938 1.320312 -4.785156 1.75 -5.015625 C 2.1875 -5.253906 2.671875 -5.375 3.203125 -5.375 C 3.742188 -5.375 4.226562 -5.253906 4.65625 -5.015625 C 5.09375 -4.785156 5.429688 -4.460938 5.671875 -4.046875 C 5.921875 -3.640625 6.046875 -3.175781 6.046875 -2.65625 C 6.046875 -2.132812 5.921875 -1.664062 5.671875 -1.25 C 5.429688 -0.832031 5.09375 -0.507812 4.65625 -0.28125 C 4.226562 -0.0507812 3.742188 0.0625 3.203125 0.0625 Z M 3.203125 -1 C 3.660156 -1 4.035156 -1.148438 4.328125 -1.453125 C 4.628906 -1.753906 4.78125 -2.15625 4.78125 -2.65625 C 4.78125 -3.15625 4.628906 -3.554688 4.328125 -3.859375 C 4.035156 -4.160156 3.660156 -4.3125 3.203125 -4.3125 C 2.742188 -4.3125 2.363281 -4.160156 2.0625 -3.859375 C 1.769531 -3.554688 1.625 -3.15625 1.625 -2.65625 C 1.625 -2.15625 1.769531 -1.753906 2.0625 -1.453125 C 2.363281 -1.148438 2.742188 -1 3.203125 -1 Z M 3.203125 -1 "/></g></g></g><g fill="#000000" fill-opacity="1"><g transform="translate(88.516166, 119.974965)"><g><path d="M 2.453125 0.0625 C 2.023438 0.0625 1.601562 0.0078125 1.1875 -0.09375 C 0.78125 -0.207031 0.453125 -0.351562 0.203125 -0.53125 L 0.6875 -1.46875 C 0.925781 -1.3125 1.210938 -1.1875 1.546875 -1.09375 C 1.878906 -1 2.207031 -0.953125 2.53125 -0.953125 C 3.28125 -0.953125 3.65625 -1.144531 3.65625 -1.53125 C 3.65625 -1.71875 3.554688 -1.847656 3.359375 -1.921875 C 3.171875 -1.992188 2.867188 -2.0625 2.453125 -2.125 C 2.015625 -2.195312 1.65625 -2.273438 1.375 -2.359375 C 1.101562 -2.441406 0.867188 -2.59375 0.671875 -2.8125 C 0.472656 -3.03125 0.375 -3.332031 0.375 -3.71875 C 0.375 -4.21875 0.582031 -4.617188 1 -4.921875 C 1.414062 -5.222656 1.984375 -5.375 2.703125 -5.375 C 3.066406 -5.375 3.429688 -5.332031 3.796875 -5.25 C 4.160156 -5.164062 4.460938 -5.054688 4.703125 -4.921875 L 4.21875 -3.96875 C 3.769531 -4.238281 3.265625 -4.375 2.703125 -4.375 C 2.335938 -4.375 2.054688 -4.316406 1.859375 -4.203125 C 1.671875 -4.097656 1.578125 -3.953125 1.578125 -3.765625 C 1.578125 -3.566406 1.675781 -3.425781 1.875 -3.34375 C 2.082031 -3.257812 2.398438 -3.179688 2.828125 -3.109375 C 3.253906 -3.046875 3.601562 -2.96875 3.875 -2.875 C 4.144531 -2.789062 4.375 -2.644531 4.5625 -2.4375 C 4.757812 -2.238281 4.859375 -1.953125 4.859375 -1.578125 C 4.859375 -1.078125 4.644531 -0.675781 4.21875 -0.375 C 3.789062 -0.0820312 3.203125 0.0625 2.453125 0.0625 Z M 2.453125 0.0625 "/></g></g></g><g fill="#000000" fill-opacity="1"><g transform="translate(93.637865, 119.974965)"><g/></g></g><g fill="#000000" fill-opacity="1"><g transform="translate(96.382696, 119.974965)"><g><path d="M 2.84375 -5.375 C 3.625 -5.375 4.222656 -5.1875 4.640625 -4.8125 C 5.054688 -4.4375 5.265625 -3.867188 5.265625 -3.109375 L 5.265625 0 L 4.09375 0 L 4.09375 -0.640625 C 3.9375 -0.410156 3.71875 -0.234375 3.4375 -0.109375 C 3.15625 0.00390625 2.816406 0.0625 2.421875 0.0625 C 2.023438 0.0625 1.675781 -0.00390625 1.375 -0.140625 C 1.070312 -0.273438 0.835938 -0.460938 0.671875 -0.703125 C 0.515625 -0.941406 0.4375 -1.210938 0.4375 -1.515625 C 0.4375 -1.992188 0.613281 -2.378906 0.96875 -2.671875 C 1.320312 -2.960938 1.878906 -3.109375 2.640625 -3.109375 L 4.015625 -3.109375 L 4.015625 -3.1875 C 4.015625 -3.5625 3.90625 -3.847656 3.6875 -4.046875 C 3.46875 -4.242188 3.140625 -4.34375 2.703125 -4.34375 C 2.398438 -4.34375 2.101562 -4.296875 1.8125 -4.203125 C 1.53125 -4.109375 1.285156 -3.976562 1.078125 -3.8125 L 0.59375 -4.71875 C 0.875 -4.925781 1.207031 -5.085938 1.59375 -5.203125 C 1.988281 -5.316406 2.40625 -5.375 2.84375 -5.375 Z M 2.671875 -0.84375 C 2.984375 -0.84375 3.257812 -0.910156 3.5 -1.046875 C 3.75 -1.191406 3.921875 -1.394531 4.015625 -1.65625 L 4.015625 -2.28125 L 2.734375 -2.28125 C 2.015625 -2.28125 1.65625 -2.046875 1.65625 -1.578125 C 1.65625 -1.347656 1.742188 -1.164062 1.921875 -1.03125 C 2.109375 -0.90625 2.359375 -0.84375 2.671875 -0.84375 Z M 2.671875 -0.84375 "/></g></g></g><g fill="#000000" fill-opacity="1"><g transform="translate(102.41935, 119.974965)"><g/></g></g><g fill="#000000" fill-opacity="1"><g transform="translate(105.164182, 119.974965)"><g><path d="M 3.25 0.0625 C 2.695312 0.0625 2.203125 -0.0507812 1.765625 -0.28125 C 1.328125 -0.507812 0.984375 -0.832031 0.734375 -1.25 C 0.492188 -1.664062 0.375 -2.132812 0.375 -2.65625 C 0.375 -3.175781 0.492188 -3.640625 0.734375 -4.046875 C 0.984375 -4.460938 1.328125 -4.785156 1.765625 -5.015625 C 2.203125 -5.253906 2.695312 -5.375 3.25 -5.375 C 3.78125 -5.375 4.238281 -5.265625 4.625 -5.046875 C 5.019531 -4.835938 5.320312 -4.535156 5.53125 -4.140625 L 4.5625 -3.578125 C 4.414062 -3.828125 4.226562 -4.007812 4 -4.125 C 3.769531 -4.25 3.519531 -4.3125 3.25 -4.3125 C 2.78125 -4.3125 2.390625 -4.160156 2.078125 -3.859375 C 1.773438 -3.554688 1.625 -3.15625 1.625 -2.65625 C 1.625 -2.15625 1.773438 -1.753906 2.078125 -1.453125 C 2.378906 -1.148438 2.769531 -1 3.25 -1 C 3.519531 -1 3.769531 -1.054688 4 -1.171875 C 4.226562 -1.296875 4.414062 -1.484375 4.5625 -1.734375 L 5.53125 -1.171875 C 5.320312 -0.773438 5.019531 -0.46875 4.625 -0.25 C 4.226562 -0.0390625 3.769531 0.0625 3.25 0.0625 Z M 3.25 0.0625 "/></g></g></g><g fill="#000000" fill-opacity="1"><g transform="translate(110.942255, 119.974965)"><g><path d="M 5.96875 -5.3125 L 5.96875 0 L 4.78125 0 L 4.78125 -0.671875 C 4.582031 -0.429688 4.332031 -0.25 4.03125 -0.125 C 3.726562 0 3.40625 0.0625 3.0625 0.0625 C 2.351562 0.0625 1.796875 -0.128906 1.390625 -0.515625 C 0.984375 -0.910156 0.78125 -1.5 0.78125 -2.28125 L 0.78125 -5.3125 L 2.015625 -5.3125 L 2.015625 -2.453125 C 2.015625 -1.972656 2.125 -1.613281 2.34375 -1.375 C 2.5625 -1.144531 2.867188 -1.03125 3.265625 -1.03125 C 3.710938 -1.03125 4.066406 -1.164062 4.328125 -1.4375 C 4.585938 -1.707031 4.71875 -2.101562 4.71875 -2.625 L 4.71875 -5.3125 Z M 5.96875 -5.3125 "/></g></g></g><g fill="#000000" fill-opacity="1"><g transform="translate(117.714836, 119.974965)"><g><path d="M 2.84375 -5.375 C 3.625 -5.375 4.222656 -5.1875 4.640625 -4.8125 C 5.054688 -4.4375 5.265625 -3.867188 5.265625 -3.109375 L 5.265625 0 L 4.09375 0 L 4.09375 -0.640625 C 3.9375 -0.410156 3.71875 -0.234375 3.4375 -0.109375 C 3.15625 0.00390625 2.816406 0.0625 2.421875 0.0625 C 2.023438 0.0625 1.675781 -0.00390625 1.375 -0.140625 C 1.070312 -0.273438 0.835938 -0.460938 0.671875 -0.703125 C 0.515625 -0.941406 0.4375 -1.210938 0.4375 -1.515625 C 0.4375 -1.992188 0.613281 -2.378906 0.96875 -2.671875 C 1.320312 -2.960938 1.878906 -3.109375 2.640625 -3.109375 L 4.015625 -3.109375 L 4.015625 -3.1875 C 4.015625 -3.5625 3.90625 -3.847656 3.6875 -4.046875 C 3.46875 -4.242188 3.140625 -4.34375 2.703125 -4.34375 C 2.398438 -4.34375 2.101562 -4.296875 1.8125 -4.203125 C 1.53125 -4.109375 1.285156 -3.976562 1.078125 -3.8125 L 0.59375 -4.71875 C 0.875 -4.925781 1.207031 -5.085938 1.59375 -5.203125 C 1.988281 -5.316406 2.40625 -5.375 2.84375 -5.375 Z M 2.671875 -0.84375 C 2.984375 -0.84375 3.257812 -0.910156 3.5 -1.046875 C 3.75 -1.191406 3.921875 -1.394531 4.015625 -1.65625 L 4.015625 -2.28125 L 2.734375 -2.28125 C 2.015625 -2.28125 1.65625 -2.046875 1.65625 -1.578125 C 1.65625 -1.347656 1.742188 -1.164062 1.921875 -1.03125 C 2.109375 -0.90625 2.359375 -0.84375 2.671875 -0.84375 Z M 2.671875 -0.84375 "/></g></g></g><g fill="#000000" fill-opacity="1"><g transform="translate(123.75149, 119.974965)"><g><path d="M 0.8125 -7.390625 L 2.0625 -7.390625 L 2.0625 0 L 0.8125 0 Z M 0.8125 -7.390625 "/></g></g></g><g fill="#000000" fill-opacity="1"><g transform="translate(126.625606, 119.974965)"><g><path d="M 6.015625 -5.3125 L 6.015625 1.9375 L 4.765625 1.9375 L 4.765625 -0.640625 C 4.347656 -0.171875 3.78125 0.0625 3.0625 0.0625 C 2.550781 0.0625 2.085938 -0.046875 1.671875 -0.265625 C 1.265625 -0.492188 0.945312 -0.8125 0.71875 -1.21875 C 0.488281 -1.632812 0.375 -2.113281 0.375 -2.65625 C 0.375 -3.195312 0.488281 -3.671875 0.71875 -4.078125 C 0.957031 -4.492188 1.28125 -4.8125 1.6875 -5.03125 C 2.09375 -5.257812 2.550781 -5.375 3.0625 -5.375 C 3.425781 -5.375 3.757812 -5.3125 4.0625 -5.1875 C 4.363281 -5.0625 4.617188 -4.875 4.828125 -4.625 L 4.828125 -5.3125 Z M 3.203125 -1 C 3.660156 -1 4.035156 -1.148438 4.328125 -1.453125 C 4.628906 -1.753906 4.78125 -2.15625 4.78125 -2.65625 C 4.78125 -3.15625 4.628906 -3.554688 4.328125 -3.859375 C 4.035156 -4.160156 3.660156 -4.3125 3.203125 -4.3125 C 2.742188 -4.3125 2.363281 -4.160156 2.0625 -3.859375 C 1.769531 -3.554688 1.625 -3.15625 1.625 -2.65625 C 1.625 -2.15625 1.769531 -1.753906 2.0625 -1.453125 C 2.363281 -1.148438 2.742188 -1 3.203125 -1 Z M 3.203125 -1 "/></g></g></g><g fill="#000000" fill-opacity="1"><g transform="translate(133.447919, 119.974965)"><g><path d="M 5.96875 -5.3125 L 5.96875 0 L 4.78125 0 L 4.78125 -0.671875 C 4.582031 -0.429688 4.332031 -0.25 4.03125 -0.125 C 3.726562 0 3.40625 0.0625 3.0625 0.0625 C 2.351562 0.0625 1.796875 -0.128906 1.390625 -0.515625 C 0.984375 -0.910156 0.78125 -1.5 0.78125 -2.28125 L 0.78125 -5.3125 L 2.015625 -5.3125 L 2.015625 -2.453125 C 2.015625 -1.972656 2.125 -1.613281 2.34375 -1.375 C 2.5625 -1.144531 2.867188 -1.03125 3.265625 -1.03125 C 3.710938 -1.03125 4.066406 -1.164062 4.328125 -1.4375 C 4.585938 -1.707031 4.71875 -2.101562 4.71875 -2.625 L 4.71875 -5.3125 Z M 5.96875 -5.3125 "/></g></g></g><g fill="#000000" fill-opacity="1"><g transform="translate(140.2205, 119.974965)"><g><path d="M 0.8125 -5.3125 L 2.0625 -5.3125 L 2.0625 0 L 0.8125 0 Z M 1.4375 -6.1875 C 1.207031 -6.1875 1.015625 -6.257812 0.859375 -6.40625 C 0.710938 -6.550781 0.640625 -6.726562 0.640625 -6.9375 C 0.640625 -7.144531 0.710938 -7.320312 0.859375 -7.46875 C 1.015625 -7.613281 1.207031 -7.6875 1.4375 -7.6875 C 1.664062 -7.6875 1.851562 -7.617188 2 -7.484375 C 2.15625 -7.347656 2.234375 -7.175781 2.234375 -6.96875 C 2.234375 -6.75 2.15625 -6.5625 2 -6.40625 C 1.851562 -6.257812 1.664062 -6.1875 1.4375 -6.1875 Z M 1.4375 -6.1875 "/></g></g></g><g fill="#000000" fill-opacity="1"><g transform="translate(143.094616, 119.974965)"><g><path d="M 5.8125 -2.625 C 5.8125 -2.539062 5.804688 -2.421875 5.796875 -2.265625 L 1.625 -2.265625 C 1.695312 -1.867188 1.882812 -1.554688 2.1875 -1.328125 C 2.5 -1.097656 2.882812 -0.984375 3.34375 -0.984375 C 3.925781 -0.984375 4.40625 -1.175781 4.78125 -1.5625 L 5.453125 -0.796875 C 5.210938 -0.515625 4.910156 -0.300781 4.546875 -0.15625 C 4.179688 -0.0078125 3.769531 0.0625 3.3125 0.0625 C 2.726562 0.0625 2.210938 -0.0507812 1.765625 -0.28125 C 1.328125 -0.507812 0.984375 -0.832031 0.734375 -1.25 C 0.492188 -1.664062 0.375 -2.132812 0.375 -2.65625 C 0.375 -3.175781 0.488281 -3.640625 0.71875 -4.046875 C 0.957031 -4.460938 1.285156 -4.785156 1.703125 -5.015625 C 2.128906 -5.253906 2.601562 -5.375 3.125 -5.375 C 3.644531 -5.375 4.109375 -5.257812 4.515625 -5.03125 C 4.921875 -4.800781 5.238281 -4.476562 5.46875 -4.0625 C 5.695312 -3.644531 5.8125 -3.164062 5.8125 -2.625 Z M 3.125 -4.375 C 2.726562 -4.375 2.390625 -4.253906 2.109375 -4.015625 C 1.835938 -3.785156 1.671875 -3.472656 1.609375 -3.078125 L 4.625 -3.078125 C 4.570312 -3.460938 4.410156 -3.773438 4.140625 -4.015625 C 3.867188 -4.253906 3.53125 -4.375 3.125 -4.375 Z M 3.125 -4.375 "/></g></g></g><g fill="#000000" fill-opacity="1"><g transform="translate(149.280445, 119.974965)"><g><path d="M 2 -4.53125 C 2.351562 -5.09375 2.984375 -5.375 3.890625 -5.375 L 3.890625 -4.1875 C 3.785156 -4.207031 3.691406 -4.21875 3.609375 -4.21875 C 3.117188 -4.21875 2.738281 -4.078125 2.46875 -3.796875 C 2.195312 -3.515625 2.0625 -3.109375 2.0625 -2.578125 L 2.0625 0 L 0.8125 0 L 0.8125 -5.3125 L 2 -5.3125 Z M 2 -4.53125 "/></g></g></g><g fill="#000000" fill-opacity="1"><g transform="translate(22.821069, 133.406087)"><g><path d="M 0.8125 -7.390625 L 2.0625 -7.390625 L 2.0625 0 L 0.8125 0 Z M 0.8125 -7.390625 "/></g></g></g><g fill="#000000" fill-opacity="1"><g transform="translate(25.695184, 133.406087)"><g><path d="M 5.96875 -5.3125 L 5.96875 0 L 4.78125 0 L 4.78125 -0.671875 C 4.582031 -0.429688 4.332031 -0.25 4.03125 -0.125 C 3.726562 0 3.40625 0.0625 3.0625 0.0625 C 2.351562 0.0625 1.796875 -0.128906 1.390625 -0.515625 C 0.984375 -0.910156 0.78125 -1.5 0.78125 -2.28125 L 0.78125 -5.3125 L 2.015625 -5.3125 L 2.015625 -2.453125 C 2.015625 -1.972656 2.125 -1.613281 2.34375 -1.375 C 2.5625 -1.144531 2.867188 -1.03125 3.265625 -1.03125 C 3.710938 -1.03125 4.066406 -1.164062 4.328125 -1.4375 C 4.585938 -1.707031 4.71875 -2.101562 4.71875 -2.625 L 4.71875 -5.3125 Z M 5.96875 -5.3125 "/></g></g></g><g fill="#000000" fill-opacity="1"><g transform="translate(32.467765, 133.406087)"><g><path d="M 6.09375 -5.3125 L 6.09375 -0.8125 C 6.09375 1.0625 5.132812 2 3.21875 2 C 2.707031 2 2.222656 1.929688 1.765625 1.796875 C 1.304688 1.671875 0.929688 1.488281 0.640625 1.25 L 1.1875 0.3125 C 1.425781 0.5 1.722656 0.648438 2.078125 0.765625 C 2.429688 0.890625 2.789062 0.953125 3.15625 0.953125 C 3.738281 0.953125 4.164062 0.816406 4.4375 0.546875 C 4.707031 0.285156 4.84375 -0.117188 4.84375 -0.671875 L 4.84375 -0.953125 C 4.632812 -0.710938 4.375 -0.53125 4.0625 -0.40625 C 3.757812 -0.289062 3.425781 -0.234375 3.0625 -0.234375 C 2.5625 -0.234375 2.101562 -0.34375 1.6875 -0.5625 C 1.28125 -0.78125 0.957031 -1.082031 0.71875 -1.46875 C 0.488281 -1.863281 0.375 -2.3125 0.375 -2.8125 C 0.375 -3.320312 0.488281 -3.769531 0.71875 -4.15625 C 0.957031 -4.539062 1.28125 -4.835938 1.6875 -5.046875 C 2.101562 -5.265625 2.5625 -5.375 3.0625 -5.375 C 3.445312 -5.375 3.796875 -5.3125 4.109375 -5.1875 C 4.429688 -5.0625 4.695312 -4.867188 4.90625 -4.609375 L 4.90625 -5.3125 Z M 3.25 -1.296875 C 3.726562 -1.296875 4.113281 -1.4375 4.40625 -1.71875 C 4.707031 -2 4.859375 -2.363281 4.859375 -2.8125 C 4.859375 -3.257812 4.707031 -3.617188 4.40625 -3.890625 C 4.113281 -4.171875 3.726562 -4.3125 3.25 -4.3125 C 2.769531 -4.3125 2.378906 -4.171875 2.078125 -3.890625 C 1.773438 -3.617188 1.625 -3.257812 1.625 -2.8125 C 1.625 -2.363281 1.773438 -2 2.078125 -1.71875 C 2.378906 -1.4375 2.769531 -1.296875 3.25 -1.296875 Z M 3.25 -1.296875 "/></g></g></g><g fill="#000000" fill-opacity="1"><g transform="translate(39.36963, 133.406087)"><g><path d="M 2.84375 -5.375 C 3.625 -5.375 4.222656 -5.1875 4.640625 -4.8125 C 5.054688 -4.4375 5.265625 -3.867188 5.265625 -3.109375 L 5.265625 0 L 4.09375 0 L 4.09375 -0.640625 C 3.9375 -0.410156 3.71875 -0.234375 3.4375 -0.109375 C 3.15625 0.00390625 2.816406 0.0625 2.421875 0.0625 C 2.023438 0.0625 1.675781 -0.00390625 1.375 -0.140625 C 1.070312 -0.273438 0.835938 -0.460938 0.671875 -0.703125 C 0.515625 -0.941406 0.4375 -1.210938 0.4375 -1.515625 C 0.4375 -1.992188 0.613281 -2.378906 0.96875 -2.671875 C 1.320312 -2.960938 1.878906 -3.109375 2.640625 -3.109375 L 4.015625 -3.109375 L 4.015625 -3.1875 C 4.015625 -3.5625 3.90625 -3.847656 3.6875 -4.046875 C 3.46875 -4.242188 3.140625 -4.34375 2.703125 -4.34375 C 2.398438 -4.34375 2.101562 -4.296875 1.8125 -4.203125 C 1.53125 -4.109375 1.285156 -3.976562 1.078125 -3.8125 L 0.59375 -4.71875 C 0.875 -4.925781 1.207031 -5.085938 1.59375 -5.203125 C 1.988281 -5.316406 2.40625 -5.375 2.84375 -5.375 Z M 2.671875 -0.84375 C 2.984375 -0.84375 3.257812 -0.910156 3.5 -1.046875 C 3.75 -1.191406 3.921875 -1.394531 4.015625 -1.65625 L 4.015625 -2.28125 L 2.734375 -2.28125 C 2.015625 -2.28125 1.65625 -2.046875 1.65625 -1.578125 C 1.65625 -1.347656 1.742188 -1.164062 1.921875 -1.03125 C 2.109375 -0.90625 2.359375 -0.84375 2.671875 -0.84375 Z M 2.671875 -0.84375 "/></g></g></g><g fill="#000000" fill-opacity="1"><g transform="translate(45.406284, 133.406087)"><g><path d="M 2 -4.53125 C 2.351562 -5.09375 2.984375 -5.375 3.890625 -5.375 L 3.890625 -4.1875 C 3.785156 -4.207031 3.691406 -4.21875 3.609375 -4.21875 C 3.117188 -4.21875 2.738281 -4.078125 2.46875 -3.796875 C 2.195312 -3.515625 2.0625 -3.109375 2.0625 -2.578125 L 2.0625 0 L 0.8125 0 L 0.8125 -5.3125 L 2 -5.3125 Z M 2 -4.53125 "/></g></g></g><g fill="#000000" fill-opacity="1"><g transform="translate(49.583209, 133.406087)"><g/></g></g><g fill="#000000" fill-opacity="1"><g transform="translate(52.328041, 133.406087)"><g><path d="M 6.015625 -5.3125 L 6.015625 1.9375 L 4.765625 1.9375 L 4.765625 -0.640625 C 4.347656 -0.171875 3.78125 0.0625 3.0625 0.0625 C 2.550781 0.0625 2.085938 -0.046875 1.671875 -0.265625 C 1.265625 -0.492188 0.945312 -0.8125 0.71875 -1.21875 C 0.488281 -1.632812 0.375 -2.113281 0.375 -2.65625 C 0.375 -3.195312 0.488281 -3.671875 0.71875 -4.078125 C 0.957031 -4.492188 1.28125 -4.8125 1.6875 -5.03125 C 2.09375 -5.257812 2.550781 -5.375 3.0625 -5.375 C 3.425781 -5.375 3.757812 -5.3125 4.0625 -5.1875 C 4.363281 -5.0625 4.617188 -4.875 4.828125 -4.625 L 4.828125 -5.3125 Z M 3.203125 -1 C 3.660156 -1 4.035156 -1.148438 4.328125 -1.453125 C 4.628906 -1.753906 4.78125 -2.15625 4.78125 -2.65625 C 4.78125 -3.15625 4.628906 -3.554688 4.328125 -3.859375 C 4.035156 -4.160156 3.660156 -4.3125 3.203125 -4.3125 C 2.742188 -4.3125 2.363281 -4.160156 2.0625 -3.859375 C 1.769531 -3.554688 1.625 -3.15625 1.625 -2.65625 C 1.625 -2.15625 1.769531 -1.753906 2.0625 -1.453125 C 2.363281 -1.148438 2.742188 -1 3.203125 -1 Z M 3.203125 -1 "/></g></g></g><g fill="#000000" fill-opacity="1"><g transform="translate(59.150354, 133.406087)"><g><path d="M 5.96875 -5.3125 L 5.96875 0 L 4.78125 0 L 4.78125 -0.671875 C 4.582031 -0.429688 4.332031 -0.25 4.03125 -0.125 C 3.726562 0 3.40625 0.0625 3.0625 0.0625 C 2.351562 0.0625 1.796875 -0.128906 1.390625 -0.515625 C 0.984375 -0.910156 0.78125 -1.5 0.78125 -2.28125 L 0.78125 -5.3125 L 2.015625 -5.3125 L 2.015625 -2.453125 C 2.015625 -1.972656 2.125 -1.613281 2.34375 -1.375 C 2.5625 -1.144531 2.867188 -1.03125 3.265625 -1.03125 C 3.710938 -1.03125 4.066406 -1.164062 4.328125 -1.4375 C 4.585938 -1.707031 4.71875 -2.101562 4.71875 -2.625 L 4.71875 -5.3125 Z M 5.96875 -5.3125 "/></g></g></g><g fill="#000000" fill-opacity="1"><g transform="translate(65.922934, 133.406087)"><g><path d="M 5.8125 -2.625 C 5.8125 -2.539062 5.804688 -2.421875 5.796875 -2.265625 L 1.625 -2.265625 C 1.695312 -1.867188 1.882812 -1.554688 2.1875 -1.328125 C 2.5 -1.097656 2.882812 -0.984375 3.34375 -0.984375 C 3.925781 -0.984375 4.40625 -1.175781 4.78125 -1.5625 L 5.453125 -0.796875 C 5.210938 -0.515625 4.910156 -0.300781 4.546875 -0.15625 C 4.179688 -0.0078125 3.769531 0.0625 3.3125 0.0625 C 2.726562 0.0625 2.210938 -0.0507812 1.765625 -0.28125 C 1.328125 -0.507812 0.984375 -0.832031 0.734375 -1.25 C 0.492188 -1.664062 0.375 -2.132812 0.375 -2.65625 C 0.375 -3.175781 0.488281 -3.640625 0.71875 -4.046875 C 0.957031 -4.460938 1.285156 -4.785156 1.703125 -5.015625 C 2.128906 -5.253906 2.601562 -5.375 3.125 -5.375 C 3.644531 -5.375 4.109375 -5.257812 4.515625 -5.03125 C 4.921875 -4.800781 5.238281 -4.476562 5.46875 -4.0625 C 5.695312 -3.644531 5.8125 -3.164062 5.8125 -2.625 Z M 3.125 -4.375 C 2.726562 -4.375 2.390625 -4.253906 2.109375 -4.015625 C 1.835938 -3.785156 1.671875 -3.472656 1.609375 -3.078125 L 4.625 -3.078125 C 4.570312 -3.460938 4.410156 -3.773438 4.140625 -4.015625 C 3.867188 -4.253906 3.53125 -4.375 3.125 -4.375 Z M 3.125 -4.375 "/></g></g></g><g fill="#000000" fill-opacity="1"><g transform="translate(72.108764, 133.406087)"><g/></g></g><g fill="#000000" fill-opacity="1"><g transform="translate(74.853595, 133.406087)"><g><path d="M 3.828125 -5.375 C 4.503906 -5.375 5.039062 -5.175781 5.4375 -4.78125 C 5.84375 -4.394531 6.046875 -3.816406 6.046875 -3.046875 L 6.046875 0 L 4.8125 0 L 4.8125 -2.890625 C 4.8125 -3.347656 4.703125 -3.695312 4.484375 -3.9375 C 4.265625 -4.175781 3.953125 -4.296875 3.546875 -4.296875 C 3.085938 -4.296875 2.722656 -4.15625 2.453125 -3.875 C 2.191406 -3.601562 2.0625 -3.207031 2.0625 -2.6875 L 2.0625 0 L 0.8125 0 L 0.8125 -5.3125 L 2 -5.3125 L 2 -4.625 C 2.207031 -4.875 2.46875 -5.0625 2.78125 -5.1875 C 3.09375 -5.3125 3.441406 -5.375 3.828125 -5.375 Z M 3.828125 -5.375 "/></g></g></g><g fill="#000000" fill-opacity="1"><g transform="translate(81.665958, 133.406087)"><g><path d="M 5.8125 -2.625 C 5.8125 -2.539062 5.804688 -2.421875 5.796875 -2.265625 L 1.625 -2.265625 C 1.695312 -1.867188 1.882812 -1.554688 2.1875 -1.328125 C 2.5 -1.097656 2.882812 -0.984375 3.34375 -0.984375 C 3.925781 -0.984375 4.40625 -1.175781 4.78125 -1.5625 L 5.453125 -0.796875 C 5.210938 -0.515625 4.910156 -0.300781 4.546875 -0.15625 C 4.179688 -0.0078125 3.769531 0.0625 3.3125 0.0625 C 2.726562 0.0625 2.210938 -0.0507812 1.765625 -0.28125 C 1.328125 -0.507812 0.984375 -0.832031 0.734375 -1.25 C 0.492188 -1.664062 0.375 -2.132812 0.375 -2.65625 C 0.375 -3.175781 0.488281 -3.640625 0.71875 -4.046875 C 0.957031 -4.460938 1.285156 -4.785156 1.703125 -5.015625 C 2.128906 -5.253906 2.601562 -5.375 3.125 -5.375 C 3.644531 -5.375 4.109375 -5.257812 4.515625 -5.03125 C 4.921875 -4.800781 5.238281 -4.476562 5.46875 -4.0625 C 5.695312 -3.644531 5.8125 -3.164062 5.8125 -2.625 Z M 3.125 -4.375 C 2.726562 -4.375 2.390625 -4.253906 2.109375 -4.015625 C 1.835938 -3.785156 1.671875 -3.472656 1.609375 -3.078125 L 4.625 -3.078125 C 4.570312 -3.460938 4.410156 -3.773438 4.140625 -4.015625 C 3.867188 -4.253906 3.53125 -4.375 3.125 -4.375 Z M 3.125 -4.375 "/></g></g></g><g fill="#000000" fill-opacity="1"><g transform="translate(87.851787, 133.406087)"><g><path d="M 2.453125 0.0625 C 2.023438 0.0625 1.601562 0.0078125 1.1875 -0.09375 C 0.78125 -0.207031 0.453125 -0.351562 0.203125 -0.53125 L 0.6875 -1.46875 C 0.925781 -1.3125 1.210938 -1.1875 1.546875 -1.09375 C 1.878906 -1 2.207031 -0.953125 2.53125 -0.953125 C 3.28125 -0.953125 3.65625 -1.144531 3.65625 -1.53125 C 3.65625 -1.71875 3.554688 -1.847656 3.359375 -1.921875 C 3.171875 -1.992188 2.867188 -2.0625 2.453125 -2.125 C 2.015625 -2.195312 1.65625 -2.273438 1.375 -2.359375 C 1.101562 -2.441406 0.867188 -2.59375 0.671875 -2.8125 C 0.472656 -3.03125 0.375 -3.332031 0.375 -3.71875 C 0.375 -4.21875 0.582031 -4.617188 1 -4.921875 C 1.414062 -5.222656 1.984375 -5.375 2.703125 -5.375 C 3.066406 -5.375 3.429688 -5.332031 3.796875 -5.25 C 4.160156 -5.164062 4.460938 -5.054688 4.703125 -4.921875 L 4.21875 -3.96875 C 3.769531 -4.238281 3.265625 -4.375 2.703125 -4.375 C 2.335938 -4.375 2.054688 -4.316406 1.859375 -4.203125 C 1.671875 -4.097656 1.578125 -3.953125 1.578125 -3.765625 C 1.578125 -3.566406 1.675781 -3.425781 1.875 -3.34375 C 2.082031 -3.257812 2.398438 -3.179688 2.828125 -3.109375 C 3.253906 -3.046875 3.601562 -2.96875 3.875 -2.875 C 4.144531 -2.789062 4.375 -2.644531 4.5625 -2.4375 C 4.757812 -2.238281 4.859375 -1.953125 4.859375 -1.578125 C 4.859375 -1.078125 4.644531 -0.675781 4.21875 -0.375 C 3.789062 -0.0820312 3.203125 0.0625 2.453125 0.0625 Z M 2.453125 0.0625 "/></g></g></g><g fill="#000000" fill-opacity="1"><g transform="translate(92.973486, 133.406087)"><g><path d="M 5.8125 -2.625 C 5.8125 -2.539062 5.804688 -2.421875 5.796875 -2.265625 L 1.625 -2.265625 C 1.695312 -1.867188 1.882812 -1.554688 2.1875 -1.328125 C 2.5 -1.097656 2.882812 -0.984375 3.34375 -0.984375 C 3.925781 -0.984375 4.40625 -1.175781 4.78125 -1.5625 L 5.453125 -0.796875 C 5.210938 -0.515625 4.910156 -0.300781 4.546875 -0.15625 C 4.179688 -0.0078125 3.769531 0.0625 3.3125 0.0625 C 2.726562 0.0625 2.210938 -0.0507812 1.765625 -0.28125 C 1.328125 -0.507812 0.984375 -0.832031 0.734375 -1.25 C 0.492188 -1.664062 0.375 -2.132812 0.375 -2.65625 C 0.375 -3.175781 0.488281 -3.640625 0.71875 -4.046875 C 0.957031 -4.460938 1.285156 -4.785156 1.703125 -5.015625 C 2.128906 -5.253906 2.601562 -5.375 3.125 -5.375 C 3.644531 -5.375 4.109375 -5.257812 4.515625 -5.03125 C 4.921875 -4.800781 5.238281 -4.476562 5.46875 -4.0625 C 5.695312 -3.644531 5.8125 -3.164062 5.8125 -2.625 Z M 3.125 -4.375 C 2.726562 -4.375 2.390625 -4.253906 2.109375 -4.015625 C 1.835938 -3.785156 1.671875 -3.472656 1.609375 -3.078125 L 4.625 -3.078125 C 4.570312 -3.460938 4.410156 -3.773438 4.140625 -4.015625 C 3.867188 -4.253906 3.53125 -4.375 3.125 -4.375 Z M 3.125 -4.375 "/></g></g></g><g fill="#000000" fill-opacity="1"><g transform="translate(99.159316, 133.406087)"><g><path d="M 3.25 0.0625 C 2.695312 0.0625 2.203125 -0.0507812 1.765625 -0.28125 C 1.328125 -0.507812 0.984375 -0.832031 0.734375 -1.25 C 0.492188 -1.664062 0.375 -2.132812 0.375 -2.65625 C 0.375 -3.175781 0.492188 -3.640625 0.734375 -4.046875 C 0.984375 -4.460938 1.328125 -4.785156 1.765625 -5.015625 C 2.203125 -5.253906 2.695312 -5.375 3.25 -5.375 C 3.78125 -5.375 4.238281 -5.265625 4.625 -5.046875 C 5.019531 -4.835938 5.320312 -4.535156 5.53125 -4.140625 L 4.5625 -3.578125 C 4.414062 -3.828125 4.226562 -4.007812 4 -4.125 C 3.769531 -4.25 3.519531 -4.3125 3.25 -4.3125 C 2.78125 -4.3125 2.390625 -4.160156 2.078125 -3.859375 C 1.773438 -3.554688 1.625 -3.15625 1.625 -2.65625 C 1.625 -2.15625 1.773438 -1.753906 2.078125 -1.453125 C 2.378906 -1.148438 2.769531 -1 3.25 -1 C 3.519531 -1 3.769531 -1.054688 4 -1.171875 C 4.226562 -1.296875 4.414062 -1.484375 4.5625 -1.734375 L 5.53125 -1.171875 C 5.320312 -0.773438 5.019531 -0.46875 4.625 -0.25 C 4.226562 -0.0390625 3.769531 0.0625 3.25 0.0625 Z M 3.25 0.0625 "/></g></g></g><g fill="#000000" fill-opacity="1"><g transform="translate(104.93739, 133.406087)"><g><path d="M 0.8125 -5.3125 L 2.0625 -5.3125 L 2.0625 0 L 0.8125 0 Z M 1.4375 -6.1875 C 1.207031 -6.1875 1.015625 -6.257812 0.859375 -6.40625 C 0.710938 -6.550781 0.640625 -6.726562 0.640625 -6.9375 C 0.640625 -7.144531 0.710938 -7.320312 0.859375 -7.46875 C 1.015625 -7.613281 1.207031 -7.6875 1.4375 -7.6875 C 1.664062 -7.6875 1.851562 -7.617188 2 -7.484375 C 2.15625 -7.347656 2.234375 -7.175781 2.234375 -6.96875 C 2.234375 -6.75 2.15625 -6.5625 2 -6.40625 C 1.851562 -6.257812 1.664062 -6.1875 1.4375 -6.1875 Z M 1.4375 -6.1875 "/></g></g></g><g fill="#000000" fill-opacity="1"><g transform="translate(107.811506, 133.406087)"><g><path d="M 4.015625 -0.28125 C 3.867188 -0.164062 3.691406 -0.078125 3.484375 -0.015625 C 3.273438 0.0351562 3.050781 0.0625 2.8125 0.0625 C 2.226562 0.0625 1.773438 -0.0859375 1.453125 -0.390625 C 1.140625 -0.691406 0.984375 -1.132812 0.984375 -1.71875 L 0.984375 -4.28125 L 0.109375 -4.28125 L 0.109375 -5.28125 L 0.984375 -5.28125 L 0.984375 -6.484375 L 2.234375 -6.484375 L 2.234375 -5.28125 L 3.65625 -5.28125 L 3.65625 -4.28125 L 2.234375 -4.28125 L 2.234375 -1.75 C 2.234375 -1.488281 2.296875 -1.289062 2.421875 -1.15625 C 2.546875 -1.019531 2.726562 -0.953125 2.96875 -0.953125 C 3.25 -0.953125 3.476562 -1.023438 3.65625 -1.171875 Z M 4.015625 -0.28125 "/></g></g></g><g fill="#000000" fill-opacity="1"><g transform="translate(112.028212, 133.406087)"><g><path d="M 5.8125 -2.625 C 5.8125 -2.539062 5.804688 -2.421875 5.796875 -2.265625 L 1.625 -2.265625 C 1.695312 -1.867188 1.882812 -1.554688 2.1875 -1.328125 C 2.5 -1.097656 2.882812 -0.984375 3.34375 -0.984375 C 3.925781 -0.984375 4.40625 -1.175781 4.78125 -1.5625 L 5.453125 -0.796875 C 5.210938 -0.515625 4.910156 -0.300781 4.546875 -0.15625 C 4.179688 -0.0078125 3.769531 0.0625 3.3125 0.0625 C 2.726562 0.0625 2.210938 -0.0507812 1.765625 -0.28125 C 1.328125 -0.507812 0.984375 -0.832031 0.734375 -1.25 C 0.492188 -1.664062 0.375 -2.132812 0.375 -2.65625 C 0.375 -3.175781 0.488281 -3.640625 0.71875 -4.046875 C 0.957031 -4.460938 1.285156 -4.785156 1.703125 -5.015625 C 2.128906 -5.253906 2.601562 -5.375 3.125 -5.375 C 3.644531 -5.375 4.109375 -5.257812 4.515625 -5.03125 C 4.921875 -4.800781 5.238281 -4.476562 5.46875 -4.0625 C 5.695312 -3.644531 5.8125 -3.164062 5.8125 -2.625 Z M 3.125 -4.375 C 2.726562 -4.375 2.390625 -4.253906 2.109375 -4.015625 C 1.835938 -3.785156 1.671875 -3.472656 1.609375 -3.078125 L 4.625 -3.078125 C 4.570312 -3.460938 4.410156 -3.773438 4.140625 -4.015625 C 3.867188 -4.253906 3.53125 -4.375 3.125 -4.375 Z M 3.125 -4.375 "/></g></g></g><g fill="#000000" fill-opacity="1"><g transform="translate(118.214042, 133.406087)"><g><path d="M 2.453125 0.0625 C 2.023438 0.0625 1.601562 0.0078125 1.1875 -0.09375 C 0.78125 -0.207031 0.453125 -0.351562 0.203125 -0.53125 L 0.6875 -1.46875 C 0.925781 -1.3125 1.210938 -1.1875 1.546875 -1.09375 C 1.878906 -1 2.207031 -0.953125 2.53125 -0.953125 C 3.28125 -0.953125 3.65625 -1.144531 3.65625 -1.53125 C 3.65625 -1.71875 3.554688 -1.847656 3.359375 -1.921875 C 3.171875 -1.992188 2.867188 -2.0625 2.453125 -2.125 C 2.015625 -2.195312 1.65625 -2.273438 1.375 -2.359375 C 1.101562 -2.441406 0.867188 -2.59375 0.671875 -2.8125 C 0.472656 -3.03125 0.375 -3.332031 0.375 -3.71875 C 0.375 -4.21875 0.582031 -4.617188 1 -4.921875 C 1.414062 -5.222656 1.984375 -5.375 2.703125 -5.375 C 3.066406 -5.375 3.429688 -5.332031 3.796875 -5.25 C 4.160156 -5.164062 4.460938 -5.054688 4.703125 -4.921875 L 4.21875 -3.96875 C 3.769531 -4.238281 3.265625 -4.375 2.703125 -4.375 C 2.335938 -4.375 2.054688 -4.316406 1.859375 -4.203125 C 1.671875 -4.097656 1.578125 -3.953125 1.578125 -3.765625 C 1.578125 -3.566406 1.675781 -3.425781 1.875 -3.34375 C 2.082031 -3.257812 2.398438 -3.179688 2.828125 -3.109375 C 3.253906 -3.046875 3.601562 -2.96875 3.875 -2.875 C 4.144531 -2.789062 4.375 -2.644531 4.5625 -2.4375 C 4.757812 -2.238281 4.859375 -1.953125 4.859375 -1.578125 C 4.859375 -1.078125 4.644531 -0.675781 4.21875 -0.375 C 3.789062 -0.0820312 3.203125 0.0625 2.453125 0.0625 Z M 2.453125 0.0625 "/></g></g></g><g fill="#000000" fill-opacity="1"><g transform="translate(123.335741, 133.406087)"><g><path d="M 1.21875 0.0625 C 0.988281 0.0625 0.789062 -0.0078125 0.625 -0.15625 C 0.46875 -0.3125 0.390625 -0.507812 0.390625 -0.75 C 0.390625 -1 0.46875 -1.195312 0.625 -1.34375 C 0.78125 -1.5 0.976562 -1.578125 1.21875 -1.578125 C 1.445312 -1.578125 1.640625 -1.5 1.796875 -1.34375 C 1.953125 -1.195312 2.03125 -1 2.03125 -0.75 C 2.03125 -0.507812 1.945312 -0.3125 1.78125 -0.15625 C 1.625 -0.0078125 1.4375 0.0625 1.21875 0.0625 Z M 1.21875 0.0625 "/></g></g></g><g fill="#000000" fill-opacity="1"><g transform="translate(125.76233, 133.406087)"><g/></g></g><g fill="#000000" fill-opacity="1"><g transform="translate(128.507162, 133.406087)"><g><path d="M 1.390625 -5.375 C 1.617188 -5.375 1.804688 -5.296875 1.953125 -5.140625 C 2.109375 -4.992188 2.1875 -4.8125 2.1875 -4.59375 C 2.1875 -4.382812 2.109375 -4.207031 1.953125 -4.0625 C 1.804688 -3.914062 1.617188 -3.84375 1.390625 -3.84375 C 1.160156 -3.84375 0.96875 -3.914062 0.8125 -4.0625 C 0.664062 -4.207031 0.59375 -4.382812 0.59375 -4.59375 C 0.59375 -4.8125 0.664062 -4.992188 0.8125 -5.140625 C 0.96875 -5.296875 1.160156 -5.375 1.390625 -5.375 Z M 2.125 1.53125 L 0.65625 1.53125 L 0.890625 -3 L 1.875 -3 Z M 2.125 1.53125 "/></g></g></g><g fill="#000000" fill-opacity="1"><g transform="translate(131.271884, 133.406087)"><g><path d="M 2.34375 -5.875 L 0.046875 -5.875 L 0.046875 -6.96875 L 5.953125 -6.96875 L 5.953125 -5.875 L 3.640625 -5.875 L 3.640625 0 L 2.34375 0 Z M 2.34375 -5.875 "/></g></g></g><g fill="#000000" fill-opacity="1"><g transform="translate(137.258805, 133.406087)"><g><path d="M 5.96875 -5.3125 L 5.96875 0 L 4.78125 0 L 4.78125 -0.671875 C 4.582031 -0.429688 4.332031 -0.25 4.03125 -0.125 C 3.726562 0 3.40625 0.0625 3.0625 0.0625 C 2.351562 0.0625 1.796875 -0.128906 1.390625 -0.515625 C 0.984375 -0.910156 0.78125 -1.5 0.78125 -2.28125 L 0.78125 -5.3125 L 2.015625 -5.3125 L 2.015625 -2.453125 C 2.015625 -1.972656 2.125 -1.613281 2.34375 -1.375 C 2.5625 -1.144531 2.867188 -1.03125 3.265625 -1.03125 C 3.710938 -1.03125 4.066406 -1.164062 4.328125 -1.4375 C 4.585938 -1.707031 4.71875 -2.101562 4.71875 -2.625 L 4.71875 -5.3125 Z M 3.859375 -7.40625 L 5.328125 -7.40625 L 3.59375 -6.046875 L 2.515625 -6.046875 Z M 3.859375 -7.40625 "/></g></g></g><g fill="#000000" fill-opacity="1"><g transform="translate(144.031386, 133.406087)"><g/></g></g><g fill="#000000" fill-opacity="1"><g transform="translate(146.776217, 133.406087)"><g><path d="M 4.015625 -0.28125 C 3.867188 -0.164062 3.691406 -0.078125 3.484375 -0.015625 C 3.273438 0.0351562 3.050781 0.0625 2.8125 0.0625 C 2.226562 0.0625 1.773438 -0.0859375 1.453125 -0.390625 C 1.140625 -0.691406 0.984375 -1.132812 0.984375 -1.71875 L 0.984375 -4.28125 L 0.109375 -4.28125 L 0.109375 -5.28125 L 0.984375 -5.28125 L 0.984375 -6.484375 L 2.234375 -6.484375 L 2.234375 -5.28125 L 3.65625 -5.28125 L 3.65625 -4.28125 L 2.234375 -4.28125 L 2.234375 -1.75 C 2.234375 -1.488281 2.296875 -1.289062 2.421875 -1.15625 C 2.546875 -1.019531 2.726562 -0.953125 2.96875 -0.953125 C 3.25 -0.953125 3.476562 -1.023438 3.65625 -1.171875 Z M 4.015625 -0.28125 "/></g></g></g><g fill="#000000" fill-opacity="1"><g transform="translate(150.992923, 133.406087)"><g><path d="M 5.8125 -2.625 C 5.8125 -2.539062 5.804688 -2.421875 5.796875 -2.265625 L 1.625 -2.265625 C 1.695312 -1.867188 1.882812 -1.554688 2.1875 -1.328125 C 2.5 -1.097656 2.882812 -0.984375 3.34375 -0.984375 C 3.925781 -0.984375 4.40625 -1.175781 4.78125 -1.5625 L 5.453125 -0.796875 C 5.210938 -0.515625 4.910156 -0.300781 4.546875 -0.15625 C 4.179688 -0.0078125 3.769531 0.0625 3.3125 0.0625 C 2.726562 0.0625 2.210938 -0.0507812 1.765625 -0.28125 C 1.328125 -0.507812 0.984375 -0.832031 0.734375 -1.25 C 0.492188 -1.664062 0.375 -2.132812 0.375 -2.65625 C 0.375 -3.175781 0.488281 -3.640625 0.71875 -4.046875 C 0.957031 -4.460938 1.285156 -4.785156 1.703125 -5.015625 C 2.128906 -5.253906 2.601562 -5.375 3.125 -5.375 C 3.644531 -5.375 4.109375 -5.257812 4.515625 -5.03125 C 4.921875 -4.800781 5.238281 -4.476562 5.46875 -4.0625 C 5.695312 -3.644531 5.8125 -3.164062 5.8125 -2.625 Z M 3.125 -4.375 C 2.726562 -4.375 2.390625 -4.253906 2.109375 -4.015625 C 1.835938 -3.785156 1.671875 -3.472656 1.609375 -3.078125 L 4.625 -3.078125 C 4.570312 -3.460938 4.410156 -3.773438 4.140625 -4.015625 C 3.867188 -4.253906 3.53125 -4.375 3.125 -4.375 Z M 3.125 -4.375 "/></g></g></g><g fill="#000000" fill-opacity="1"><g transform="translate(27.554606, 146.837208)"><g><path d="M 5.8125 -2.625 C 5.8125 -2.539062 5.804688 -2.421875 5.796875 -2.265625 L 1.625 -2.265625 C 1.695312 -1.867188 1.882812 -1.554688 2.1875 -1.328125 C 2.5 -1.097656 2.882812 -0.984375 3.34375 -0.984375 C 3.925781 -0.984375 4.40625 -1.175781 4.78125 -1.5625 L 5.453125 -0.796875 C 5.210938 -0.515625 4.910156 -0.300781 4.546875 -0.15625 C 4.179688 -0.0078125 3.769531 0.0625 3.3125 0.0625 C 2.726562 0.0625 2.210938 -0.0507812 1.765625 -0.28125 C 1.328125 -0.507812 0.984375 -0.832031 0.734375 -1.25 C 0.492188 -1.664062 0.375 -2.132812 0.375 -2.65625 C 0.375 -3.175781 0.488281 -3.640625 0.71875 -4.046875 C 0.957031 -4.460938 1.285156 -4.785156 1.703125 -5.015625 C 2.128906 -5.253906 2.601562 -5.375 3.125 -5.375 C 3.644531 -5.375 4.109375 -5.257812 4.515625 -5.03125 C 4.921875 -4.800781 5.238281 -4.476562 5.46875 -4.0625 C 5.695312 -3.644531 5.8125 -3.164062 5.8125 -2.625 Z M 3.125 -4.375 C 2.726562 -4.375 2.390625 -4.253906 2.109375 -4.015625 C 1.835938 -3.785156 1.671875 -3.472656 1.609375 -3.078125 L 4.625 -3.078125 C 4.570312 -3.460938 4.410156 -3.773438 4.140625 -4.015625 C 3.867188 -4.253906 3.53125 -4.375 3.125 -4.375 Z M 3.125 -4.375 "/></g></g></g><g fill="#000000" fill-opacity="1"><g transform="translate(33.740436, 146.837208)"><g><path d="M 3.828125 -5.375 C 4.503906 -5.375 5.039062 -5.175781 5.4375 -4.78125 C 5.84375 -4.394531 6.046875 -3.816406 6.046875 -3.046875 L 6.046875 0 L 4.8125 0 L 4.8125 -2.890625 C 4.8125 -3.347656 4.703125 -3.695312 4.484375 -3.9375 C 4.265625 -4.175781 3.953125 -4.296875 3.546875 -4.296875 C 3.085938 -4.296875 2.722656 -4.15625 2.453125 -3.875 C 2.191406 -3.601562 2.0625 -3.207031 2.0625 -2.6875 L 2.0625 0 L 0.8125 0 L 0.8125 -5.3125 L 2 -5.3125 L 2 -4.625 C 2.207031 -4.875 2.46875 -5.0625 2.78125 -5.1875 C 3.09375 -5.3125 3.441406 -5.375 3.828125 -5.375 Z M 3.828125 -5.375 "/></g></g></g><g fill="#000000" fill-opacity="1"><g transform="translate(40.552798, 146.837208)"><g><path d="M 2.96875 -6.453125 C 2.445312 -6.453125 2.1875 -6.164062 2.1875 -5.59375 L 2.1875 -5.28125 L 3.65625 -5.28125 L 3.65625 -4.28125 L 2.234375 -4.28125 L 2.234375 0 L 0.984375 0 L 0.984375 -4.28125 L 0.109375 -4.28125 L 0.109375 -5.28125 L 0.984375 -5.28125 L 0.984375 -5.609375 C 0.984375 -6.179688 1.148438 -6.628906 1.484375 -6.953125 C 1.816406 -7.285156 2.285156 -7.453125 2.890625 -7.453125 C 3.367188 -7.453125 3.742188 -7.359375 4.015625 -7.171875 L 3.65625 -6.234375 C 3.445312 -6.378906 3.21875 -6.453125 2.96875 -6.453125 Z M 2.96875 -6.453125 "/></g></g></g><g fill="#000000" fill-opacity="1"><g transform="translate(44.222524, 146.837208)"><g><path d="M 3.203125 0.0625 C 2.671875 0.0625 2.1875 -0.0507812 1.75 -0.28125 C 1.320312 -0.507812 0.984375 -0.832031 0.734375 -1.25 C 0.492188 -1.664062 0.375 -2.132812 0.375 -2.65625 C 0.375 -3.175781 0.492188 -3.640625 0.734375 -4.046875 C 0.984375 -4.460938 1.320312 -4.785156 1.75 -5.015625 C 2.1875 -5.253906 2.671875 -5.375 3.203125 -5.375 C 3.742188 -5.375 4.226562 -5.253906 4.65625 -5.015625 C 5.09375 -4.785156 5.429688 -4.460938 5.671875 -4.046875 C 5.921875 -3.640625 6.046875 -3.175781 6.046875 -2.65625 C 6.046875 -2.132812 5.921875 -1.664062 5.671875 -1.25 C 5.429688 -0.832031 5.09375 -0.507812 4.65625 -0.28125 C 4.226562 -0.0507812 3.742188 0.0625 3.203125 0.0625 Z M 3.203125 -1 C 3.660156 -1 4.035156 -1.148438 4.328125 -1.453125 C 4.628906 -1.753906 4.78125 -2.15625 4.78125 -2.65625 C 4.78125 -3.15625 4.628906 -3.554688 4.328125 -3.859375 C 4.035156 -4.160156 3.660156 -4.3125 3.203125 -4.3125 C 2.742188 -4.3125 2.363281 -4.160156 2.0625 -3.859375 C 1.769531 -3.554688 1.625 -3.15625 1.625 -2.65625 C 1.625 -2.15625 1.769531 -1.753906 2.0625 -1.453125 C 2.363281 -1.148438 2.742188 -1 3.203125 -1 Z M 3.203125 -1 "/></g></g></g><g fill="#000000" fill-opacity="1"><g transform="translate(50.637081, 146.837208)"><g><path d="M 3.25 0.0625 C 2.695312 0.0625 2.203125 -0.0507812 1.765625 -0.28125 C 1.328125 -0.507812 0.984375 -0.832031 0.734375 -1.25 C 0.492188 -1.664062 0.375 -2.132812 0.375 -2.65625 C 0.375 -3.175781 0.492188 -3.640625 0.734375 -4.046875 C 0.984375 -4.460938 1.328125 -4.785156 1.765625 -5.015625 C 2.203125 -5.253906 2.695312 -5.375 3.25 -5.375 C 3.78125 -5.375 4.238281 -5.265625 4.625 -5.046875 C 5.019531 -4.835938 5.320312 -4.535156 5.53125 -4.140625 L 4.5625 -3.578125 C 4.414062 -3.828125 4.226562 -4.007812 4 -4.125 C 3.769531 -4.25 3.519531 -4.3125 3.25 -4.3125 C 2.78125 -4.3125 2.390625 -4.160156 2.078125 -3.859375 C 1.773438 -3.554688 1.625 -3.15625 1.625 -2.65625 C 1.625 -2.15625 1.773438 -1.753906 2.078125 -1.453125 C 2.378906 -1.148438 2.769531 -1 3.25 -1 C 3.519531 -1 3.769531 -1.054688 4 -1.171875 C 4.226562 -1.296875 4.414062 -1.484375 4.5625 -1.734375 L 5.53125 -1.171875 C 5.320312 -0.773438 5.019531 -0.46875 4.625 -0.25 C 4.226562 -0.0390625 3.769531 0.0625 3.25 0.0625 Z M 3.25 0.0625 "/></g></g></g><g fill="#000000" fill-opacity="1"><g transform="translate(56.415155, 146.837208)"><g><path d="M 2.84375 -5.375 C 3.625 -5.375 4.222656 -5.1875 4.640625 -4.8125 C 5.054688 -4.4375 5.265625 -3.867188 5.265625 -3.109375 L 5.265625 0 L 4.09375 0 L 4.09375 -0.640625 C 3.9375 -0.410156 3.71875 -0.234375 3.4375 -0.109375 C 3.15625 0.00390625 2.816406 0.0625 2.421875 0.0625 C 2.023438 0.0625 1.675781 -0.00390625 1.375 -0.140625 C 1.070312 -0.273438 0.835938 -0.460938 0.671875 -0.703125 C 0.515625 -0.941406 0.4375 -1.210938 0.4375 -1.515625 C 0.4375 -1.992188 0.613281 -2.378906 0.96875 -2.671875 C 1.320312 -2.960938 1.878906 -3.109375 2.640625 -3.109375 L 4.015625 -3.109375 L 4.015625 -3.1875 C 4.015625 -3.5625 3.90625 -3.847656 3.6875 -4.046875 C 3.46875 -4.242188 3.140625 -4.34375 2.703125 -4.34375 C 2.398438 -4.34375 2.101562 -4.296875 1.8125 -4.203125 C 1.53125 -4.109375 1.285156 -3.976562 1.078125 -3.8125 L 0.59375 -4.71875 C 0.875 -4.925781 1.207031 -5.085938 1.59375 -5.203125 C 1.988281 -5.316406 2.40625 -5.375 2.84375 -5.375 Z M 2.671875 -0.84375 C 2.984375 -0.84375 3.257812 -0.910156 3.5 -1.046875 C 3.75 -1.191406 3.921875 -1.394531 4.015625 -1.65625 L 4.015625 -2.28125 L 2.734375 -2.28125 C 2.015625 -2.28125 1.65625 -2.046875 1.65625 -1.578125 C 1.65625 -1.347656 1.742188 -1.164062 1.921875 -1.03125 C 2.109375 -0.90625 2.359375 -0.84375 2.671875 -0.84375 Z M 2.671875 -0.84375 "/></g></g></g><g fill="#000000" fill-opacity="1"><g transform="translate(62.451809, 146.837208)"><g><path d="M 2.453125 0.0625 C 2.023438 0.0625 1.601562 0.0078125 1.1875 -0.09375 C 0.78125 -0.207031 0.453125 -0.351562 0.203125 -0.53125 L 0.6875 -1.46875 C 0.925781 -1.3125 1.210938 -1.1875 1.546875 -1.09375 C 1.878906 -1 2.207031 -0.953125 2.53125 -0.953125 C 3.28125 -0.953125 3.65625 -1.144531 3.65625 -1.53125 C 3.65625 -1.71875 3.554688 -1.847656 3.359375 -1.921875 C 3.171875 -1.992188 2.867188 -2.0625 2.453125 -2.125 C 2.015625 -2.195312 1.65625 -2.273438 1.375 -2.359375 C 1.101562 -2.441406 0.867188 -2.59375 0.671875 -2.8125 C 0.472656 -3.03125 0.375 -3.332031 0.375 -3.71875 C 0.375 -4.21875 0.582031 -4.617188 1 -4.921875 C 1.414062 -5.222656 1.984375 -5.375 2.703125 -5.375 C 3.066406 -5.375 3.429688 -5.332031 3.796875 -5.25 C 4.160156 -5.164062 4.460938 -5.054688 4.703125 -4.921875 L 4.21875 -3.96875 C 3.769531 -4.238281 3.265625 -4.375 2.703125 -4.375 C 2.335938 -4.375 2.054688 -4.316406 1.859375 -4.203125 C 1.671875 -4.097656 1.578125 -3.953125 1.578125 -3.765625 C 1.578125 -3.566406 1.675781 -3.425781 1.875 -3.34375 C 2.082031 -3.257812 2.398438 -3.179688 2.828125 -3.109375 C 3.253906 -3.046875 3.601562 -2.96875 3.875 -2.875 C 4.144531 -2.789062 4.375 -2.644531 4.5625 -2.4375 C 4.757812 -2.238281 4.859375 -1.953125 4.859375 -1.578125 C 4.859375 -1.078125 4.644531 -0.675781 4.21875 -0.375 C 3.789062 -0.0820312 3.203125 0.0625 2.453125 0.0625 Z M 2.453125 0.0625 "/></g></g></g><g fill="#000000" fill-opacity="1"><g transform="translate(67.573508, 146.837208)"><g/></g></g><g fill="#000000" fill-opacity="1"><g transform="translate(70.31834, 146.837208)"><g><path d="M 5.8125 -2.625 C 5.8125 -2.539062 5.804688 -2.421875 5.796875 -2.265625 L 1.625 -2.265625 C 1.695312 -1.867188 1.882812 -1.554688 2.1875 -1.328125 C 2.5 -1.097656 2.882812 -0.984375 3.34375 -0.984375 C 3.925781 -0.984375 4.40625 -1.175781 4.78125 -1.5625 L 5.453125 -0.796875 C 5.210938 -0.515625 4.910156 -0.300781 4.546875 -0.15625 C 4.179688 -0.0078125 3.769531 0.0625 3.3125 0.0625 C 2.726562 0.0625 2.210938 -0.0507812 1.765625 -0.28125 C 1.328125 -0.507812 0.984375 -0.832031 0.734375 -1.25 C 0.492188 -1.664062 0.375 -2.132812 0.375 -2.65625 C 0.375 -3.175781 0.488281 -3.640625 0.71875 -4.046875 C 0.957031 -4.460938 1.285156 -4.785156 1.703125 -5.015625 C 2.128906 -5.253906 2.601562 -5.375 3.125 -5.375 C 3.644531 -5.375 4.109375 -5.257812 4.515625 -5.03125 C 4.921875 -4.800781 5.238281 -4.476562 5.46875 -4.0625 C 5.695312 -3.644531 5.8125 -3.164062 5.8125 -2.625 Z M 3.125 -4.375 C 2.726562 -4.375 2.390625 -4.253906 2.109375 -4.015625 C 1.835938 -3.785156 1.671875 -3.472656 1.609375 -3.078125 L 4.625 -3.078125 C 4.570312 -3.460938 4.410156 -3.773438 4.140625 -4.015625 C 3.867188 -4.253906 3.53125 -4.375 3.125 -4.375 Z M 3.125 -4.375 "/></g></g></g><g fill="#000000" fill-opacity="1"><g transform="translate(76.504169, 146.837208)"><g><path d="M 3.828125 -5.375 C 4.503906 -5.375 5.039062 -5.175781 5.4375 -4.78125 C 5.84375 -4.394531 6.046875 -3.816406 6.046875 -3.046875 L 6.046875 0 L 4.8125 0 L 4.8125 -2.890625 C 4.8125 -3.347656 4.703125 -3.695312 4.484375 -3.9375 C 4.265625 -4.175781 3.953125 -4.296875 3.546875 -4.296875 C 3.085938 -4.296875 2.722656 -4.15625 2.453125 -3.875 C 2.191406 -3.601562 2.0625 -3.207031 2.0625 -2.6875 L 2.0625 0 L 0.8125 0 L 0.8125 -5.3125 L 2 -5.3125 L 2 -4.625 C 2.207031 -4.875 2.46875 -5.0625 2.78125 -5.1875 C 3.09375 -5.3125 3.441406 -5.375 3.828125 -5.375 Z M 3.828125 -5.375 "/></g></g></g><g fill="#000000" fill-opacity="1"><g transform="translate(83.316532, 146.837208)"><g/></g></g><g fill="#000000" fill-opacity="1"><g transform="translate(86.061363, 146.837208)"><g><path d="M 4.015625 -0.28125 C 3.867188 -0.164062 3.691406 -0.078125 3.484375 -0.015625 C 3.273438 0.0351562 3.050781 0.0625 2.8125 0.0625 C 2.226562 0.0625 1.773438 -0.0859375 1.453125 -0.390625 C 1.140625 -0.691406 0.984375 -1.132812 0.984375 -1.71875 L 0.984375 -4.28125 L 0.109375 -4.28125 L 0.109375 -5.28125 L 0.984375 -5.28125 L 0.984375 -6.484375 L 2.234375 -6.484375 L 2.234375 -5.28125 L 3.65625 -5.28125 L 3.65625 -4.28125 L 2.234375 -4.28125 L 2.234375 -1.75 C 2.234375 -1.488281 2.296875 -1.289062 2.421875 -1.15625 C 2.546875 -1.019531 2.726562 -0.953125 2.96875 -0.953125 C 3.25 -0.953125 3.476562 -1.023438 3.65625 -1.171875 Z M 4.015625 -0.28125 "/></g></g></g><g fill="#000000" fill-opacity="1"><g transform="translate(90.278069, 146.837208)"><g><path d="M 5.96875 -5.3125 L 5.96875 0 L 4.78125 0 L 4.78125 -0.671875 C 4.582031 -0.429688 4.332031 -0.25 4.03125 -0.125 C 3.726562 0 3.40625 0.0625 3.0625 0.0625 C 2.351562 0.0625 1.796875 -0.128906 1.390625 -0.515625 C 0.984375 -0.910156 0.78125 -1.5 0.78125 -2.28125 L 0.78125 -5.3125 L 2.015625 -5.3125 L 2.015625 -2.453125 C 2.015625 -1.972656 2.125 -1.613281 2.34375 -1.375 C 2.5625 -1.144531 2.867188 -1.03125 3.265625 -1.03125 C 3.710938 -1.03125 4.066406 -1.164062 4.328125 -1.4375 C 4.585938 -1.707031 4.71875 -2.101562 4.71875 -2.625 L 4.71875 -5.3125 Z M 5.96875 -5.3125 "/></g></g></g><g fill="#000000" fill-opacity="1"><g transform="translate(97.05065, 146.837208)"><g/></g></g><g fill="#000000" fill-opacity="1"><g transform="translate(99.795481, 146.837208)"><g><path d="M 3.765625 -5.375 C 4.273438 -5.375 4.734375 -5.257812 5.140625 -5.03125 C 5.554688 -4.8125 5.878906 -4.492188 6.109375 -4.078125 C 6.335938 -3.671875 6.453125 -3.195312 6.453125 -2.65625 C 6.453125 -2.113281 6.335938 -1.632812 6.109375 -1.21875 C 5.878906 -0.8125 5.554688 -0.492188 5.140625 -0.265625 C 4.734375 -0.046875 4.273438 0.0625 3.765625 0.0625 C 3.046875 0.0625 2.476562 -0.171875 2.0625 -0.640625 L 2.0625 1.9375 L 0.8125 1.9375 L 0.8125 -5.3125 L 2 -5.3125 L 2 -4.625 C 2.207031 -4.875 2.460938 -5.0625 2.765625 -5.1875 C 3.066406 -5.3125 3.398438 -5.375 3.765625 -5.375 Z M 3.625 -1 C 4.082031 -1 4.457031 -1.148438 4.75 -1.453125 C 5.050781 -1.753906 5.203125 -2.15625 5.203125 -2.65625 C 5.203125 -3.15625 5.050781 -3.554688 4.75 -3.859375 C 4.457031 -4.160156 4.082031 -4.3125 3.625 -4.3125 C 3.320312 -4.3125 3.050781 -4.242188 2.8125 -4.109375 C 2.570312 -3.972656 2.382812 -3.78125 2.25 -3.53125 C 2.113281 -3.28125 2.046875 -2.988281 2.046875 -2.65625 C 2.046875 -2.320312 2.113281 -2.03125 2.25 -1.78125 C 2.382812 -1.53125 2.570312 -1.335938 2.8125 -1.203125 C 3.050781 -1.066406 3.320312 -1 3.625 -1 Z M 3.625 -1 "/></g></g></g><g fill="#000000" fill-opacity="1"><g transform="translate(106.617794, 146.837208)"><g><path d="M 2 -4.53125 C 2.351562 -5.09375 2.984375 -5.375 3.890625 -5.375 L 3.890625 -4.1875 C 3.785156 -4.207031 3.691406 -4.21875 3.609375 -4.21875 C 3.117188 -4.21875 2.738281 -4.078125 2.46875 -3.796875 C 2.195312 -3.515625 2.0625 -3.109375 2.0625 -2.578125 L 2.0625 0 L 0.8125 0 L 0.8125 -5.3125 L 2 -5.3125 Z M 2 -4.53125 "/></g></g></g><g fill="#000000" fill-opacity="1"><g transform="translate(110.794719, 146.837208)"><g><path d="M 3.203125 0.0625 C 2.671875 0.0625 2.1875 -0.0507812 1.75 -0.28125 C 1.320312 -0.507812 0.984375 -0.832031 0.734375 -1.25 C 0.492188 -1.664062 0.375 -2.132812 0.375 -2.65625 C 0.375 -3.175781 0.492188 -3.640625 0.734375 -4.046875 C 0.984375 -4.460938 1.320312 -4.785156 1.75 -5.015625 C 2.1875 -5.253906 2.671875 -5.375 3.203125 -5.375 C 3.742188 -5.375 4.226562 -5.253906 4.65625 -5.015625 C 5.09375 -4.785156 5.429688 -4.460938 5.671875 -4.046875 C 5.921875 -3.640625 6.046875 -3.175781 6.046875 -2.65625 C 6.046875 -2.132812 5.921875 -1.664062 5.671875 -1.25 C 5.429688 -0.832031 5.09375 -0.507812 4.65625 -0.28125 C 4.226562 -0.0507812 3.742188 0.0625 3.203125 0.0625 Z M 3.203125 -1 C 3.660156 -1 4.035156 -1.148438 4.328125 -1.453125 C 4.628906 -1.753906 4.78125 -2.15625 4.78125 -2.65625 C 4.78125 -3.15625 4.628906 -3.554688 4.328125 -3.859375 C 4.035156 -4.160156 3.660156 -4.3125 3.203125 -4.3125 C 2.742188 -4.3125 2.363281 -4.160156 2.0625 -3.859375 C 1.769531 -3.554688 1.625 -3.15625 1.625 -2.65625 C 1.625 -2.15625 1.769531 -1.753906 2.0625 -1.453125 C 2.363281 -1.148438 2.742188 -1 3.203125 -1 Z M 3.203125 -1 "/></g></g></g><g fill="#000000" fill-opacity="1"><g transform="translate(117.209276, 146.837208)"><g><path d="M 5.796875 -5.3125 L 3.296875 0.421875 C 3.066406 1.003906 2.785156 1.410156 2.453125 1.640625 C 2.117188 1.878906 1.71875 2 1.25 2 C 0.988281 2 0.726562 1.953125 0.46875 1.859375 C 0.207031 1.773438 -0.00390625 1.660156 -0.171875 1.515625 L 0.328125 0.59375 C 0.441406 0.707031 0.582031 0.796875 0.75 0.859375 C 0.914062 0.929688 1.082031 0.96875 1.25 0.96875 C 1.46875 0.96875 1.644531 0.910156 1.78125 0.796875 C 1.925781 0.679688 2.0625 0.492188 2.1875 0.234375 L 2.265625 0.015625 L -0.046875 -5.3125 L 1.25 -5.3125 L 2.921875 -1.390625 L 4.59375 -5.3125 Z M 5.796875 -5.3125 "/></g></g></g><g fill="#000000" fill-opacity="1"><g transform="translate(122.957519, 146.837208)"><g><path d="M 5.8125 -2.625 C 5.8125 -2.539062 5.804688 -2.421875 5.796875 -2.265625 L 1.625 -2.265625 C 1.695312 -1.867188 1.882812 -1.554688 2.1875 -1.328125 C 2.5 -1.097656 2.882812 -0.984375 3.34375 -0.984375 C 3.925781 -0.984375 4.40625 -1.175781 4.78125 -1.5625 L 5.453125 -0.796875 C 5.210938 -0.515625 4.910156 -0.300781 4.546875 -0.15625 C 4.179688 -0.0078125 3.769531 0.0625 3.3125 0.0625 C 2.726562 0.0625 2.210938 -0.0507812 1.765625 -0.28125 C 1.328125 -0.507812 0.984375 -0.832031 0.734375 -1.25 C 0.492188 -1.664062 0.375 -2.132812 0.375 -2.65625 C 0.375 -3.175781 0.488281 -3.640625 0.71875 -4.046875 C 0.957031 -4.460938 1.285156 -4.785156 1.703125 -5.015625 C 2.128906 -5.253906 2.601562 -5.375 3.125 -5.375 C 3.644531 -5.375 4.109375 -5.257812 4.515625 -5.03125 C 4.921875 -4.800781 5.238281 -4.476562 5.46875 -4.0625 C 5.695312 -3.644531 5.8125 -3.164062 5.8125 -2.625 Z M 3.125 -4.375 C 2.726562 -4.375 2.390625 -4.253906 2.109375 -4.015625 C 1.835938 -3.785156 1.671875 -3.472656 1.609375 -3.078125 L 4.625 -3.078125 C 4.570312 -3.460938 4.410156 -3.773438 4.140625 -4.015625 C 3.867188 -4.253906 3.53125 -4.375 3.125 -4.375 Z M 3.125 -4.375 "/></g></g></g><g fill="#000000" fill-opacity="1"><g transform="translate(129.143349, 146.837208)"><g><path d="M 3.25 0.0625 C 2.695312 0.0625 2.203125 -0.0507812 1.765625 -0.28125 C 1.328125 -0.507812 0.984375 -0.832031 0.734375 -1.25 C 0.492188 -1.664062 0.375 -2.132812 0.375 -2.65625 C 0.375 -3.175781 0.492188 -3.640625 0.734375 -4.046875 C 0.984375 -4.460938 1.328125 -4.785156 1.765625 -5.015625 C 2.203125 -5.253906 2.695312 -5.375 3.25 -5.375 C 3.78125 -5.375 4.238281 -5.265625 4.625 -5.046875 C 5.019531 -4.835938 5.320312 -4.535156 5.53125 -4.140625 L 4.5625 -3.578125 C 4.414062 -3.828125 4.226562 -4.007812 4 -4.125 C 3.769531 -4.25 3.519531 -4.3125 3.25 -4.3125 C 2.78125 -4.3125 2.390625 -4.160156 2.078125 -3.859375 C 1.773438 -3.554688 1.625 -3.15625 1.625 -2.65625 C 1.625 -2.15625 1.773438 -1.753906 2.078125 -1.453125 C 2.378906 -1.148438 2.769531 -1 3.25 -1 C 3.519531 -1 3.769531 -1.054688 4 -1.171875 C 4.226562 -1.296875 4.414062 -1.484375 4.5625 -1.734375 L 5.53125 -1.171875 C 5.320312 -0.773438 5.019531 -0.46875 4.625 -0.25 C 4.226562 -0.0390625 3.769531 0.0625 3.25 0.0625 Z M 3.25 0.0625 "/></g></g></g><g fill="#000000" fill-opacity="1"><g transform="translate(134.921423, 146.837208)"><g><path d="M 4.015625 -0.28125 C 3.867188 -0.164062 3.691406 -0.078125 3.484375 -0.015625 C 3.273438 0.0351562 3.050781 0.0625 2.8125 0.0625 C 2.226562 0.0625 1.773438 -0.0859375 1.453125 -0.390625 C 1.140625 -0.691406 0.984375 -1.132812 0.984375 -1.71875 L 0.984375 -4.28125 L 0.109375 -4.28125 L 0.109375 -5.28125 L 0.984375 -5.28125 L 0.984375 -6.484375 L 2.234375 -6.484375 L 2.234375 -5.28125 L 3.65625 -5.28125 L 3.65625 -4.28125 L 2.234375 -4.28125 L 2.234375 -1.75 C 2.234375 -1.488281 2.296875 -1.289062 2.421875 -1.15625 C 2.546875 -1.019531 2.726562 -0.953125 2.96875 -0.953125 C 3.25 -0.953125 3.476562 -1.023438 3.65625 -1.171875 Z M 4.015625 -0.28125 "/></g></g></g><g fill="#000000" fill-opacity="1"><g transform="translate(139.138129, 146.837208)"><g><path d="M 3.203125 0.0625 C 2.671875 0.0625 2.1875 -0.0507812 1.75 -0.28125 C 1.320312 -0.507812 0.984375 -0.832031 0.734375 -1.25 C 0.492188 -1.664062 0.375 -2.132812 0.375 -2.65625 C 0.375 -3.175781 0.492188 -3.640625 0.734375 -4.046875 C 0.984375 -4.460938 1.320312 -4.785156 1.75 -5.015625 C 2.1875 -5.253906 2.671875 -5.375 3.203125 -5.375 C 3.742188 -5.375 4.226562 -5.253906 4.65625 -5.015625 C 5.09375 -4.785156 5.429688 -4.460938 5.671875 -4.046875 C 5.921875 -3.640625 6.046875 -3.175781 6.046875 -2.65625 C 6.046875 -2.132812 5.921875 -1.664062 5.671875 -1.25 C 5.429688 -0.832031 5.09375 -0.507812 4.65625 -0.28125 C 4.226562 -0.0507812 3.742188 0.0625 3.203125 0.0625 Z M 3.203125 -1 C 3.660156 -1 4.035156 -1.148438 4.328125 -1.453125 C 4.628906 -1.753906 4.78125 -2.15625 4.78125 -2.65625 C 4.78125 -3.15625 4.628906 -3.554688 4.328125 -3.859375 C 4.035156 -4.160156 3.660156 -4.3125 3.203125 -4.3125 C 2.742188 -4.3125 2.363281 -4.160156 2.0625 -3.859375 C 1.769531 -3.554688 1.625 -3.15625 1.625 -2.65625 C 1.625 -2.15625 1.769531 -1.753906 2.0625 -1.453125 C 2.363281 -1.148438 2.742188 -1 3.203125 -1 Z M 3.203125 -1 "/></g></g></g><g fill="#000000" fill-opacity="1"><g transform="translate(145.552686, 146.837208)"><g><path d="M 0.65625 -6.96875 L 2.125 -6.96875 L 1.875 -2.3125 L 0.890625 -2.3125 Z M 1.390625 0.0625 C 1.160156 0.0625 0.96875 -0.0078125 0.8125 -0.15625 C 0.664062 -0.300781 0.59375 -0.484375 0.59375 -0.703125 C 0.59375 -0.921875 0.664062 -1.101562 0.8125 -1.25 C 0.96875 -1.394531 1.160156 -1.46875 1.390625 -1.46875 C 1.617188 -1.46875 1.804688 -1.394531 1.953125 -1.25 C 2.109375 -1.101562 2.1875 -0.921875 2.1875 -0.703125 C 2.1875 -0.484375 2.109375 -0.300781 1.953125 -0.15625 C 1.804688 -0.0078125 1.617188 0.0625 1.390625 0.0625 Z M 1.390625 0.0625 "/></g></g></g><g fill="#000000" fill-opacity="1"><g transform="translate(148.317408, 146.837208)"><g><path d="M 0.5625 -6.96875 L 1.625 -6.96875 L 1.546875 -4.203125 L 0.640625 -4.203125 Z M 2.484375 -6.96875 L 3.546875 -6.96875 L 3.46875 -4.203125 L 2.5625 -4.203125 Z M 2.484375 -6.96875 "/></g></g></g></svg>